{"glyphs":{"0":{"ha":865,"x_min":83,"x_max":782,"o":"m 432 -14 q 292 13 356 -14 q 181 89 228 40 q 109 206 135 138 q 83 357 83 275 l 83 632 q 109 782 83 714 q 181 899 135 850 q 292 976 228 949 q 432 1003 356 1003 q 572 976 508 1003 q 683 899 636 949 q 756 782 729 850 q 782 632 782 714 l 782 357 q 756 206 782 275 q 683 89 729 138 q 572 13 636 40 q 432 -14 508 -14 m 432 103 q 598 169 533 103 q 663 357 663 236 l 663 632 q 598 819 663 753 q 432 886 533 886 q 340 869 382 886 q 267 819 297 851 q 220 739 238 786 q 203 632 203 692 l 203 357 q 220 250 203 297 q 267 170 238 203 q 340 120 297 138 q 432 103 382 103 z "},"1":{"ha":432,"x_min":46,"x_max":301,"o":"m 182 868 l 46 868 l 46 986 l 301 986 l 301 0 l 182 0 l 182 868 z "},"2":{"ha":765,"x_min":54,"x_max":699,"o":"m 54 100 l 435 469 q 483 519 460 493 q 524 575 506 546 q 554 635 543 604 q 565 701 565 667 q 551 774 565 740 q 511 833 536 808 q 452 872 486 858 q 379 886 418 886 q 309 873 342 886 q 250 837 276 860 q 206 783 224 814 q 183 715 189 751 l 64 740 q 101 845 74 797 q 171 928 129 893 q 267 983 213 964 q 383 1003 321 1003 q 503 981 447 1003 q 599 920 558 960 q 663 826 640 881 q 686 707 686 772 q 640 535 686 613 q 517 383 594 458 l 236 115 l 699 115 l 699 0 l 54 0 l 54 100 z "},"3":{"ha":788,"x_min":38,"x_max":721,"o":"m 385 -14 q 270 3 326 -14 q 167 51 214 19 q 85 127 119 82 q 38 228 51 172 l 158 269 q 238 149 178 196 q 386 103 297 103 q 468 117 429 103 q 536 158 507 132 q 583 219 565 183 q 600 299 600 256 q 540 445 600 393 q 382 497 479 497 l 265 497 l 265 596 l 515 869 l 93 869 l 93 986 l 675 986 l 675 888 l 422 608 q 547 581 492 606 q 641 514 603 556 q 700 417 679 472 q 721 299 721 361 q 697 174 721 232 q 628 75 672 117 q 522 10 583 33 q 385 -14 460 -14 z "},"4":{"ha":857,"x_min":24,"x_max":804,"o":"m 549 268 l 24 268 l 24 364 l 564 986 l 668 986 l 668 381 l 804 381 l 804 268 l 668 268 l 668 0 l 549 0 l 549 268 m 549 381 l 549 806 l 179 381 l 549 381 z "},"5":{"ha":789,"x_min":61,"x_max":733,"o":"m 408 -14 q 294 3 350 -14 q 190 52 238 21 q 109 128 143 83 q 61 228 75 172 l 182 269 q 260 150 200 197 q 408 103 319 103 q 489 119 451 103 q 553 165 526 136 q 596 231 581 193 q 611 314 611 269 q 596 397 611 358 q 553 465 581 436 q 488 510 526 493 q 404 526 450 526 q 300 504 346 526 q 228 442 254 482 l 106 442 l 106 986 l 668 986 l 668 869 l 225 869 l 225 569 q 303 619 253 597 q 419 640 354 640 q 547 614 489 640 q 646 542 604 588 q 710 433 688 496 q 733 299 733 371 q 708 176 733 233 q 640 77 683 119 q 537 10 596 35 q 408 -14 478 -14 z "},"6":{"ha":776,"x_min":50,"x_max":718,"o":"m 385 -14 q 251 12 313 -14 q 145 81 190 38 q 75 185 100 125 q 50 311 50 244 q 83 449 50 389 q 161 563 115 508 l 521 986 l 672 986 l 371 629 q 390 631 381 631 q 410 632 399 632 q 528 606 472 632 q 626 538 583 581 q 693 436 668 494 q 718 314 718 378 q 693 186 718 246 q 624 82 668 126 q 518 12 579 38 q 385 -14 457 -14 m 385 101 q 468 118 429 101 q 535 164 507 135 q 580 231 564 193 q 596 314 596 269 q 580 396 596 357 q 535 464 564 435 q 468 510 507 493 q 385 526 429 526 q 300 510 339 526 q 233 464 261 493 q 188 396 204 435 q 172 314 172 357 q 188 231 172 269 q 233 164 204 193 q 300 118 261 135 q 385 101 339 101 z "},"7":{"ha":707,"x_min":40,"x_max":688,"o":"m 85 0 l 544 869 l 40 869 l 40 986 l 688 986 l 688 886 l 218 0 l 85 0 z "},"8":{"ha":793,"x_min":65,"x_max":728,"o":"m 397 -14 q 264 9 325 -14 q 159 74 203 32 q 90 172 115 115 q 65 296 65 229 q 106 451 65 385 q 221 553 147 517 q 147 636 174 586 q 119 749 119 686 q 140 851 119 804 q 199 931 161 897 q 287 984 236 965 q 397 1003 338 1003 q 509 984 458 1003 q 597 931 560 965 q 653 851 633 897 q 674 749 674 804 q 647 636 674 686 q 574 553 621 586 q 688 451 647 517 q 728 296 728 385 q 703 172 728 229 q 635 74 679 115 q 531 9 592 32 q 397 -14 471 -14 m 397 100 q 486 115 447 100 q 552 157 525 131 q 593 219 579 183 q 607 296 607 256 q 593 374 607 338 q 552 436 579 410 q 486 478 525 463 q 397 493 447 493 q 310 478 349 493 q 243 436 271 463 q 201 374 215 410 q 186 296 186 338 q 201 219 186 256 q 243 157 215 183 q 310 115 271 131 q 397 100 349 100 m 397 600 q 464 612 435 600 q 514 644 493 624 q 545 690 535 664 q 556 746 556 717 q 514 849 556 808 q 397 890 472 890 q 281 849 325 890 q 238 746 238 808 q 249 690 238 717 q 281 644 260 664 q 331 612 301 624 q 397 600 361 600 z "},"9":{"ha":776,"x_min":60,"x_max":728,"o":"m 407 358 q 387 357 396 357 q 368 357 378 357 q 250 383 306 357 q 152 451 194 408 q 85 552 110 494 q 60 674 60 610 q 85 802 60 742 q 154 907 110 863 q 260 977 199 951 q 393 1003 321 1003 q 526 977 465 1003 q 632 908 588 951 q 702 804 676 864 q 728 678 728 744 q 695 540 728 600 q 617 426 663 481 l 256 0 l 103 0 l 407 358 m 393 463 q 478 479 439 463 q 545 525 517 496 q 590 592 574 554 q 606 675 606 631 q 590 757 606 718 q 545 825 574 796 q 478 871 517 854 q 393 888 439 888 q 309 871 347 888 q 242 825 271 854 q 198 757 214 796 q 182 675 182 718 q 198 592 182 631 q 242 525 214 554 q 309 479 271 496 q 393 463 347 463 z "}," ":{"ha":335,"x_min":0,"x_max":0,"o":""},"!":{"ha":378,"x_min":104,"x_max":275,"o":"m 129 592 l 129 986 l 249 986 l 249 592 l 226 308 l 151 308 l 129 592 m 190 -11 q 129 13 154 -11 q 104 74 104 38 q 129 133 104 108 q 190 158 154 158 q 251 133 226 158 q 275 74 275 108 q 251 13 275 38 q 190 -11 226 -11 z "},"\"":{"ha":574,"x_min":92,"x_max":481,"o":"m 92 986 l 200 986 l 200 643 l 92 643 l 92 986 m 372 986 l 481 986 l 481 643 l 372 643 l 372 986 z "},"#":{"ha":1024,"x_min":46,"x_max":976,"o":"m 568 278 l 317 278 l 232 0 l 121 0 l 207 278 l 46 278 l 46 379 l 239 379 l 314 617 l 147 617 l 147 718 l 346 718 l 429 986 l 539 986 l 456 718 l 706 718 l 790 986 l 899 986 l 815 718 l 976 718 l 976 617 l 783 617 l 710 379 l 876 379 l 876 278 l 676 278 l 592 0 l 482 0 l 568 278 m 350 379 l 600 379 l 674 617 l 424 617 l 350 379 z "},"$":{"ha":710,"x_min":61,"x_max":657,"o":"m 322 -12 q 167 28 235 -6 q 61 104 100 61 l 140 196 q 217 135 171 160 q 322 104 264 111 l 322 451 l 276 469 q 113 584 164 514 q 63 750 63 654 q 83 850 63 806 q 140 926 104 894 q 222 977 175 958 q 322 1001 269 996 l 322 1108 l 397 1108 l 397 1000 q 525 963 468 993 q 619 893 582 933 l 540 806 q 397 885 479 871 l 397 557 l 435 542 q 601 430 544 499 q 657 256 657 361 q 637 144 657 193 q 582 63 617 96 q 499 10 547 29 q 397 -12 451 -8 l 397 -122 l 322 -122 l 322 -12 m 538 247 q 501 353 538 314 q 397 421 465 392 l 397 104 q 498 151 458 114 q 538 247 538 189 m 182 751 q 215 656 182 693 q 322 586 247 618 l 322 885 q 221 841 260 876 q 182 751 182 806 z "},"%":{"ha":1376,"x_min":44,"x_max":1332,"o":"m 311 0 l 936 986 l 1065 986 l 440 0 l 311 0 m 1058 -11 q 951 10 1001 -11 q 865 69 901 32 q 806 156 828 107 q 785 263 785 206 q 806 369 785 319 q 865 456 828 419 q 951 515 901 493 q 1058 536 1001 536 q 1164 515 1114 536 q 1251 456 1214 493 q 1310 369 1289 419 q 1332 263 1332 319 q 1310 156 1332 206 q 1251 69 1289 107 q 1164 10 1214 32 q 1058 -11 1114 -11 m 1058 97 q 1122 110 1092 97 q 1174 147 1151 124 q 1209 199 1196 169 q 1222 263 1222 229 q 1209 326 1222 296 q 1174 378 1196 356 q 1122 415 1151 401 q 1058 428 1092 428 q 994 415 1024 428 q 942 378 964 401 q 907 326 919 356 q 894 263 894 296 q 907 199 894 229 q 942 147 919 169 q 994 110 964 124 q 1058 97 1024 97 m 318 450 q 211 472 261 450 q 124 531 161 493 q 66 617 88 568 q 44 724 44 667 q 66 831 44 781 q 124 917 88 881 q 211 976 161 954 q 318 997 261 997 q 424 976 374 997 q 511 917 474 954 q 570 831 549 881 q 592 724 592 781 q 570 617 592 667 q 511 531 549 568 q 424 472 474 493 q 318 450 374 450 m 318 558 q 381 572 351 558 q 433 608 411 585 q 469 660 456 631 q 482 724 482 690 q 469 787 482 757 q 433 840 456 817 q 381 876 411 863 q 318 889 351 889 q 253 876 283 889 q 201 840 224 863 q 167 787 179 817 q 154 724 154 757 q 167 660 154 690 q 201 608 179 631 q 253 572 224 585 q 318 558 283 558 z "},"&":{"ha":1028,"x_min":92,"x_max":1038,"o":"m 394 -14 q 270 8 326 -14 q 174 67 214 29 q 113 156 135 104 q 92 269 92 208 q 110 366 92 324 q 158 442 128 408 q 225 502 188 475 q 301 551 263 529 l 308 556 q 265 601 286 576 q 226 653 243 625 q 199 712 210 681 q 189 779 189 743 q 208 870 189 829 q 262 940 228 911 q 342 986 296 969 q 440 1003 388 1003 q 539 985 494 1003 q 616 935 583 967 q 666 863 649 904 q 683 774 683 821 q 667 691 683 728 q 623 625 650 654 q 562 572 596 596 q 492 531 528 549 l 703 325 l 847 511 l 932 444 l 781 250 l 1038 0 l 881 0 l 711 164 q 636 86 672 119 q 562 31 600 53 q 483 -3 524 8 q 394 -14 442 -14 m 399 94 q 519 130 465 94 q 635 239 574 165 l 388 478 l 369 468 q 254 384 296 429 q 213 268 213 339 q 228 194 213 226 q 269 140 243 163 q 329 106 296 118 q 399 94 363 94 m 304 776 q 335 689 304 726 q 415 606 367 651 l 422 610 q 478 640 451 625 q 523 674 504 656 q 553 715 542 693 q 564 765 564 738 q 530 861 564 824 q 438 899 496 899 q 344 867 383 899 q 304 776 304 835 z "},"'":{"ha":293,"x_min":92,"x_max":200,"o":"m 92 986 l 200 986 l 200 643 l 92 643 l 92 986 z "},"(":{"ha":367,"x_min":65,"x_max":321,"o":"m 172 444 q 207 131 172 283 q 321 -181 242 -21 l 243 -222 q 65 444 65 100 q 243 1111 65 789 l 321 1069 q 207 758 242 910 q 172 444 172 606 z "},")":{"ha":367,"x_min":46,"x_max":301,"o":"m 194 444 q 160 758 194 606 q 46 1069 125 910 l 124 1111 q 301 444 301 789 q 124 -222 301 100 l 46 -181 q 160 131 125 -21 q 194 444 194 283 z "},"*":{"ha":611,"x_min":54,"x_max":557,"o":"m 122 571 l 229 719 l 54 778 l 81 867 l 258 808 l 258 986 l 351 986 l 351 808 l 528 865 l 557 778 l 381 719 l 490 571 l 415 517 l 306 665 l 197 517 l 122 571 z "},"+":{"ha":694,"x_min":53,"x_max":640,"o":"m 53 456 l 293 456 l 293 694 l 401 694 l 401 456 l 640 456 l 640 349 l 401 349 l 401 110 l 293 110 l 293 349 l 53 349 l 53 456 z "},",":{"ha":315,"x_min":17,"x_max":243,"o":"m 90 -199 l 17 -199 l 110 4 q 83 33 93 15 q 72 74 72 51 q 97 133 72 108 q 158 158 122 158 q 219 133 194 158 q 243 74 243 108 q 232 26 243 43 l 90 -199 z "},"-":{"ha":536,"x_min":90,"x_max":444,"o":"m 90 449 l 444 449 l 444 329 l 90 329 l 90 449 z "},".":{"ha":315,"x_min":72,"x_max":243,"o":"m 158 -11 q 97 13 122 -11 q 72 74 72 38 q 97 133 72 108 q 158 158 122 158 q 219 133 194 158 q 243 74 243 108 q 219 13 243 38 q 158 -11 194 -11 z "},"/":{"ha":707,"x_min":29,"x_max":678,"o":"m 565 986 l 678 986 l 142 -153 l 29 -153 l 565 986 z "},":":{"ha":346,"x_min":88,"x_max":258,"o":"m 174 503 q 113 527 138 503 q 88 588 88 551 q 113 647 88 622 q 174 672 138 672 q 234 647 210 672 q 258 588 258 622 q 234 527 258 551 q 174 503 210 503 m 174 -11 q 113 13 138 -11 q 88 74 88 38 q 113 133 88 108 q 174 158 138 158 q 234 133 210 158 q 258 74 258 108 q 234 13 258 38 q 174 -11 210 -11 z "},";":{"ha":364,"x_min":42,"x_max":271,"o":"m 186 503 q 125 527 150 503 q 100 588 100 551 q 125 647 100 622 q 186 672 150 672 q 247 647 222 672 q 271 588 271 622 q 247 527 271 551 q 186 503 222 503 m 115 -199 l 42 -199 l 135 4 q 108 33 118 15 q 97 74 97 51 q 122 133 97 108 q 183 158 147 158 q 244 133 219 158 q 268 74 268 108 q 257 26 268 43 l 115 -199 z "},"=":{"ha":778,"x_min":94,"x_max":683,"o":"m 94 304 l 683 304 l 683 199 l 94 199 l 94 304 m 94 607 l 683 607 l 683 500 l 94 500 l 94 607 z "},"?":{"ha":731,"x_min":40,"x_max":656,"o":"m 281 356 q 292 409 281 383 q 323 458 304 435 q 364 501 342 482 q 407 536 386 521 q 460 576 436 557 q 500 617 483 596 q 526 661 517 638 q 536 717 536 685 q 522 783 536 753 q 483 837 507 814 q 426 873 458 860 q 356 886 393 886 q 226 851 283 886 q 138 758 169 817 l 40 817 q 93 891 61 857 q 166 950 125 925 q 255 989 207 975 q 357 1003 303 1003 q 477 980 422 1003 q 572 917 532 957 q 633 826 611 878 q 656 719 656 775 q 642 635 656 672 q 608 567 629 597 q 560 513 586 536 q 510 469 535 489 q 471 440 490 454 q 435 409 451 425 q 410 376 419 393 q 400 339 400 358 l 400 328 l 281 328 l 281 356 m 342 -11 q 281 13 306 -11 q 256 74 256 38 q 281 133 256 108 q 342 158 306 158 q 402 133 378 158 q 426 74 426 108 q 402 13 426 38 q 342 -11 378 -11 z "},"@":{"ha":1128,"x_min":65,"x_max":1078,"o":"m 549 -14 q 347 24 436 -14 q 194 126 257 61 q 99 280 132 192 q 65 468 65 368 q 110 685 65 586 q 228 854 154 783 q 401 964 303 925 q 606 1003 499 1003 q 792 972 706 1003 q 942 883 878 940 q 1042 745 1006 826 q 1078 564 1078 664 q 1057 409 1078 474 q 1001 303 1036 344 q 922 241 967 261 q 831 221 878 221 q 732 247 765 221 q 685 304 699 272 q 608 245 658 268 q 506 222 558 222 q 423 239 461 222 q 356 286 385 256 q 310 361 326 317 q 293 463 293 406 q 315 583 293 528 q 376 679 338 639 q 465 742 414 719 q 574 765 515 765 q 638 755 610 765 q 685 730 665 744 q 717 699 704 715 q 735 672 729 683 l 749 753 l 854 753 l 786 422 q 785 344 776 376 q 839 313 794 313 q 942 374 903 313 q 981 567 981 436 q 952 710 981 646 q 873 819 924 774 q 753 888 822 864 q 604 913 685 913 q 438 881 517 913 q 297 792 358 850 q 200 652 236 735 q 164 468 164 569 q 190 310 164 382 q 267 187 217 239 q 388 106 317 135 q 549 76 458 76 q 678 90 611 76 q 801 135 744 104 l 840 47 q 697 1 775 17 q 549 -14 619 -14 m 522 317 q 611 342 571 317 q 675 408 651 368 l 708 565 q 664 637 697 603 q 575 671 631 671 q 514 659 543 671 q 461 626 485 647 q 422 575 438 604 q 400 513 406 546 q 397 435 392 471 q 419 373 403 399 q 463 332 436 347 q 522 317 489 317 z "},"A":{"ha":997,"x_min":8,"x_max":989,"o":"m 444 986 l 551 986 l 989 0 l 854 0 l 726 288 l 267 288 l 142 0 l 8 0 l 444 986 m 318 404 l 675 404 l 496 811 l 318 404 z "},"B":{"ha":874,"x_min":131,"x_max":814,"o":"m 131 986 l 454 986 q 577 965 522 986 q 670 908 632 943 q 728 824 708 872 q 749 725 749 776 q 719 602 749 651 q 643 524 690 553 q 765 442 715 497 q 814 288 814 386 q 790 174 814 226 q 724 82 767 121 q 619 22 681 43 q 483 0 558 0 l 131 0 l 131 986 m 489 117 q 638 163 589 117 q 688 283 688 210 q 638 403 688 356 q 490 451 589 451 l 260 451 l 260 117 l 489 117 m 454 563 q 578 606 533 563 q 622 715 622 649 q 578 824 622 778 q 454 869 533 869 l 260 869 l 260 563 l 454 563 z "},"C":{"ha":1049,"x_min":63,"x_max":1008,"o":"m 572 -17 q 373 23 465 -17 q 211 131 281 63 q 102 293 142 200 q 63 493 63 386 q 102 693 63 600 q 211 855 142 786 q 373 963 281 924 q 572 1003 465 1003 q 828 938 714 1003 q 1008 764 942 874 l 900 699 q 765 831 849 782 q 572 881 681 881 q 422 851 492 881 q 302 768 353 821 q 222 644 251 715 q 193 493 193 574 q 222 341 193 411 q 302 218 251 271 q 422 135 353 165 q 572 106 492 106 q 765 155 681 106 q 900 288 849 204 l 1008 222 q 828 48 942 113 q 572 -17 714 -17 z "},"D":{"ha":1001,"x_min":131,"x_max":939,"o":"m 131 986 l 414 986 q 624 949 528 986 q 790 845 719 911 q 899 689 860 779 q 939 493 939 599 q 899 297 939 388 q 790 141 860 207 q 624 38 719 75 q 414 0 528 0 l 131 0 l 131 986 m 414 121 q 576 149 503 121 q 700 226 649 176 q 780 344 751 276 q 808 493 808 413 q 780 642 808 574 q 700 760 751 710 q 576 838 649 810 q 414 865 503 865 l 260 865 l 260 121 l 414 121 z "},"E":{"ha":774,"x_min":131,"x_max":706,"o":"m 131 986 l 706 986 l 706 864 l 260 864 l 260 565 l 622 565 l 622 443 l 260 443 l 260 122 l 706 122 l 706 0 l 131 0 l 131 986 z "},"F":{"ha":738,"x_min":131,"x_max":704,"o":"m 131 986 l 704 986 l 704 864 l 260 864 l 260 565 l 611 565 l 611 443 l 260 443 l 260 0 l 131 0 l 131 986 z "},"G":{"ha":1063,"x_min":64,"x_max":982,"o":"m 594 -17 q 381 22 478 -17 q 213 130 283 61 q 103 292 142 199 q 64 493 64 385 q 103 693 64 600 q 210 855 142 786 q 374 963 279 924 q 578 1003 468 1003 q 787 967 694 1003 q 949 865 879 932 l 863 772 q 740 851 810 821 q 578 881 671 881 q 424 851 494 881 q 301 768 353 821 q 222 644 250 715 q 193 493 193 574 q 222 340 193 411 q 302 217 250 269 q 428 135 354 165 q 594 106 503 106 q 738 123 667 106 q 857 179 808 140 l 857 443 l 578 443 l 578 564 l 982 564 l 982 122 q 810 17 914 51 q 594 -17 706 -17 z "},"H":{"ha":1060,"x_min":131,"x_max":929,"o":"m 131 986 l 260 986 l 260 565 l 800 565 l 800 986 l 929 986 l 929 0 l 800 0 l 800 444 l 260 444 l 260 0 l 131 0 l 131 986 z "},"I":{"ha":390,"x_min":131,"x_max":260,"o":"m 131 986 l 260 986 l 260 0 l 131 0 l 131 986 z "},"J":{"ha":651,"x_min":8,"x_max":531,"o":"m 258 -17 q 108 15 171 -17 q 8 92 46 47 l 93 182 q 161 125 124 147 q 256 103 199 103 q 362 142 322 103 q 401 275 401 181 l 401 986 l 531 986 l 531 269 q 510 142 531 196 q 452 52 489 88 q 366 0 415 17 q 258 -17 317 -17 z "},"K":{"ha":932,"x_min":131,"x_max":964,"o":"m 258 469 l 258 0 l 131 0 l 131 986 l 258 986 l 258 558 l 689 986 l 857 986 l 388 517 l 964 0 l 782 0 l 258 469 z "},"L":{"ha":761,"x_min":131,"x_max":736,"o":"m 131 986 l 260 986 l 260 122 l 736 122 l 736 0 l 131 0 l 131 986 z "},"M":{"ha":1229,"x_min":131,"x_max":1099,"o":"m 131 986 l 249 986 l 614 408 l 981 986 l 1099 986 l 1099 0 l 971 0 l 971 736 l 661 249 l 569 249 l 260 738 l 260 0 l 131 0 l 131 986 z "},"N":{"ha":1103,"x_min":131,"x_max":971,"o":"m 860 0 l 260 768 l 260 0 l 131 0 l 131 986 l 243 986 l 843 218 l 843 986 l 971 986 l 971 0 l 860 0 z "},"O":{"ha":1146,"x_min":63,"x_max":1082,"o":"m 572 106 q 723 135 653 106 q 844 218 793 165 q 924 341 894 271 q 953 493 953 411 q 924 644 953 574 q 844 768 894 715 q 723 851 793 821 q 572 881 653 881 q 422 851 492 881 q 302 768 353 821 q 222 644 251 715 q 193 493 193 574 q 222 341 193 411 q 302 218 251 271 q 422 135 353 165 q 572 106 492 106 m 572 -17 q 373 23 465 -17 q 211 131 281 63 q 102 293 142 200 q 63 493 63 386 q 102 693 63 600 q 211 855 142 786 q 373 963 281 924 q 572 1003 465 1003 q 772 963 679 1003 q 934 855 865 924 q 1042 693 1003 786 q 1082 493 1082 600 q 1042 293 1082 386 q 934 131 1003 200 q 772 23 865 63 q 572 -17 679 -17 z "},"P":{"ha":814,"x_min":131,"x_max":771,"o":"m 771 672 q 747 549 771 606 q 678 449 722 492 q 572 383 635 407 q 432 360 508 360 l 260 360 l 260 0 l 131 0 l 131 986 l 432 986 q 572 962 508 986 q 678 896 635 938 q 747 797 722 854 q 771 672 771 739 m 643 672 q 629 749 643 714 q 588 810 615 783 q 522 851 561 836 q 432 865 483 865 l 260 865 l 260 479 l 432 479 q 522 494 483 479 q 588 535 561 508 q 629 596 615 561 q 643 672 643 631 z "},"Q":{"ha":1156,"x_min":63,"x_max":1082,"o":"m 572 -17 q 373 23 465 -17 q 211 131 281 63 q 102 293 142 200 q 63 493 63 386 q 102 693 63 600 q 211 855 142 786 q 373 963 281 924 q 572 1003 465 1003 q 772 963 679 1003 q 934 855 865 924 q 1042 693 1003 786 q 1082 493 1082 600 q 1051 317 1082 399 q 968 169 1021 236 l 1068 78 l 989 -11 l 882 86 q 739 10 818 38 q 572 -17 660 -17 m 572 106 q 790 172 696 106 l 633 318 l 713 407 l 875 256 q 932 365 911 304 q 953 493 953 425 q 924 644 953 574 q 844 768 894 715 q 723 851 793 821 q 572 881 653 881 q 422 851 492 881 q 302 768 353 821 q 222 644 251 715 q 193 493 193 574 q 222 341 193 411 q 302 218 251 271 q 422 135 353 165 q 572 106 492 106 z "},"R":{"ha":882,"x_min":131,"x_max":897,"o":"m 131 986 l 467 986 q 590 967 535 986 q 683 911 644 947 q 741 825 721 875 q 761 714 761 775 q 697 536 761 606 q 517 450 632 467 l 897 0 l 735 0 l 356 449 l 260 449 l 260 0 l 131 0 l 131 986 m 451 564 q 584 601 536 564 q 632 714 632 639 q 584 828 632 789 q 451 867 536 867 l 260 867 l 260 564 l 451 564 z "},"S":{"ha":769,"x_min":50,"x_max":710,"o":"m 394 -17 q 279 -3 333 -17 q 181 34 225 10 q 102 91 136 58 q 50 161 68 124 l 153 239 q 253 140 193 176 q 397 104 314 104 q 469 115 436 104 q 528 144 503 125 q 567 190 553 163 q 581 251 581 217 q 544 351 581 311 q 439 418 508 392 l 308 468 q 138 575 192 511 q 83 740 83 639 q 107 849 83 800 q 172 932 131 897 q 270 985 214 967 q 393 1003 326 1003 q 560 965 486 1003 q 679 868 635 928 l 586 785 q 501 856 547 829 q 390 882 454 882 q 322 872 354 882 q 265 844 289 863 q 226 801 240 826 q 213 746 213 776 q 249 649 213 683 q 361 588 285 615 l 479 542 q 650 433 590 500 q 710 257 710 367 q 686 144 710 194 q 621 58 663 93 q 522 3 579 22 q 394 -17 464 -17 z "},"T":{"ha":788,"x_min":24,"x_max":764,"o":"m 331 864 l 24 864 l 24 986 l 764 986 l 764 864 l 457 864 l 457 0 l 331 0 l 331 864 z "},"U":{"ha":1008,"x_min":118,"x_max":890,"o":"m 504 -17 q 347 11 418 -17 q 226 91 276 39 q 147 217 175 143 q 118 383 118 292 l 118 986 l 247 986 l 247 381 q 317 176 247 247 q 504 106 388 106 q 691 176 621 106 q 761 381 761 247 l 761 986 l 890 986 l 890 383 q 862 217 890 292 q 783 91 833 143 q 660 11 732 39 q 504 -17 589 -17 z "},"V":{"ha":974,"x_min":11,"x_max":960,"o":"m 11 986 l 154 986 l 486 201 l 819 986 l 960 986 l 540 0 l 432 0 l 11 986 z "},"W":{"ha":1389,"x_min":24,"x_max":1365,"o":"m 24 986 l 158 986 l 393 226 l 638 986 l 749 986 l 994 226 l 1228 986 l 1365 986 l 1057 0 l 944 0 l 694 775 l 444 0 l 331 0 l 24 986 z "},"X":{"ha":931,"x_min":6,"x_max":925,"o":"m 6 0 l 386 499 l 21 986 l 175 986 l 465 601 l 756 986 l 910 986 l 546 499 l 925 0 l 768 0 l 465 394 l 164 0 l 6 0 z "},"Y":{"ha":936,"x_min":21,"x_max":917,"o":"m 404 418 l 21 986 l 175 986 l 468 547 l 763 986 l 917 986 l 532 417 l 532 0 l 404 0 l 404 418 z "},"Z":{"ha":815,"x_min":47,"x_max":767,"o":"m 47 86 l 582 864 l 63 864 l 63 986 l 753 986 l 753 900 l 218 122 l 767 122 l 767 0 l 47 0 l 47 86 z "},"[":{"ha":424,"x_min":128,"x_max":388,"o":"m 128 1111 l 388 1111 l 388 1011 l 236 1011 l 236 -122 l 388 -122 l 388 -222 l 128 -222 l 128 1111 z "},"]":{"ha":424,"x_min":36,"x_max":296,"o":"m 296 -222 l 36 -222 l 36 -122 l 188 -122 l 188 1011 l 36 1011 l 36 1111 l 296 1111 l 296 -222 z "},"_":{"ha":739,"x_min":75,"x_max":664,"o":"m 75 0 l 664 0 l 664 -101 l 75 -101 l 75 0 z "},"`":{"ha":0,"x_min":-137,"x_max":136,"o":"m 36 797 l -137 1014 l 14 1014 l 136 797 l 36 797 z "},"a":{"ha":867,"x_min":58,"x_max":754,"o":"m 408 -14 q 266 15 331 -14 q 156 92 201 43 q 84 208 110 142 q 58 347 58 274 q 84 487 58 421 q 156 602 110 553 q 266 680 201 651 q 408 708 331 708 q 535 685 476 708 q 635 618 593 663 l 635 694 l 754 694 l 754 0 l 635 0 l 635 76 q 535 9 593 32 q 408 -14 476 -14 m 418 96 q 550 129 496 96 q 635 211 604 163 l 635 485 q 550 566 604 533 q 418 599 496 599 q 322 579 365 599 q 248 525 279 560 q 199 444 217 490 q 182 347 182 399 q 199 249 182 294 q 248 169 217 204 q 322 115 279 135 q 418 96 365 96 z "},"b":{"ha":867,"x_min":113,"x_max":808,"o":"m 458 -14 q 333 9 392 -14 q 232 76 275 32 l 232 0 l 113 0 l 113 1014 l 232 1014 l 232 618 q 333 685 275 663 q 458 708 392 708 q 601 680 536 708 q 711 602 665 651 q 783 487 757 553 q 808 347 808 421 q 783 208 808 274 q 711 92 757 142 q 601 15 665 43 q 458 -14 536 -14 m 449 96 q 544 115 501 96 q 619 169 588 135 q 667 249 650 204 q 685 347 685 294 q 667 444 685 399 q 619 525 650 490 q 544 579 588 560 q 449 599 501 599 q 317 566 371 599 q 232 485 263 533 l 232 211 q 317 129 263 163 q 449 96 371 96 z "},"c":{"ha":785,"x_min":58,"x_max":743,"o":"m 422 -14 q 276 14 343 -14 q 161 91 210 42 q 85 206 113 140 q 58 347 58 272 q 85 488 58 422 q 161 603 113 554 q 276 681 210 653 q 422 708 343 708 q 614 657 531 708 q 743 522 697 606 l 639 464 q 553 560 610 524 q 422 597 497 597 q 324 578 368 597 q 247 524 279 558 q 197 444 214 490 q 179 347 179 399 q 197 249 179 294 q 247 170 214 204 q 324 117 279 136 q 422 97 368 97 q 553 134 497 97 q 639 231 610 171 l 743 172 q 614 38 697 89 q 422 -14 531 -14 z "},"d":{"ha":867,"x_min":58,"x_max":754,"o":"m 408 -14 q 266 15 331 -14 q 156 92 201 43 q 84 208 110 142 q 58 347 58 274 q 84 487 58 421 q 156 602 110 553 q 266 680 201 651 q 408 708 331 708 q 535 685 476 708 q 635 618 593 663 l 635 1014 l 754 1014 l 754 0 l 635 0 l 635 76 q 535 9 593 32 q 408 -14 476 -14 m 418 96 q 550 129 496 96 q 635 211 604 163 l 635 485 q 550 566 604 533 q 418 599 496 599 q 322 579 365 599 q 248 525 279 560 q 199 444 217 490 q 182 347 182 399 q 199 249 182 294 q 248 169 217 204 q 322 115 279 135 q 418 96 365 96 z "},"e":{"ha":807,"x_min":58,"x_max":750,"o":"m 418 -14 q 271 14 338 -14 q 157 90 204 42 q 84 205 110 139 q 58 347 58 271 q 85 490 58 424 q 159 604 111 556 q 274 681 207 653 q 419 708 340 708 q 547 685 488 708 q 652 617 607 663 q 724 508 697 572 q 750 360 750 443 q 750 342 750 350 q 749 324 750 335 l 179 324 q 199 233 181 275 q 249 161 218 192 q 324 113 281 131 q 419 96 368 96 q 552 128 500 96 q 636 217 604 161 l 731 151 q 605 31 683 75 q 418 -14 526 -14 m 628 421 q 602 497 621 464 q 555 554 583 531 q 490 590 526 578 q 415 603 454 603 q 339 590 376 603 q 271 555 301 578 q 218 498 240 532 q 188 421 196 464 l 628 421 z "},"f":{"ha":557,"x_min":22,"x_max":554,"o":"m 186 585 l 22 585 l 22 694 l 186 694 l 186 796 q 246 960 186 899 q 410 1022 306 1022 q 495 1011 460 1022 q 554 988 531 1000 l 510 888 q 469 903 494 894 q 415 913 444 913 q 334 879 363 913 q 306 789 306 846 l 306 694 l 542 694 l 542 585 l 306 585 l 306 0 l 186 0 l 186 585 z "},"g":{"ha":868,"x_min":58,"x_max":756,"o":"m 408 -283 q 221 -247 301 -283 q 96 -156 140 -211 l 178 -72 q 276 -148 219 -121 q 408 -175 333 -175 q 490 -162 450 -175 q 563 -123 531 -150 q 616 -54 596 -96 q 636 46 636 -12 l 636 99 q 535 30 594 53 q 410 7 476 7 q 269 35 333 7 q 157 110 204 63 q 84 221 110 157 q 58 358 58 285 q 85 494 58 431 q 158 606 111 558 q 269 681 204 654 q 410 708 333 708 q 535 685 476 708 q 636 618 594 663 l 636 694 l 756 694 l 756 42 q 728 -103 756 -42 q 652 -204 700 -164 q 542 -264 604 -244 q 408 -283 479 -283 m 419 118 q 551 151 497 118 q 636 232 606 183 l 636 485 q 551 566 606 533 q 419 599 497 599 q 324 580 368 599 q 249 529 281 561 q 199 453 217 497 q 182 358 182 408 q 200 263 182 307 q 249 187 218 219 q 324 136 281 154 q 419 118 368 118 z "},"h":{"ha":818,"x_min":113,"x_max":715,"o":"m 113 0 l 113 1014 l 232 1014 l 232 607 q 326 684 268 660 q 451 708 385 708 q 558 689 510 708 q 642 633 607 669 q 696 544 676 596 q 715 426 715 492 l 715 0 l 597 0 l 597 408 q 551 549 597 500 q 424 599 504 599 q 301 560 350 599 q 232 461 253 522 l 232 0 l 113 0 z "},"i":{"ha":346,"x_min":88,"x_max":258,"o":"m 174 832 q 113 856 138 832 q 88 917 88 881 q 113 976 88 951 q 174 1001 138 1001 q 234 976 210 1001 q 258 917 258 951 q 234 856 258 881 q 174 832 210 832 m 113 694 l 232 694 l 232 0 l 113 0 l 113 694 z "},"j":{"ha":357,"x_min":-61,"x_max":269,"o":"m 44 -276 q -17 -270 15 -276 q -61 -257 -49 -264 l -35 -156 q -8 -164 -24 -160 q 33 -168 8 -168 q 97 -142 69 -168 q 124 -50 124 -117 l 124 694 l 243 694 l 243 -64 q 227 -158 243 -118 q 184 -224 211 -199 q 121 -263 157 -250 q 44 -276 85 -276 m 185 832 q 124 856 149 832 q 99 917 99 881 q 124 976 99 951 q 185 1001 149 1001 q 245 976 221 1001 q 269 917 269 951 q 245 856 269 881 q 185 832 221 832 z "},"k":{"ha":749,"x_min":113,"x_max":769,"o":"m 232 347 l 232 0 l 113 0 l 113 1014 l 232 1014 l 232 424 l 535 694 l 693 694 l 351 388 l 769 0 l 608 0 l 232 347 z "},"l":{"ha":346,"x_min":113,"x_max":232,"o":"m 113 1014 l 232 1014 l 232 0 l 113 0 l 113 1014 z "},"m":{"ha":1229,"x_min":113,"x_max":1126,"o":"m 1007 407 q 965 547 1007 496 q 849 599 924 599 q 740 561 783 599 q 676 463 696 524 q 678 444 678 453 q 679 426 679 436 l 679 0 l 560 0 l 560 407 q 518 547 560 496 q 403 599 476 599 q 296 565 340 599 q 232 476 251 531 l 232 0 l 113 0 l 113 694 l 232 694 l 232 621 q 322 688 268 667 q 431 708 375 708 q 549 678 496 708 q 633 594 601 649 q 738 682 675 656 q 867 708 800 708 q 1058 631 990 708 q 1126 426 1126 554 l 1126 0 l 1007 0 l 1007 407 z "},"n":{"ha":818,"x_min":113,"x_max":715,"o":"m 113 694 l 232 694 l 232 607 q 326 684 268 660 q 451 708 385 708 q 558 689 510 708 q 642 633 607 669 q 696 544 676 596 q 715 426 715 492 l 715 0 l 597 0 l 597 408 q 551 549 597 500 q 424 599 504 599 q 301 560 350 599 q 232 461 253 522 l 232 0 l 113 0 l 113 694 z "},"o":{"ha":842,"x_min":57,"x_max":783,"o":"m 421 -14 q 275 15 342 -14 q 160 92 208 43 q 84 206 111 140 q 57 347 57 272 q 84 488 57 422 q 160 603 111 554 q 275 680 208 651 q 421 708 342 708 q 565 680 499 708 q 681 603 632 651 q 756 488 729 554 q 783 347 783 422 q 756 206 783 272 q 681 92 729 140 q 565 15 632 43 q 421 -14 499 -14 m 421 97 q 519 117 475 97 q 595 170 564 136 q 644 249 626 204 q 661 347 661 294 q 644 444 661 399 q 595 524 626 490 q 519 578 564 558 q 421 597 475 597 q 322 578 367 597 q 246 524 278 558 q 197 444 214 490 q 179 347 179 399 q 197 249 179 294 q 246 170 214 204 q 322 117 278 136 q 421 97 367 97 z "},"p":{"ha":867,"x_min":113,"x_max":808,"o":"m 113 694 l 232 694 l 232 618 q 333 685 275 663 q 458 708 392 708 q 601 680 536 708 q 711 602 665 651 q 783 487 757 553 q 808 347 808 421 q 783 208 808 274 q 711 92 757 142 q 601 15 665 43 q 458 -14 536 -14 q 333 9 392 -14 q 232 76 275 32 l 232 -269 l 113 -269 l 113 694 m 449 96 q 544 115 501 96 q 619 169 588 135 q 667 249 650 204 q 685 347 685 294 q 667 444 685 399 q 619 525 650 490 q 544 579 588 560 q 449 599 501 599 q 317 566 371 599 q 232 485 263 533 l 232 211 q 317 129 263 163 q 449 96 371 96 z "},"q":{"ha":867,"x_min":58,"x_max":754,"o":"m 635 76 q 535 9 593 32 q 408 -14 476 -14 q 266 15 331 -14 q 156 92 201 43 q 84 208 110 142 q 58 347 58 274 q 84 487 58 421 q 156 602 110 553 q 266 680 201 651 q 408 708 331 708 q 535 685 476 708 q 635 618 593 663 l 635 694 l 754 694 l 754 -269 l 635 -269 l 635 76 m 418 96 q 550 129 496 96 q 635 211 604 163 l 635 485 q 550 566 604 533 q 418 599 496 599 q 322 579 365 599 q 248 525 279 560 q 199 444 217 490 q 182 347 182 399 q 199 249 182 294 q 248 169 217 204 q 322 115 279 135 q 418 96 365 96 z "},"r":{"ha":499,"x_min":113,"x_max":481,"o":"m 113 694 l 232 694 l 232 592 q 261 633 242 613 q 305 668 281 653 q 358 692 329 683 q 419 701 388 701 q 452 699 438 701 q 481 694 467 697 l 465 575 q 435 582 450 581 q 406 583 421 583 q 303 549 353 583 q 232 450 253 515 l 232 0 l 113 0 l 113 694 z "},"s":{"ha":625,"x_min":50,"x_max":564,"o":"m 322 -14 q 156 26 229 -14 q 50 147 82 65 l 147 201 q 216 120 167 149 q 324 92 265 92 q 409 116 374 92 q 444 185 444 140 q 418 247 444 222 q 324 293 392 272 l 254 315 q 124 392 168 340 q 81 518 81 444 q 99 598 81 563 q 151 658 118 633 q 226 695 183 682 q 319 708 269 708 q 456 677 397 708 q 549 588 514 646 l 460 526 q 401 583 436 560 q 315 606 365 606 q 235 583 271 606 q 200 522 200 561 q 220 465 200 490 q 299 422 240 440 l 375 399 q 515 322 465 371 q 564 194 564 274 q 546 106 564 144 q 495 40 528 67 q 418 0 463 14 q 322 -14 374 -14 z "},"t":{"ha":576,"x_min":18,"x_max":560,"o":"m 410 -7 q 326 6 365 -7 q 258 45 288 19 q 210 111 228 71 q 193 206 193 151 l 193 585 l 18 585 l 18 694 l 193 694 l 193 892 l 313 892 l 313 694 l 528 694 l 528 585 l 313 585 l 313 221 q 344 127 313 154 q 424 100 376 100 q 483 108 458 100 q 524 126 508 117 l 560 25 q 500 3 538 14 q 410 -7 463 -7 z "},"u":{"ha":804,"x_min":103,"x_max":692,"o":"m 692 0 l 572 0 l 572 88 q 478 10 536 35 q 363 -14 421 -14 q 258 6 306 -14 q 175 62 210 25 q 122 151 140 99 q 103 268 103 203 l 103 694 l 222 694 l 222 286 q 267 145 222 194 q 389 96 311 96 q 503 134 456 96 q 572 233 550 172 l 572 694 l 692 694 l 692 0 z "},"v":{"ha":758,"x_min":8,"x_max":750,"o":"m 8 694 l 142 694 l 379 168 l 617 694 l 750 694 l 429 0 l 329 0 l 8 694 z "},"w":{"ha":1060,"x_min":17,"x_max":1043,"o":"m 529 499 l 358 0 l 253 0 l 17 694 l 142 694 l 310 188 l 483 694 l 575 694 l 749 188 l 917 694 l 1043 694 l 807 0 l 701 0 l 529 499 z "},"x":{"ha":736,"x_min":8,"x_max":726,"o":"m 368 263 l 157 0 l 8 0 l 293 351 l 32 694 l 176 694 l 368 443 l 558 694 l 704 694 l 442 351 l 726 0 l 579 0 l 368 263 z "},"y":{"ha":760,"x_min":11,"x_max":753,"o":"m 174 -269 l 315 36 l 11 694 l 143 694 l 382 167 l 619 694 l 753 694 l 307 -269 l 174 -269 z "},"z":{"ha":672,"x_min":56,"x_max":619,"o":"m 56 94 l 453 585 l 61 585 l 61 694 l 607 694 l 607 599 l 210 110 l 619 110 l 619 0 l 56 0 l 56 94 z "},"{":{"ha":439,"x_min":42,"x_max":403,"o":"m 319 -222 q 182 -172 221 -222 q 143 -24 143 -121 l 143 296 q 128 369 143 343 q 63 394 114 394 l 42 394 l 42 494 l 63 494 q 128 519 114 494 q 143 592 143 543 l 143 913 q 181 1060 143 1010 q 318 1111 219 1111 l 403 1111 l 403 1011 l 336 1011 q 267 987 283 1011 q 251 910 251 963 l 251 597 q 235 498 251 532 q 176 444 219 464 q 235 390 219 425 q 251 290 251 356 l 251 -21 q 267 -99 251 -75 q 336 -122 283 -122 l 403 -122 l 403 -222 l 319 -222 z "},"|":{"ha":364,"x_min":128,"x_max":238,"o":"m 128 986 l 238 986 l 238 -153 l 128 -153 l 128 986 z "},"}":{"ha":439,"x_min":36,"x_max":397,"o":"m 36 -222 l 36 -122 l 103 -122 q 172 -99 156 -122 q 188 -21 188 -75 l 188 290 q 203 390 188 356 q 263 444 219 425 q 203 498 219 464 q 188 597 188 532 l 188 910 q 172 987 188 963 q 103 1011 156 1011 l 36 1011 l 36 1111 l 121 1111 q 258 1060 219 1111 q 296 913 296 1010 l 296 592 q 310 519 296 543 q 376 494 325 494 l 397 494 l 397 394 l 376 394 q 310 369 325 394 q 296 296 296 343 l 296 -24 q 257 -172 296 -121 q 119 -222 218 -222 l 36 -222 z "}," ":{"ha":335,"x_min":0,"x_max":0,"o":""},"¡":{"ha":351,"x_min":93,"x_max":264,"o":"m 236 126 l 236 -269 l 115 -269 l 115 126 l 139 392 l 213 392 l 236 126 m 179 539 q 118 563 143 539 q 93 624 93 588 q 118 683 93 658 q 179 708 143 708 q 240 683 215 708 q 264 624 264 658 q 240 563 264 588 q 179 539 215 539 z "},"£":{"ha":776,"x_min":71,"x_max":719,"o":"m 71 543 l 157 543 q 135 631 144 588 q 126 717 126 675 q 148 831 126 778 q 209 922 169 883 q 304 981 249 960 q 429 1003 360 1003 q 531 986 483 1003 q 615 941 578 969 q 678 873 651 913 q 719 788 704 833 l 619 736 q 590 792 607 765 q 551 840 574 819 q 498 874 528 861 q 428 886 468 886 q 295 839 344 886 q 246 714 246 792 q 256 630 246 672 q 281 543 267 588 l 546 543 l 546 467 l 306 467 q 329 378 319 422 q 339 289 339 335 q 288 117 339 185 l 718 117 l 718 0 l 71 0 l 71 117 l 157 117 q 205 189 188 149 q 222 282 222 229 q 209 367 222 319 q 181 467 196 414 l 71 467 l 71 543 z "},"¥":{"ha":935,"x_min":42,"x_max":893,"o":"m 119 492 l 361 492 l 42 986 l 185 986 l 467 536 l 749 986 l 893 986 l 575 492 l 815 492 l 815 417 l 528 417 l 528 313 l 815 313 l 815 238 l 528 238 l 528 0 l 408 0 l 408 238 l 119 238 l 119 313 l 408 313 l 408 417 l 119 417 l 119 492 z "},"¨":{"ha":0,"x_min":-244,"x_max":244,"o":"m 160 832 q 99 856 124 832 q 74 917 74 881 q 99 976 74 951 q 160 1001 124 1001 q 220 976 196 1001 q 244 917 244 951 q 220 856 244 881 q 160 832 196 832 m -158 832 q -219 856 -194 832 q -244 917 -244 881 q -219 976 -244 951 q -158 1001 -194 1001 q -98 976 -122 1001 q -74 917 -74 951 q -98 856 -74 881 q -158 832 -122 832 z "},"©":{"ha":1144,"x_min":63,"x_max":1082,"o":"m 571 82 q 731 115 656 82 q 862 203 806 147 q 951 333 918 258 q 983 493 983 408 q 951 653 983 578 q 862 783 918 728 q 731 872 806 839 q 571 904 656 904 q 413 872 488 904 q 282 783 338 839 q 194 653 226 728 q 161 493 161 578 q 194 333 161 408 q 282 203 226 258 q 413 115 338 147 q 571 82 488 82 m 571 -17 q 374 24 467 -17 q 212 133 281 64 q 103 295 143 203 q 63 493 63 388 q 103 691 63 599 q 212 853 143 783 q 374 963 281 922 q 571 1003 467 1003 q 769 963 676 1003 q 932 853 863 922 q 1042 691 1001 783 q 1082 493 1082 599 q 1042 295 1082 388 q 932 133 1001 203 q 769 24 863 64 q 571 -17 676 -17 m 575 226 q 471 247 519 226 q 385 304 422 268 q 328 389 349 340 q 307 493 307 438 q 328 597 307 549 q 385 683 349 646 q 471 740 422 719 q 575 761 519 761 q 716 724 654 761 q 811 625 778 688 l 726 578 q 665 642 703 618 q 575 667 626 667 q 508 653 539 667 q 455 615 478 639 q 419 560 432 592 q 406 493 406 528 q 419 426 406 457 q 455 372 432 394 q 508 335 478 349 q 575 321 539 321 q 665 344 626 321 q 726 408 703 368 l 811 361 q 716 263 778 300 q 575 226 654 226 z "},"«":{"ha":663,"x_min":58,"x_max":590,"o":"m 590 75 l 510 22 l 299 347 l 510 672 l 590 619 l 432 347 l 590 75 m 350 75 l 269 22 l 58 347 l 269 672 l 350 619 l 192 347 l 350 75 z "},"­":{"ha":536,"x_min":90,"x_max":444,"o":"m 90 449 l 444 449 l 444 329 l 90 329 l 90 449 z "},"¯":{"ha":0,"x_min":-224,"x_max":224,"o":"m -224 986 l 224 986 l 224 890 l -224 890 l -224 986 z "},"°":{"ha":482,"x_min":61,"x_max":421,"o":"m 242 718 q 308 745 281 718 q 335 811 335 772 q 308 878 335 850 q 242 906 281 906 q 174 878 201 906 q 147 811 147 850 q 174 745 147 772 q 242 718 201 718 m 242 632 q 172 646 204 632 q 114 684 139 660 q 75 741 89 708 q 61 811 61 774 q 75 881 61 849 q 114 939 89 914 q 172 978 139 964 q 242 992 204 992 q 312 978 279 992 q 369 939 344 964 q 407 881 393 914 q 421 811 421 849 q 407 741 421 774 q 369 684 393 708 q 312 646 344 660 q 242 632 279 632 z "},"´":{"ha":0,"x_min":-137,"x_max":136,"o":"m -15 1014 l 136 1014 l -37 797 l -137 797 l -15 1014 z "},"·":{"ha":339,"x_min":85,"x_max":254,"o":"m 171 286 q 110 310 135 286 q 85 371 85 335 q 110 431 85 406 q 171 456 135 456 q 231 431 207 456 q 254 371 254 406 q 231 310 254 335 q 171 286 207 286 z "},"¸":{"ha":0,"x_min":-146,"x_max":144,"o":"m -128 -190 q -32 -210 -82 -210 q 22 -200 -4 -210 q 47 -164 47 -190 q 31 -135 47 -144 q -7 -126 15 -126 q -42 -130 -26 -126 q -71 -139 -57 -133 l -114 -108 l -46 4 l 31 4 l -14 -68 q 39 -58 8 -58 q 114 -85 83 -58 q 144 -158 144 -111 q 97 -251 144 -219 q -25 -283 49 -283 q -87 -278 -56 -283 q -146 -260 -118 -272 l -128 -190 z "},"»":{"ha":663,"x_min":71,"x_max":603,"o":"m 469 347 l 311 619 l 392 672 l 603 347 l 392 22 l 311 75 l 469 347 m 229 347 l 71 619 l 151 672 l 363 347 l 151 22 l 71 75 l 229 347 z "},"¿":{"ha":708,"x_min":53,"x_max":668,"o":"m 351 -283 q 231 -260 286 -283 q 137 -198 176 -237 q 75 -108 97 -158 q 53 0 53 -57 q 66 85 53 47 q 100 153 79 122 q 147 207 121 183 q 197 250 172 231 q 237 280 217 265 q 273 310 257 294 q 299 344 289 326 q 308 381 308 361 l 308 392 l 428 392 l 428 364 q 416 310 428 336 q 385 261 404 285 q 344 218 367 238 q 301 183 322 199 q 249 143 272 163 q 208 103 225 124 q 181 58 190 82 q 172 3 172 33 q 187 -64 172 -33 q 226 -117 201 -94 q 283 -153 250 -140 q 353 -167 315 -167 q 482 -132 425 -167 q 571 -39 539 -97 l 668 -97 q 615 -172 647 -137 q 542 -231 583 -206 q 453 -269 501 -256 q 351 -283 406 -283 m 369 539 q 308 563 333 539 q 283 624 283 588 q 308 683 283 658 q 369 708 333 708 q 430 683 406 708 q 454 624 454 658 q 430 563 454 588 q 369 539 406 539 z "},"À":{"ha":997,"x_min":8,"x_max":989,"o":"m 444 986 l 551 986 l 989 0 l 854 0 l 726 288 l 267 288 l 142 0 l 8 0 l 444 986 m 318 404 l 675 404 l 496 811 l 318 404 m 443 1067 l 283 1257 l 435 1257 l 543 1067 l 443 1067 z "},"Á":{"ha":997,"x_min":8,"x_max":989,"o":"m 444 986 l 551 986 l 989 0 l 854 0 l 726 288 l 267 288 l 142 0 l 8 0 l 444 986 m 318 404 l 675 404 l 496 811 l 318 404 m 560 1257 l 711 1257 l 551 1067 l 451 1067 l 560 1257 z "},"Â":{"ha":997,"x_min":8,"x_max":989,"o":"m 444 986 l 551 986 l 989 0 l 854 0 l 726 288 l 267 288 l 142 0 l 8 0 l 444 986 m 318 404 l 675 404 l 496 811 l 318 404 m 433 1257 l 563 1257 l 739 1067 l 610 1067 l 497 1182 l 386 1067 l 257 1067 l 433 1257 z "},"Ã":{"ha":997,"x_min":8,"x_max":989,"o":"m 444 986 l 551 986 l 989 0 l 854 0 l 726 288 l 267 288 l 142 0 l 8 0 l 444 986 m 318 404 l 675 404 l 496 811 l 318 404 m 261 1117 q 313 1213 272 1176 q 408 1249 353 1249 q 460 1239 435 1249 q 508 1218 486 1229 q 551 1197 531 1207 q 588 1188 571 1188 q 647 1249 633 1188 l 739 1249 l 733 1222 q 683 1128 722 1164 q 586 1092 643 1092 q 533 1101 558 1092 q 486 1122 508 1111 q 444 1143 464 1133 q 408 1153 425 1153 q 347 1092 364 1153 l 257 1092 l 261 1117 z "},"Ä":{"ha":997,"x_min":8,"x_max":989,"o":"m 444 986 l 551 986 l 989 0 l 854 0 l 726 288 l 267 288 l 142 0 l 8 0 l 444 986 m 318 404 l 675 404 l 496 811 l 318 404 m 663 1088 q 601 1112 626 1088 q 576 1172 576 1136 q 601 1232 576 1207 q 663 1257 626 1257 q 723 1232 699 1257 q 747 1172 747 1207 q 723 1112 747 1136 q 663 1088 699 1088 m 336 1088 q 274 1112 300 1088 q 249 1172 249 1136 q 274 1232 249 1207 q 335 1257 299 1257 q 396 1232 371 1257 q 421 1172 421 1207 q 397 1112 421 1136 q 336 1088 372 1088 z "},"Å":{"ha":997,"x_min":8,"x_max":989,"o":"m 444 986 l 551 986 l 989 0 l 854 0 l 726 288 l 267 288 l 142 0 l 8 0 l 444 986 m 318 404 l 675 404 l 496 811 l 318 404 m 499 1088 q 438 1112 463 1088 q 413 1172 413 1136 q 438 1232 413 1207 q 499 1257 463 1257 q 559 1232 535 1257 q 583 1172 583 1207 q 559 1112 583 1136 q 499 1088 535 1088 z "},"Æ":{"ha":1269,"x_min":-32,"x_max":1201,"o":"m 626 288 l 282 288 l 111 0 l -32 0 l 558 986 l 1201 986 l 1201 864 l 756 864 l 756 565 l 1118 565 l 1118 443 l 756 443 l 756 122 l 1201 122 l 1201 0 l 626 0 l 626 288 m 351 404 l 626 404 l 626 864 l 625 864 l 351 404 z "},"Ç":{"ha":1049,"x_min":63,"x_max":1008,"o":"m 572 -17 q 373 23 465 -17 q 211 131 281 63 q 102 293 142 200 q 63 493 63 386 q 102 693 63 600 q 211 855 142 786 q 373 963 281 924 q 572 1003 465 1003 q 828 938 714 1003 q 1008 764 942 874 l 900 699 q 765 831 849 782 q 572 881 681 881 q 422 851 492 881 q 302 768 353 821 q 222 644 251 715 q 193 493 193 574 q 222 341 193 411 q 302 218 251 271 q 422 135 353 165 q 572 106 492 106 q 765 155 681 106 q 900 288 849 204 l 1008 222 q 828 48 942 113 q 572 -17 714 -17 m 447 -190 q 542 -210 493 -210 q 595 -200 569 -210 q 621 -164 621 -190 q 606 -135 621 -144 q 567 -126 590 -126 q 532 -130 547 -126 q 503 -139 517 -133 l 461 -108 l 528 4 l 604 4 l 560 -68 q 613 -58 582 -58 q 688 -85 657 -58 q 718 -158 718 -111 q 670 -251 718 -219 q 549 -283 622 -283 q 487 -278 518 -283 q 428 -260 456 -272 l 447 -190 z "},"È":{"ha":774,"x_min":131,"x_max":706,"o":"m 131 986 l 706 986 l 706 864 l 260 864 l 260 565 l 622 565 l 622 443 l 260 443 l 260 122 l 706 122 l 706 0 l 131 0 l 131 986 m 364 1067 l 204 1257 l 356 1257 l 464 1067 l 364 1067 z "},"É":{"ha":774,"x_min":131,"x_max":706,"o":"m 131 986 l 706 986 l 706 864 l 260 864 l 260 565 l 622 565 l 622 443 l 260 443 l 260 122 l 706 122 l 706 0 l 131 0 l 131 986 m 479 1257 l 631 1257 l 471 1067 l 371 1067 l 479 1257 z "},"Ê":{"ha":774,"x_min":131,"x_max":706,"o":"m 131 986 l 706 986 l 706 864 l 260 864 l 260 565 l 622 565 l 622 443 l 260 443 l 260 122 l 706 122 l 706 0 l 131 0 l 131 986 m 354 1257 l 483 1257 l 660 1067 l 531 1067 l 418 1182 l 307 1067 l 178 1067 l 354 1257 z "},"Ë":{"ha":774,"x_min":131,"x_max":706,"o":"m 131 986 l 706 986 l 706 864 l 260 864 l 260 565 l 622 565 l 622 443 l 260 443 l 260 122 l 706 122 l 706 0 l 131 0 l 131 986 m 582 1088 q 521 1112 546 1088 q 496 1172 496 1136 q 521 1232 496 1207 q 582 1257 546 1257 q 642 1232 618 1257 q 667 1172 667 1207 q 642 1112 667 1136 q 582 1088 618 1088 m 256 1088 q 194 1112 219 1088 q 168 1172 168 1136 q 193 1232 168 1207 q 254 1257 218 1257 q 315 1232 290 1257 q 340 1172 340 1207 q 316 1112 340 1136 q 256 1088 292 1088 z "},"Ì":{"ha":390,"x_min":-18,"x_max":260,"o":"m 131 986 l 260 986 l 260 0 l 131 0 l 131 986 m 142 1067 l -18 1257 l 133 1257 l 242 1067 l 142 1067 z "},"Í":{"ha":390,"x_min":131,"x_max":408,"o":"m 131 986 l 260 986 l 260 0 l 131 0 l 131 986 m 257 1257 l 408 1257 l 249 1067 l 149 1067 l 257 1257 z "},"Î":{"ha":390,"x_min":-44,"x_max":438,"o":"m 131 986 l 260 986 l 260 0 l 131 0 l 131 986 m 132 1257 l 261 1257 l 438 1067 l 308 1067 l 196 1182 l 85 1067 l -44 1067 l 132 1257 z "},"Ï":{"ha":390,"x_min":-54,"x_max":444,"o":"m 131 986 l 260 986 l 260 0 l 131 0 l 131 986 m 360 1088 q 299 1112 324 1088 q 274 1172 274 1136 q 299 1232 274 1207 q 360 1257 324 1257 q 420 1232 396 1257 q 444 1172 444 1207 q 420 1112 444 1136 q 360 1088 396 1088 m 33 1088 q -28 1112 -3 1088 q -54 1172 -54 1136 q -29 1232 -54 1207 q 32 1257 -4 1257 q 93 1232 68 1257 q 118 1172 118 1207 q 94 1112 118 1136 q 33 1088 69 1088 z "},"Ð":{"ha":1013,"x_min":39,"x_max":949,"o":"m 140 986 l 424 986 q 633 949 538 986 q 799 845 729 911 q 909 689 869 779 q 949 493 949 599 q 909 297 949 388 q 799 141 869 207 q 633 38 729 75 q 424 0 538 0 l 140 0 l 140 986 m 424 121 q 585 149 513 121 q 710 226 658 176 q 790 344 761 276 q 818 493 818 413 q 790 642 818 574 q 710 760 761 710 q 585 838 658 810 q 424 865 513 865 l 269 865 l 269 121 l 424 121 m 39 557 l 492 557 l 492 443 l 39 443 l 39 557 z "},"Ñ":{"ha":1103,"x_min":131,"x_max":971,"o":"m 860 0 l 260 768 l 260 0 l 131 0 l 131 986 l 243 986 l 843 218 l 843 986 l 971 986 l 971 0 l 860 0 m 310 1117 q 361 1213 321 1176 q 457 1249 401 1249 q 509 1239 483 1249 q 557 1218 535 1229 q 599 1197 579 1207 q 636 1188 619 1188 q 696 1249 682 1188 l 788 1249 l 782 1222 q 731 1128 771 1164 q 635 1092 692 1092 q 582 1101 607 1092 q 535 1122 557 1111 q 493 1143 513 1133 q 457 1153 474 1153 q 396 1092 413 1153 l 306 1092 l 310 1117 z "},"Ò":{"ha":1146,"x_min":63,"x_max":1082,"o":"m 572 106 q 723 135 653 106 q 844 218 793 165 q 924 341 894 271 q 953 493 953 411 q 924 644 953 574 q 844 768 894 715 q 723 851 793 821 q 572 881 653 881 q 422 851 492 881 q 302 768 353 821 q 222 644 251 715 q 193 493 193 574 q 222 341 193 411 q 302 218 251 271 q 422 135 353 165 q 572 106 492 106 m 572 -17 q 373 23 465 -17 q 211 131 281 63 q 102 293 142 200 q 63 493 63 386 q 102 693 63 600 q 211 855 142 786 q 373 963 281 924 q 572 1003 465 1003 q 772 963 679 1003 q 934 855 865 924 q 1042 693 1003 786 q 1082 493 1082 600 q 1042 293 1082 386 q 934 131 1003 200 q 772 23 865 63 q 572 -17 679 -17 m 518 1067 l 358 1257 l 510 1257 l 618 1067 l 518 1067 z "},"Ó":{"ha":1146,"x_min":63,"x_max":1082,"o":"m 572 106 q 723 135 653 106 q 844 218 793 165 q 924 341 894 271 q 953 493 953 411 q 924 644 953 574 q 844 768 894 715 q 723 851 793 821 q 572 881 653 881 q 422 851 492 881 q 302 768 353 821 q 222 644 251 715 q 193 493 193 574 q 222 341 193 411 q 302 218 251 271 q 422 135 353 165 q 572 106 492 106 m 572 -17 q 373 23 465 -17 q 211 131 281 63 q 102 293 142 200 q 63 493 63 386 q 102 693 63 600 q 211 855 142 786 q 373 963 281 924 q 572 1003 465 1003 q 772 963 679 1003 q 934 855 865 924 q 1042 693 1003 786 q 1082 493 1082 600 q 1042 293 1082 386 q 934 131 1003 200 q 772 23 865 63 q 572 -17 679 -17 m 635 1257 l 786 1257 l 626 1067 l 526 1067 l 635 1257 z "},"Ô":{"ha":1146,"x_min":63,"x_max":1082,"o":"m 572 106 q 723 135 653 106 q 844 218 793 165 q 924 341 894 271 q 953 493 953 411 q 924 644 953 574 q 844 768 894 715 q 723 851 793 821 q 572 881 653 881 q 422 851 492 881 q 302 768 353 821 q 222 644 251 715 q 193 493 193 574 q 222 341 193 411 q 302 218 251 271 q 422 135 353 165 q 572 106 492 106 m 572 -17 q 373 23 465 -17 q 211 131 281 63 q 102 293 142 200 q 63 493 63 386 q 102 693 63 600 q 211 855 142 786 q 373 963 281 924 q 572 1003 465 1003 q 772 963 679 1003 q 934 855 865 924 q 1042 693 1003 786 q 1082 493 1082 600 q 1042 293 1082 386 q 934 131 1003 200 q 772 23 865 63 q 572 -17 679 -17 m 508 1257 l 638 1257 l 814 1067 l 685 1067 l 572 1182 l 461 1067 l 332 1067 l 508 1257 z "},"Õ":{"ha":1146,"x_min":63,"x_max":1082,"o":"m 572 106 q 723 135 653 106 q 844 218 793 165 q 924 341 894 271 q 953 493 953 411 q 924 644 953 574 q 844 768 894 715 q 723 851 793 821 q 572 881 653 881 q 422 851 492 881 q 302 768 353 821 q 222 644 251 715 q 193 493 193 574 q 222 341 193 411 q 302 218 251 271 q 422 135 353 165 q 572 106 492 106 m 572 -17 q 373 23 465 -17 q 211 131 281 63 q 102 293 142 200 q 63 493 63 386 q 102 693 63 600 q 211 855 142 786 q 373 963 281 924 q 572 1003 465 1003 q 772 963 679 1003 q 934 855 865 924 q 1042 693 1003 786 q 1082 493 1082 600 q 1042 293 1082 386 q 934 131 1003 200 q 772 23 865 63 q 572 -17 679 -17 m 336 1117 q 388 1213 347 1176 q 483 1249 428 1249 q 535 1239 510 1249 q 583 1218 561 1229 q 626 1197 606 1207 q 663 1188 646 1188 q 722 1249 708 1188 l 814 1249 l 808 1222 q 758 1128 797 1164 q 661 1092 718 1092 q 608 1101 633 1092 q 561 1122 583 1111 q 519 1143 539 1133 q 483 1153 500 1153 q 422 1092 439 1153 l 332 1092 l 336 1117 z "},"Ö":{"ha":1146,"x_min":63,"x_max":1082,"o":"m 572 106 q 723 135 653 106 q 844 218 793 165 q 924 341 894 271 q 953 493 953 411 q 924 644 953 574 q 844 768 894 715 q 723 851 793 821 q 572 881 653 881 q 422 851 492 881 q 302 768 353 821 q 222 644 251 715 q 193 493 193 574 q 222 341 193 411 q 302 218 251 271 q 422 135 353 165 q 572 106 492 106 m 572 -17 q 373 23 465 -17 q 211 131 281 63 q 102 293 142 200 q 63 493 63 386 q 102 693 63 600 q 211 855 142 786 q 373 963 281 924 q 572 1003 465 1003 q 772 963 679 1003 q 934 855 865 924 q 1042 693 1003 786 q 1082 493 1082 600 q 1042 293 1082 386 q 934 131 1003 200 q 772 23 865 63 q 572 -17 679 -17 m 738 1088 q 676 1112 701 1088 q 651 1172 651 1136 q 676 1232 651 1207 q 738 1257 701 1257 q 798 1232 774 1257 q 822 1172 822 1207 q 798 1112 822 1136 q 738 1088 774 1088 m 411 1088 q 349 1112 375 1088 q 324 1172 324 1136 q 349 1232 324 1207 q 410 1257 374 1257 q 471 1232 446 1257 q 496 1172 496 1207 q 472 1112 496 1136 q 411 1088 447 1088 z "},"×":{"ha":699,"x_min":74,"x_max":625,"o":"m 74 207 l 272 403 l 74 597 l 151 675 l 350 481 l 547 675 l 625 597 l 426 403 l 625 207 l 547 131 l 350 325 l 151 131 l 74 207 z "},"Ø":{"ha":1147,"x_min":64,"x_max":1083,"o":"m 574 106 q 724 135 654 106 q 845 218 794 165 q 925 341 896 271 q 954 493 954 411 q 925 644 954 574 q 845 768 896 715 q 724 851 794 821 q 574 881 654 881 q 424 851 493 881 q 303 768 354 821 q 224 644 253 715 q 194 493 194 574 q 224 341 194 411 q 303 218 253 271 q 424 135 354 165 q 574 106 493 106 m 574 -17 q 374 23 467 -17 q 213 131 282 63 q 103 293 143 200 q 64 493 64 386 q 103 693 64 600 q 213 855 143 786 q 374 963 282 924 q 574 1003 467 1003 q 774 963 681 1003 q 935 855 867 924 q 1044 693 1004 786 q 1083 493 1083 600 q 1044 293 1083 386 q 935 131 1004 200 q 774 23 867 63 q 574 -17 681 -17 m 181 -28 l 103 44 l 968 1014 l 1044 943 l 181 -28 z "},"Ù":{"ha":1008,"x_min":118,"x_max":890,"o":"m 504 -17 q 347 11 418 -17 q 226 91 276 39 q 147 217 175 143 q 118 383 118 292 l 118 986 l 247 986 l 247 381 q 317 176 247 247 q 504 106 388 106 q 691 176 621 106 q 761 381 761 247 l 761 986 l 890 986 l 890 383 q 862 217 890 292 q 783 91 833 143 q 660 11 732 39 q 504 -17 589 -17 m 450 1067 l 290 1257 l 442 1257 l 550 1067 l 450 1067 z "},"Ú":{"ha":1008,"x_min":118,"x_max":890,"o":"m 504 -17 q 347 11 418 -17 q 226 91 276 39 q 147 217 175 143 q 118 383 118 292 l 118 986 l 247 986 l 247 381 q 317 176 247 247 q 504 106 388 106 q 691 176 621 106 q 761 381 761 247 l 761 986 l 890 986 l 890 383 q 862 217 890 292 q 783 91 833 143 q 660 11 732 39 q 504 -17 589 -17 m 565 1257 l 717 1257 l 557 1067 l 457 1067 l 565 1257 z "},"Û":{"ha":1008,"x_min":118,"x_max":890,"o":"m 504 -17 q 347 11 418 -17 q 226 91 276 39 q 147 217 175 143 q 118 383 118 292 l 118 986 l 247 986 l 247 381 q 317 176 247 247 q 504 106 388 106 q 691 176 621 106 q 761 381 761 247 l 761 986 l 890 986 l 890 383 q 862 217 890 292 q 783 91 833 143 q 660 11 732 39 q 504 -17 589 -17 m 440 1257 l 569 1257 l 746 1067 l 617 1067 l 504 1182 l 393 1067 l 264 1067 l 440 1257 z "},"Ü":{"ha":1008,"x_min":118,"x_max":890,"o":"m 504 -17 q 347 11 418 -17 q 226 91 276 39 q 147 217 175 143 q 118 383 118 292 l 118 986 l 247 986 l 247 381 q 317 176 247 247 q 504 106 388 106 q 691 176 621 106 q 761 381 761 247 l 761 986 l 890 986 l 890 383 q 862 217 890 292 q 783 91 833 143 q 660 11 732 39 q 504 -17 589 -17 m 668 1088 q 607 1112 632 1088 q 582 1172 582 1136 q 607 1232 582 1207 q 668 1257 632 1257 q 728 1232 704 1257 q 753 1172 753 1207 q 728 1112 753 1136 q 668 1088 704 1088 m 342 1088 q 280 1112 306 1088 q 254 1172 254 1136 q 279 1232 254 1207 q 340 1257 304 1257 q 401 1232 376 1257 q 426 1172 426 1207 q 402 1112 426 1136 q 342 1088 378 1088 z "},"Ý":{"ha":936,"x_min":21,"x_max":917,"o":"m 404 418 l 21 986 l 175 986 l 468 547 l 763 986 l 917 986 l 532 417 l 532 0 l 404 0 l 404 418 m 529 1257 l 681 1257 l 521 1067 l 421 1067 l 529 1257 z "},"Þ":{"ha":826,"x_min":131,"x_max":771,"o":"m 771 493 q 747 369 771 426 q 678 271 722 313 q 572 205 635 229 q 432 181 508 181 l 260 181 l 260 0 l 131 0 l 131 986 l 260 986 l 260 807 l 432 807 q 572 783 508 807 q 678 717 635 758 q 747 617 722 675 q 771 493 771 560 m 643 493 q 629 570 643 535 q 588 631 615 606 q 522 672 561 657 q 432 688 483 688 l 260 688 l 260 300 l 432 300 q 522 315 483 300 q 588 356 561 329 q 629 417 615 382 q 643 493 643 453 z "},"ß":{"ha":796,"x_min":113,"x_max":739,"o":"m 113 732 q 135 851 113 797 q 196 942 157 904 q 287 1001 235 981 q 397 1022 339 1022 q 508 1001 456 1022 q 598 945 560 981 q 659 861 636 910 q 682 757 682 813 q 650 631 682 689 q 560 538 618 574 q 637 494 603 521 q 693 433 671 467 q 727 363 715 400 q 739 289 739 326 q 717 178 739 231 q 653 87 694 126 q 552 24 611 47 q 419 0 493 0 l 349 0 l 349 113 l 414 113 q 496 126 458 113 q 561 163 533 139 q 604 219 589 186 q 619 292 619 251 q 604 364 619 331 q 561 422 589 397 q 496 459 533 446 q 414 472 458 472 l 351 472 l 351 583 l 388 583 q 458 596 426 583 q 513 631 490 608 q 549 683 536 653 q 563 746 563 713 q 550 810 563 781 q 515 863 538 840 q 463 897 493 885 q 399 910 433 910 q 333 897 363 910 q 280 860 303 883 q 244 803 257 836 q 232 731 232 769 l 232 0 l 113 0 l 113 732 z "},"à":{"ha":867,"x_min":58,"x_max":754,"o":"m 408 -14 q 266 15 331 -14 q 156 92 201 43 q 84 208 110 142 q 58 347 58 274 q 84 487 58 421 q 156 602 110 553 q 266 680 201 651 q 408 708 331 708 q 535 685 476 708 q 635 618 593 663 l 635 694 l 754 694 l 754 0 l 635 0 l 635 76 q 535 9 593 32 q 408 -14 476 -14 m 418 96 q 550 129 496 96 q 635 211 604 163 l 635 485 q 550 566 604 533 q 418 599 496 599 q 322 579 365 599 q 248 525 279 560 q 199 444 217 490 q 182 347 182 399 q 199 249 182 294 q 248 169 217 204 q 322 115 279 135 q 418 96 365 96 m 413 797 l 239 1014 l 390 1014 l 513 797 l 413 797 z "},"á":{"ha":867,"x_min":58,"x_max":754,"o":"m 408 -14 q 266 15 331 -14 q 156 92 201 43 q 84 208 110 142 q 58 347 58 274 q 84 487 58 421 q 156 602 110 553 q 266 680 201 651 q 408 708 331 708 q 535 685 476 708 q 635 618 593 663 l 635 694 l 754 694 l 754 0 l 635 0 l 635 76 q 535 9 593 32 q 408 -14 476 -14 m 418 96 q 550 129 496 96 q 635 211 604 163 l 635 485 q 550 566 604 533 q 418 599 496 599 q 322 579 365 599 q 248 525 279 560 q 199 444 217 490 q 182 347 182 399 q 199 249 182 294 q 248 169 217 204 q 322 115 279 135 q 418 96 365 96 m 533 1014 l 685 1014 l 511 797 l 411 797 l 533 1014 z "},"â":{"ha":867,"x_min":58,"x_max":754,"o":"m 408 -14 q 266 15 331 -14 q 156 92 201 43 q 84 208 110 142 q 58 347 58 274 q 84 487 58 421 q 156 602 110 553 q 266 680 201 651 q 408 708 331 708 q 535 685 476 708 q 635 618 593 663 l 635 694 l 754 694 l 754 0 l 635 0 l 635 76 q 535 9 593 32 q 408 -14 476 -14 m 418 96 q 550 129 496 96 q 635 211 604 163 l 635 485 q 550 566 604 533 q 418 599 496 599 q 322 579 365 599 q 248 525 279 560 q 199 444 217 490 q 182 347 182 399 q 199 249 182 294 q 248 169 217 204 q 322 115 279 135 q 418 96 365 96 m 401 1014 l 524 1014 l 700 803 l 575 803 l 463 933 l 350 803 l 225 803 l 401 1014 z "},"ã":{"ha":867,"x_min":58,"x_max":754,"o":"m 408 -14 q 266 15 331 -14 q 156 92 201 43 q 84 208 110 142 q 58 347 58 274 q 84 487 58 421 q 156 602 110 553 q 266 680 201 651 q 408 708 331 708 q 535 685 476 708 q 635 618 593 663 l 635 694 l 754 694 l 754 0 l 635 0 l 635 76 q 535 9 593 32 q 408 -14 476 -14 m 418 96 q 550 129 496 96 q 635 211 604 163 l 635 485 q 550 566 604 533 q 418 599 496 599 q 322 579 365 599 q 248 525 279 560 q 199 444 217 490 q 182 347 182 399 q 199 249 182 294 q 248 169 217 204 q 322 115 279 135 q 418 96 365 96 m 225 849 q 276 944 236 908 q 372 981 317 981 q 425 971 400 981 q 473 950 450 961 q 515 929 496 939 q 551 919 535 919 q 611 981 597 919 l 703 981 l 699 956 q 647 860 688 896 q 551 824 607 824 q 499 833 524 824 q 451 854 474 843 q 408 875 428 865 q 372 885 389 885 q 313 824 326 885 l 221 824 l 225 849 z "},"ä":{"ha":867,"x_min":58,"x_max":754,"o":"m 408 -14 q 266 15 331 -14 q 156 92 201 43 q 84 208 110 142 q 58 347 58 274 q 84 487 58 421 q 156 602 110 553 q 266 680 201 651 q 408 708 331 708 q 535 685 476 708 q 635 618 593 663 l 635 694 l 754 694 l 754 0 l 635 0 l 635 76 q 535 9 593 32 q 408 -14 476 -14 m 418 96 q 550 129 496 96 q 635 211 604 163 l 635 485 q 550 566 604 533 q 418 599 496 599 q 322 579 365 599 q 248 525 279 560 q 199 444 217 490 q 182 347 182 399 q 199 249 182 294 q 248 169 217 204 q 322 115 279 135 q 418 96 365 96 m 610 832 q 549 856 574 832 q 524 917 524 881 q 549 976 524 951 q 610 1001 574 1001 q 670 976 646 1001 q 694 917 694 951 q 670 856 694 881 q 610 832 646 832 m 292 832 q 231 856 256 832 q 206 917 206 881 q 231 976 206 951 q 292 1001 256 1001 q 352 976 328 1001 q 376 917 376 951 q 352 856 376 881 q 292 832 328 832 z "},"å":{"ha":867,"x_min":58,"x_max":754,"o":"m 408 -14 q 266 15 331 -14 q 156 92 201 43 q 84 208 110 142 q 58 347 58 274 q 84 487 58 421 q 156 602 110 553 q 266 680 201 651 q 408 708 331 708 q 535 685 476 708 q 635 618 593 663 l 635 694 l 754 694 l 754 0 l 635 0 l 635 76 q 535 9 593 32 q 408 -14 476 -14 m 418 96 q 550 129 496 96 q 635 211 604 163 l 635 485 q 550 566 604 533 q 418 599 496 599 q 322 579 365 599 q 248 525 279 560 q 199 444 217 490 q 182 347 182 399 q 199 249 182 294 q 248 169 217 204 q 322 115 279 135 q 418 96 365 96 m 447 832 q 386 856 411 832 q 361 917 361 881 q 386 976 361 951 q 447 1001 411 1001 q 508 976 483 1001 q 532 917 532 951 q 508 856 532 881 q 447 832 483 832 z "},"æ":{"ha":1276,"x_min":50,"x_max":1219,"o":"m 321 -14 q 212 3 261 -14 q 126 50 163 19 q 70 124 90 81 q 50 219 50 167 q 72 310 50 269 q 131 381 93 351 q 219 428 168 411 q 331 444 271 444 q 442 429 396 444 q 529 392 489 414 l 529 424 q 514 504 529 471 q 474 558 499 538 q 416 589 449 579 q 347 599 383 599 q 235 576 288 599 q 147 521 183 554 l 94 621 q 207 683 139 658 q 350 708 275 708 q 503 674 438 708 q 606 572 569 640 q 726 672 653 635 q 892 708 800 708 q 1017 685 958 708 q 1122 617 1076 663 q 1193 508 1167 572 q 1219 360 1219 443 q 1219 342 1219 350 q 1218 324 1219 335 l 649 324 q 668 233 650 275 q 718 161 686 192 q 793 113 750 131 q 888 96 836 96 q 1022 128 969 96 q 1106 217 1074 161 l 1199 151 q 1075 31 1153 75 q 892 -14 997 -14 q 729 19 800 -14 q 610 111 658 53 q 475 15 551 44 q 321 -14 399 -14 m 326 93 q 445 115 390 93 q 529 188 500 138 l 529 282 q 447 329 492 311 q 339 347 403 347 q 275 340 306 347 q 222 318 244 333 q 185 278 199 303 q 171 219 171 254 q 184 162 171 186 q 219 122 197 138 q 269 100 240 107 q 326 93 297 93 m 885 603 q 808 590 844 603 q 740 555 771 578 q 686 498 708 532 q 656 421 664 464 l 1097 421 q 1024 554 1083 506 q 885 603 964 603 z "},"ç":{"ha":785,"x_min":58,"x_max":743,"o":"m 422 -14 q 276 14 343 -14 q 161 91 210 42 q 85 206 113 140 q 58 347 58 272 q 85 488 58 422 q 161 603 113 554 q 276 681 210 653 q 422 708 343 708 q 614 657 531 708 q 743 522 697 606 l 639 464 q 553 560 610 524 q 422 597 497 597 q 324 578 368 597 q 247 524 279 558 q 197 444 214 490 q 179 347 179 399 q 197 249 179 294 q 247 170 214 204 q 324 117 279 136 q 422 97 368 97 q 553 134 497 97 q 639 231 610 171 l 743 172 q 614 38 697 89 q 422 -14 531 -14 m 296 -190 q 392 -210 342 -210 q 445 -200 419 -210 q 471 -164 471 -190 q 455 -135 471 -144 q 417 -126 439 -126 q 382 -130 397 -126 q 353 -139 367 -133 l 310 -108 l 378 4 l 454 4 l 410 -68 q 463 -58 432 -58 q 538 -85 507 -58 q 568 -158 568 -111 q 520 -251 568 -219 q 399 -283 472 -283 q 337 -278 368 -283 q 278 -260 306 -272 l 296 -190 z "},"è":{"ha":807,"x_min":58,"x_max":750,"o":"m 418 -14 q 271 14 338 -14 q 157 90 204 42 q 84 205 110 139 q 58 347 58 271 q 85 490 58 424 q 159 604 111 556 q 274 681 207 653 q 419 708 340 708 q 547 685 488 708 q 652 617 607 663 q 724 508 697 572 q 750 360 750 443 q 750 342 750 350 q 749 324 750 335 l 179 324 q 199 233 181 275 q 249 161 218 192 q 324 113 281 131 q 419 96 368 96 q 552 128 500 96 q 636 217 604 161 l 731 151 q 605 31 683 75 q 418 -14 526 -14 m 628 421 q 602 497 621 464 q 555 554 583 531 q 490 590 526 578 q 415 603 454 603 q 339 590 376 603 q 271 555 301 578 q 218 498 240 532 q 188 421 196 464 l 628 421 m 372 797 l 199 1014 l 350 1014 l 472 797 l 372 797 z "},"é":{"ha":807,"x_min":58,"x_max":750,"o":"m 418 -14 q 271 14 338 -14 q 157 90 204 42 q 84 205 110 139 q 58 347 58 271 q 85 490 58 424 q 159 604 111 556 q 274 681 207 653 q 419 708 340 708 q 547 685 488 708 q 652 617 607 663 q 724 508 697 572 q 750 360 750 443 q 750 342 750 350 q 749 324 750 335 l 179 324 q 199 233 181 275 q 249 161 218 192 q 324 113 281 131 q 419 96 368 96 q 552 128 500 96 q 636 217 604 161 l 731 151 q 605 31 683 75 q 418 -14 526 -14 m 628 421 q 602 497 621 464 q 555 554 583 531 q 490 590 526 578 q 415 603 454 603 q 339 590 376 603 q 271 555 301 578 q 218 498 240 532 q 188 421 196 464 l 628 421 m 493 1014 l 644 1014 l 471 797 l 371 797 l 493 1014 z "},"ê":{"ha":807,"x_min":58,"x_max":750,"o":"m 418 -14 q 271 14 338 -14 q 157 90 204 42 q 84 205 110 139 q 58 347 58 271 q 85 490 58 424 q 159 604 111 556 q 274 681 207 653 q 419 708 340 708 q 547 685 488 708 q 652 617 607 663 q 724 508 697 572 q 750 360 750 443 q 750 342 750 350 q 749 324 750 335 l 179 324 q 199 233 181 275 q 249 161 218 192 q 324 113 281 131 q 419 96 368 96 q 552 128 500 96 q 636 217 604 161 l 731 151 q 605 31 683 75 q 418 -14 526 -14 m 628 421 q 602 497 621 464 q 555 554 583 531 q 490 590 526 578 q 415 603 454 603 q 339 590 376 603 q 271 555 301 578 q 218 498 240 532 q 188 421 196 464 l 628 421 m 360 1014 l 482 1014 l 658 803 l 533 803 l 421 933 l 308 803 l 183 803 l 360 1014 z "},"ë":{"ha":807,"x_min":58,"x_max":750,"o":"m 418 -14 q 271 14 338 -14 q 157 90 204 42 q 84 205 110 139 q 58 347 58 271 q 85 490 58 424 q 159 604 111 556 q 274 681 207 653 q 419 708 340 708 q 547 685 488 708 q 652 617 607 663 q 724 508 697 572 q 750 360 750 443 q 750 342 750 350 q 749 324 750 335 l 179 324 q 199 233 181 275 q 249 161 218 192 q 324 113 281 131 q 419 96 368 96 q 552 128 500 96 q 636 217 604 161 l 731 151 q 605 31 683 75 q 418 -14 526 -14 m 628 421 q 602 497 621 464 q 555 554 583 531 q 490 590 526 578 q 415 603 454 603 q 339 590 376 603 q 271 555 301 578 q 218 498 240 532 q 188 421 196 464 l 628 421 m 581 832 q 519 856 544 832 q 494 917 494 881 q 519 976 494 951 q 581 1001 544 1001 q 641 976 617 1001 q 665 917 665 951 q 641 856 665 881 q 581 832 617 832 m 263 832 q 201 856 226 832 q 176 917 176 881 q 201 976 176 951 q 263 1001 226 1001 q 323 976 299 1001 q 347 917 347 951 q 323 856 347 881 q 263 832 299 832 z "},"ì":{"ha":346,"x_min":-50,"x_max":232,"o":"m 113 694 l 232 694 l 232 0 l 113 0 l 113 694 m 124 797 l -50 1014 l 101 1014 l 224 797 l 124 797 z "},"í":{"ha":346,"x_min":113,"x_max":396,"o":"m 113 694 l 232 694 l 232 0 l 113 0 l 113 694 m 244 1014 l 396 1014 l 222 797 l 122 797 l 244 1014 z "},"î":{"ha":346,"x_min":-65,"x_max":410,"o":"m 113 694 l 232 694 l 232 0 l 113 0 l 113 694 m 111 1014 l 233 1014 l 410 803 l 285 803 l 172 933 l 60 803 l -65 803 l 111 1014 z "},"ï":{"ha":346,"x_min":-47,"x_max":393,"o":"m 113 694 l 232 694 l 232 0 l 113 0 l 113 694 m 308 832 q 247 856 272 832 q 222 917 222 881 q 247 976 222 951 q 308 1001 272 1001 q 369 976 344 1001 q 393 917 393 951 q 369 856 393 881 q 308 832 344 832 m 39 832 q -22 856 3 832 q -47 917 -47 881 q -22 976 -47 951 q 39 1001 3 1001 q 99 976 75 1001 q 124 917 124 951 q 99 856 124 881 q 39 832 75 832 z "},"ð":{"ha":842,"x_min":58,"x_max":785,"o":"m 556 797 l 710 569 q 763 466 742 521 q 785 347 785 411 q 758 207 785 272 q 682 92 731 142 q 567 15 633 43 q 421 -14 500 -14 q 276 15 343 -14 q 161 92 210 43 q 85 207 113 142 q 58 347 58 272 q 87 490 58 424 q 164 604 115 556 q 278 680 213 653 q 417 707 343 707 q 450 706 432 707 q 490 700 468 704 l 424 797 l 226 797 l 226 892 l 360 892 l 278 1014 l 410 1014 l 492 892 l 664 892 l 664 797 l 556 797 m 421 97 q 519 117 475 97 q 596 170 564 136 q 645 249 628 204 q 663 347 663 294 q 645 444 663 399 q 596 524 628 490 q 519 578 564 558 q 421 597 475 597 q 322 578 367 597 q 246 524 278 558 q 197 444 214 490 q 179 347 179 399 q 197 249 179 294 q 246 170 214 204 q 322 117 278 136 q 421 97 367 97 z "},"ñ":{"ha":818,"x_min":113,"x_max":715,"o":"m 113 694 l 232 694 l 232 607 q 326 684 268 660 q 451 708 385 708 q 558 689 510 708 q 642 633 607 669 q 696 544 676 596 q 715 426 715 492 l 715 0 l 597 0 l 597 408 q 551 549 597 500 q 424 599 504 599 q 301 560 350 599 q 232 461 253 522 l 232 0 l 113 0 l 113 694 m 176 849 q 228 944 188 908 q 324 981 268 981 q 376 971 351 981 q 424 950 401 961 q 467 929 447 939 q 503 919 486 919 q 563 981 549 919 l 654 981 l 650 956 q 599 860 639 896 q 503 824 558 824 q 450 833 475 824 q 402 854 425 843 q 360 875 379 865 q 324 885 340 885 q 264 824 278 885 l 172 824 l 176 849 z "},"ò":{"ha":842,"x_min":57,"x_max":783,"o":"m 421 -14 q 275 15 342 -14 q 160 92 208 43 q 84 206 111 140 q 57 347 57 272 q 84 488 57 422 q 160 603 111 554 q 275 680 208 651 q 421 708 342 708 q 565 680 499 708 q 681 603 632 651 q 756 488 729 554 q 783 347 783 422 q 756 206 783 272 q 681 92 729 140 q 565 15 632 43 q 421 -14 499 -14 m 421 97 q 519 117 475 97 q 595 170 564 136 q 644 249 626 204 q 661 347 661 294 q 644 444 661 399 q 595 524 626 490 q 519 578 564 558 q 421 597 475 597 q 322 578 367 597 q 246 524 278 558 q 197 444 214 490 q 179 347 179 399 q 197 249 179 294 q 246 170 214 204 q 322 117 278 136 q 421 97 367 97 m 371 797 l 197 1014 l 349 1014 l 471 797 l 371 797 z "},"ó":{"ha":842,"x_min":57,"x_max":783,"o":"m 421 -14 q 275 15 342 -14 q 160 92 208 43 q 84 206 111 140 q 57 347 57 272 q 84 488 57 422 q 160 603 111 554 q 275 680 208 651 q 421 708 342 708 q 565 680 499 708 q 681 603 632 651 q 756 488 729 554 q 783 347 783 422 q 756 206 783 272 q 681 92 729 140 q 565 15 632 43 q 421 -14 499 -14 m 421 97 q 519 117 475 97 q 595 170 564 136 q 644 249 626 204 q 661 347 661 294 q 644 444 661 399 q 595 524 626 490 q 519 578 564 558 q 421 597 475 597 q 322 578 367 597 q 246 524 278 558 q 197 444 214 490 q 179 347 179 399 q 197 249 179 294 q 246 170 214 204 q 322 117 278 136 q 421 97 367 97 m 492 1014 l 643 1014 l 469 797 l 369 797 l 492 1014 z "},"ô":{"ha":842,"x_min":57,"x_max":783,"o":"m 421 -14 q 275 15 342 -14 q 160 92 208 43 q 84 206 111 140 q 57 347 57 272 q 84 488 57 422 q 160 603 111 554 q 275 680 208 651 q 421 708 342 708 q 565 680 499 708 q 681 603 632 651 q 756 488 729 554 q 783 347 783 422 q 756 206 783 272 q 681 92 729 140 q 565 15 632 43 q 421 -14 499 -14 m 421 97 q 519 117 475 97 q 595 170 564 136 q 644 249 626 204 q 661 347 661 294 q 644 444 661 399 q 595 524 626 490 q 519 578 564 558 q 421 597 475 597 q 322 578 367 597 q 246 524 278 558 q 197 444 214 490 q 179 347 179 399 q 197 249 179 294 q 246 170 214 204 q 322 117 278 136 q 421 97 367 97 m 360 1014 l 482 1014 l 658 803 l 533 803 l 421 933 l 308 803 l 183 803 l 360 1014 z "},"õ":{"ha":842,"x_min":57,"x_max":783,"o":"m 421 -14 q 275 15 342 -14 q 160 92 208 43 q 84 206 111 140 q 57 347 57 272 q 84 488 57 422 q 160 603 111 554 q 275 680 208 651 q 421 708 342 708 q 565 680 499 708 q 681 603 632 651 q 756 488 729 554 q 783 347 783 422 q 756 206 783 272 q 681 92 729 140 q 565 15 632 43 q 421 -14 499 -14 m 421 97 q 519 117 475 97 q 595 170 564 136 q 644 249 626 204 q 661 347 661 294 q 644 444 661 399 q 595 524 626 490 q 519 578 564 558 q 421 597 475 597 q 322 578 367 597 q 246 524 278 558 q 197 444 214 490 q 179 347 179 399 q 197 249 179 294 q 246 170 214 204 q 322 117 278 136 q 421 97 367 97 m 183 849 q 235 944 194 908 q 331 981 275 981 q 383 971 358 981 q 431 950 408 961 q 474 929 454 939 q 510 919 493 919 q 569 981 556 919 l 661 981 l 657 956 q 606 860 646 896 q 510 824 565 824 q 457 833 482 824 q 409 854 432 843 q 367 875 386 865 q 331 885 347 885 q 271 824 285 885 l 179 824 l 183 849 z "},"ö":{"ha":842,"x_min":57,"x_max":783,"o":"m 421 -14 q 275 15 342 -14 q 160 92 208 43 q 84 206 111 140 q 57 347 57 272 q 84 488 57 422 q 160 603 111 554 q 275 680 208 651 q 421 708 342 708 q 565 680 499 708 q 681 603 632 651 q 756 488 729 554 q 783 347 783 422 q 756 206 783 272 q 681 92 729 140 q 565 15 632 43 q 421 -14 499 -14 m 421 97 q 519 117 475 97 q 595 170 564 136 q 644 249 626 204 q 661 347 661 294 q 644 444 661 399 q 595 524 626 490 q 519 578 564 558 q 421 597 475 597 q 322 578 367 597 q 246 524 278 558 q 197 444 214 490 q 179 347 179 399 q 197 249 179 294 q 246 170 214 204 q 322 117 278 136 q 421 97 367 97 m 581 832 q 519 856 544 832 q 494 917 494 881 q 519 976 494 951 q 581 1001 544 1001 q 641 976 617 1001 q 665 917 665 951 q 641 856 665 881 q 581 832 617 832 m 263 832 q 201 856 226 832 q 176 917 176 881 q 201 976 176 951 q 263 1001 226 1001 q 323 976 299 1001 q 347 917 347 951 q 323 856 347 881 q 263 832 299 832 z "},"ø":{"ha":856,"x_min":64,"x_max":790,"o":"m 428 -14 q 282 15 349 -14 q 167 92 215 43 q 91 206 118 140 q 64 347 64 272 q 91 488 64 422 q 167 603 118 554 q 282 680 215 651 q 428 708 349 708 q 572 680 506 708 q 688 603 639 651 q 763 488 736 554 q 790 347 790 422 q 763 206 790 272 q 688 92 736 140 q 572 15 639 43 q 428 -14 506 -14 m 428 97 q 526 117 482 97 q 602 170 571 136 q 651 249 633 204 q 668 347 668 294 q 651 444 668 399 q 602 524 633 490 q 526 578 571 558 q 428 597 482 597 q 329 578 374 597 q 253 524 285 558 q 203 444 221 490 q 186 347 186 399 q 203 249 186 294 q 253 170 221 204 q 329 117 285 136 q 428 97 374 97 m 129 -14 l 74 42 l 728 708 l 782 654 l 129 -14 z "},"ù":{"ha":804,"x_min":103,"x_max":692,"o":"m 692 0 l 572 0 l 572 88 q 478 10 536 35 q 363 -14 421 -14 q 258 6 306 -14 q 175 62 210 25 q 122 151 140 99 q 103 268 103 203 l 103 694 l 222 694 l 222 286 q 267 145 222 194 q 389 96 311 96 q 503 134 456 96 q 572 233 550 172 l 572 694 l 692 694 l 692 0 m 347 797 l 174 1014 l 325 1014 l 447 797 l 347 797 z "},"ú":{"ha":804,"x_min":103,"x_max":692,"o":"m 692 0 l 572 0 l 572 88 q 478 10 536 35 q 363 -14 421 -14 q 258 6 306 -14 q 175 62 210 25 q 122 151 140 99 q 103 268 103 203 l 103 694 l 222 694 l 222 286 q 267 145 222 194 q 389 96 311 96 q 503 134 456 96 q 572 233 550 172 l 572 694 l 692 694 l 692 0 m 467 1014 l 618 1014 l 444 797 l 344 797 l 467 1014 z "},"û":{"ha":804,"x_min":103,"x_max":692,"o":"m 692 0 l 572 0 l 572 88 q 478 10 536 35 q 363 -14 421 -14 q 258 6 306 -14 q 175 62 210 25 q 122 151 140 99 q 103 268 103 203 l 103 694 l 222 694 l 222 286 q 267 145 222 194 q 389 96 311 96 q 503 134 456 96 q 572 233 550 172 l 572 694 l 692 694 l 692 0 m 335 1014 l 457 1014 l 633 803 l 508 803 l 396 933 l 283 803 l 158 803 l 335 1014 z "},"ü":{"ha":804,"x_min":103,"x_max":692,"o":"m 692 0 l 572 0 l 572 88 q 478 10 536 35 q 363 -14 421 -14 q 258 6 306 -14 q 175 62 210 25 q 122 151 140 99 q 103 268 103 203 l 103 694 l 222 694 l 222 286 q 267 145 222 194 q 389 96 311 96 q 503 134 456 96 q 572 233 550 172 l 572 694 l 692 694 l 692 0 m 557 832 q 496 856 521 832 q 471 917 471 881 q 496 976 471 951 q 557 1001 521 1001 q 617 976 593 1001 q 642 917 642 951 q 617 856 642 881 q 557 832 593 832 m 239 832 q 178 856 203 832 q 153 917 153 881 q 178 976 153 951 q 239 1001 203 1001 q 299 976 275 1001 q 324 917 324 951 q 299 856 324 881 q 239 832 275 832 z "},"ý":{"ha":760,"x_min":11,"x_max":753,"o":"m 174 -269 l 315 36 l 11 694 l 143 694 l 382 167 l 619 694 l 753 694 l 307 -269 l 174 -269 m 453 1014 l 604 1014 l 431 797 l 331 797 l 453 1014 z "},"þ":{"ha":867,"x_min":113,"x_max":808,"o":"m 113 1014 l 232 1014 l 232 618 q 333 685 275 663 q 458 708 392 708 q 601 680 536 708 q 711 602 665 651 q 783 487 757 553 q 808 347 808 421 q 783 208 808 274 q 711 92 757 142 q 601 15 665 43 q 458 -14 536 -14 q 333 9 392 -14 q 232 76 275 32 l 232 -269 l 113 -269 l 113 1014 m 449 96 q 544 115 501 96 q 619 169 588 135 q 667 249 650 204 q 685 347 685 294 q 667 444 685 399 q 619 525 650 490 q 544 579 588 560 q 449 599 501 599 q 317 566 371 599 q 232 485 263 533 l 232 211 q 317 129 263 163 q 449 96 371 96 z "},"ÿ":{"ha":760,"x_min":11,"x_max":753,"o":"m 174 -269 l 315 36 l 11 694 l 143 694 l 382 167 l 619 694 l 753 694 l 307 -269 l 174 -269 m 542 832 q 481 856 506 832 q 456 917 456 881 q 481 976 456 951 q 542 1001 506 1001 q 602 976 578 1001 q 626 917 626 951 q 602 856 626 881 q 542 832 578 832 m 224 832 q 163 856 188 832 q 138 917 138 881 q 163 976 138 951 q 224 1001 188 1001 q 284 976 260 1001 q 308 917 308 951 q 284 856 308 881 q 224 832 260 832 z "},"Ă":{"ha":997,"x_min":8,"x_max":989,"o":"m 444 986 l 551 986 l 989 0 l 854 0 l 726 288 l 267 288 l 142 0 l 8 0 l 444 986 m 318 404 l 675 404 l 496 811 l 318 404 m 497 1054 q 411 1069 451 1054 q 341 1113 371 1085 q 294 1183 311 1142 q 276 1274 276 1224 l 357 1274 q 398 1169 357 1206 q 497 1133 439 1133 q 597 1169 556 1133 q 638 1274 638 1206 l 718 1274 q 701 1183 718 1224 q 653 1113 683 1142 q 583 1069 624 1085 q 497 1054 543 1054 z "},"Ā":{"ha":997,"x_min":8,"x_max":989,"o":"m 444 986 l 551 986 l 989 0 l 854 0 l 726 288 l 267 288 l 142 0 l 8 0 l 444 986 m 318 404 l 675 404 l 496 811 l 318 404 m 274 1214 l 721 1214 l 721 1118 l 274 1118 l 274 1214 z "},"Ą":{"ha":997,"x_min":8,"x_max":1008,"o":"m 444 986 l 551 986 l 989 0 q 901 -69 931 -36 q 872 -139 872 -103 q 887 -173 872 -162 q 922 -183 901 -183 q 945 -181 933 -183 q 969 -171 957 -178 l 1008 -249 q 958 -274 988 -264 q 896 -283 928 -283 q 798 -250 836 -283 q 760 -164 760 -217 q 788 -72 760 -111 q 854 0 815 -32 l 726 288 l 267 288 l 142 0 l 8 0 l 444 986 m 318 404 l 675 404 l 496 811 l 318 404 z "},"Ć":{"ha":1049,"x_min":63,"x_max":1008,"o":"m 572 -17 q 373 23 465 -17 q 211 131 281 63 q 102 293 142 200 q 63 493 63 386 q 102 693 63 600 q 211 855 142 786 q 373 963 281 924 q 572 1003 465 1003 q 828 938 714 1003 q 1008 764 942 874 l 900 699 q 765 831 849 782 q 572 881 681 881 q 422 851 492 881 q 302 768 353 821 q 222 644 251 715 q 193 493 193 574 q 222 341 193 411 q 302 218 251 271 q 422 135 353 165 q 572 106 492 106 q 765 155 681 106 q 900 288 849 204 l 1008 222 q 828 48 942 113 q 572 -17 714 -17 m 635 1257 l 786 1257 l 626 1067 l 526 1067 l 635 1257 z "},"Č":{"ha":1049,"x_min":63,"x_max":1008,"o":"m 572 -17 q 373 23 465 -17 q 211 131 281 63 q 102 293 142 200 q 63 493 63 386 q 102 693 63 600 q 211 855 142 786 q 373 963 281 924 q 572 1003 465 1003 q 828 938 714 1003 q 1008 764 942 874 l 900 699 q 765 831 849 782 q 572 881 681 881 q 422 851 492 881 q 302 768 353 821 q 222 644 251 715 q 193 493 193 574 q 222 341 193 411 q 302 218 251 271 q 422 135 353 165 q 572 106 492 106 q 765 155 681 106 q 900 288 849 204 l 1008 222 q 828 48 942 113 q 572 -17 714 -17 m 332 1257 l 461 1257 l 572 1140 l 685 1257 l 814 1257 l 638 1067 l 508 1067 l 332 1257 z "},"Ĉ":{"ha":1049,"x_min":63,"x_max":1008,"o":"m 572 -17 q 373 23 465 -17 q 211 131 281 63 q 102 293 142 200 q 63 493 63 386 q 102 693 63 600 q 211 855 142 786 q 373 963 281 924 q 572 1003 465 1003 q 828 938 714 1003 q 1008 764 942 874 l 900 699 q 765 831 849 782 q 572 881 681 881 q 422 851 492 881 q 302 768 353 821 q 222 644 251 715 q 193 493 193 574 q 222 341 193 411 q 302 218 251 271 q 422 135 353 165 q 572 106 492 106 q 765 155 681 106 q 900 288 849 204 l 1008 222 q 828 48 942 113 q 572 -17 714 -17 m 508 1257 l 638 1257 l 814 1067 l 685 1067 l 572 1182 l 461 1067 l 332 1067 l 508 1257 z "},"Ċ":{"ha":1049,"x_min":63,"x_max":1008,"o":"m 572 -17 q 373 23 465 -17 q 211 131 281 63 q 102 293 142 200 q 63 493 63 386 q 102 693 63 600 q 211 855 142 786 q 373 963 281 924 q 572 1003 465 1003 q 828 938 714 1003 q 1008 764 942 874 l 900 699 q 765 831 849 782 q 572 881 681 881 q 422 851 492 881 q 302 768 353 821 q 222 644 251 715 q 193 493 193 574 q 222 341 193 411 q 302 218 251 271 q 422 135 353 165 q 572 106 492 106 q 765 155 681 106 q 900 288 849 204 l 1008 222 q 828 48 942 113 q 572 -17 714 -17 m 572 1088 q 511 1112 536 1088 q 486 1172 486 1136 q 511 1232 486 1207 q 572 1257 536 1257 q 633 1232 608 1257 q 657 1172 657 1207 q 633 1112 657 1136 q 572 1088 608 1088 z "},"Ď":{"ha":1001,"x_min":131,"x_max":939,"o":"m 131 986 l 414 986 q 624 949 528 986 q 790 845 719 911 q 899 689 860 779 q 939 493 939 599 q 899 297 939 388 q 790 141 860 207 q 624 38 719 75 q 414 0 528 0 l 131 0 l 131 986 m 414 121 q 576 149 503 121 q 700 226 649 176 q 780 344 751 276 q 808 493 808 413 q 780 642 808 574 q 700 760 751 710 q 576 838 649 810 q 414 865 503 865 l 260 865 l 260 121 l 414 121 m 233 1257 l 363 1257 l 474 1140 l 586 1257 l 715 1257 l 539 1067 l 410 1067 l 233 1257 z "},"Đ":{"ha":1013,"x_min":39,"x_max":949,"o":"m 140 986 l 424 986 q 633 949 538 986 q 799 845 729 911 q 909 689 869 779 q 949 493 949 599 q 909 297 949 388 q 799 141 869 207 q 633 38 729 75 q 424 0 538 0 l 140 0 l 140 986 m 424 121 q 585 149 513 121 q 710 226 658 176 q 790 344 761 276 q 818 493 818 413 q 790 642 818 574 q 710 760 761 710 q 585 838 658 810 q 424 865 513 865 l 269 865 l 269 121 l 424 121 m 39 557 l 492 557 l 492 443 l 39 443 l 39 557 z "},"Ĕ":{"ha":774,"x_min":131,"x_max":706,"o":"m 131 986 l 706 986 l 706 864 l 260 864 l 260 565 l 622 565 l 622 443 l 260 443 l 260 122 l 706 122 l 706 0 l 131 0 l 131 986 m 418 1054 q 332 1069 372 1054 q 262 1113 292 1085 q 215 1183 232 1142 q 197 1274 197 1224 l 278 1274 q 319 1169 278 1206 q 418 1133 360 1133 q 517 1169 476 1133 q 558 1274 558 1206 l 639 1274 q 622 1183 639 1224 q 574 1113 604 1142 q 504 1069 544 1085 q 418 1054 464 1054 z "},"Ě":{"ha":774,"x_min":131,"x_max":706,"o":"m 131 986 l 706 986 l 706 864 l 260 864 l 260 565 l 622 565 l 622 443 l 260 443 l 260 122 l 706 122 l 706 0 l 131 0 l 131 986 m 178 1257 l 307 1257 l 418 1140 l 531 1257 l 660 1257 l 483 1067 l 354 1067 l 178 1257 z "},"Ē":{"ha":774,"x_min":131,"x_max":706,"o":"m 131 986 l 706 986 l 706 864 l 260 864 l 260 565 l 622 565 l 622 443 l 260 443 l 260 122 l 706 122 l 706 0 l 131 0 l 131 986 m 194 1214 l 642 1214 l 642 1118 l 194 1118 l 194 1214 z "},"Ę":{"ha":774,"x_min":131,"x_max":726,"o":"m 131 986 l 706 986 l 706 864 l 260 864 l 260 565 l 622 565 l 622 443 l 260 443 l 260 122 l 706 122 l 706 0 l 131 0 l 131 986 m 613 -283 q 514 -250 553 -283 q 475 -164 475 -217 q 506 -72 475 -111 q 578 0 536 -33 l 706 0 q 618 -69 647 -36 q 589 -137 589 -103 q 604 -171 589 -161 q 639 -181 619 -181 q 662 -178 650 -181 q 686 -168 674 -175 l 726 -249 q 675 -274 706 -264 q 613 -283 644 -283 z "},"Ė":{"ha":774,"x_min":131,"x_max":706,"o":"m 131 986 l 706 986 l 706 864 l 260 864 l 260 565 l 622 565 l 622 443 l 260 443 l 260 122 l 706 122 l 706 0 l 131 0 l 131 986 m 418 1088 q 357 1112 382 1088 q 332 1172 332 1136 q 357 1232 332 1207 q 418 1257 382 1257 q 478 1232 454 1257 q 503 1172 503 1207 q 478 1112 503 1136 q 418 1088 454 1088 z "},"Ğ":{"ha":1063,"x_min":64,"x_max":982,"o":"m 594 -17 q 381 22 478 -17 q 213 130 283 61 q 103 292 142 199 q 64 493 64 385 q 103 693 64 600 q 210 855 142 786 q 374 963 279 924 q 578 1003 468 1003 q 787 967 694 1003 q 949 865 879 932 l 863 772 q 740 851 810 821 q 578 881 671 881 q 424 851 494 881 q 301 768 353 821 q 222 644 250 715 q 193 493 193 574 q 222 340 193 411 q 302 217 250 269 q 428 135 354 165 q 594 106 503 106 q 738 123 667 106 q 857 179 808 140 l 857 443 l 578 443 l 578 564 l 982 564 l 982 122 q 810 17 914 51 q 594 -17 706 -17 m 579 1054 q 493 1069 533 1054 q 423 1113 453 1085 q 376 1183 393 1142 q 358 1274 358 1224 l 439 1274 q 480 1169 439 1206 q 579 1133 521 1133 q 678 1169 638 1133 q 719 1274 719 1206 l 800 1274 q 783 1183 800 1224 q 735 1113 765 1142 q 665 1069 706 1085 q 579 1054 625 1054 z "},"Ĝ":{"ha":1063,"x_min":64,"x_max":982,"o":"m 594 -17 q 381 22 478 -17 q 213 130 283 61 q 103 292 142 199 q 64 493 64 385 q 103 693 64 600 q 210 855 142 786 q 374 963 279 924 q 578 1003 468 1003 q 787 967 694 1003 q 949 865 879 932 l 863 772 q 740 851 810 821 q 578 881 671 881 q 424 851 494 881 q 301 768 353 821 q 222 644 250 715 q 193 493 193 574 q 222 340 193 411 q 302 217 250 269 q 428 135 354 165 q 594 106 503 106 q 738 123 667 106 q 857 179 808 140 l 857 443 l 578 443 l 578 564 l 982 564 l 982 122 q 810 17 914 51 q 594 -17 706 -17 m 515 1257 l 644 1257 l 821 1067 l 692 1067 l 579 1182 l 468 1067 l 339 1067 l 515 1257 z "},"Ģ":{"ha":1063,"x_min":64,"x_max":982,"o":"m 594 -17 q 381 22 478 -17 q 213 130 283 61 q 103 292 142 199 q 64 493 64 385 q 103 693 64 600 q 210 855 142 786 q 374 963 279 924 q 578 1003 468 1003 q 787 967 694 1003 q 949 865 879 932 l 863 772 q 740 851 810 821 q 578 881 671 881 q 424 851 494 881 q 301 768 353 821 q 222 644 250 715 q 193 493 193 574 q 222 340 193 411 q 302 217 250 269 q 428 135 354 165 q 594 106 503 106 q 738 123 667 106 q 857 179 808 140 l 857 443 l 578 443 l 578 564 l 982 564 l 982 122 q 810 17 914 51 q 594 -17 706 -17 m 544 -265 q 507 -235 521 -256 q 493 -187 493 -214 q 518 -128 493 -153 q 579 -103 543 -103 q 640 -128 615 -103 q 664 -187 664 -153 q 658 -216 664 -203 q 646 -240 653 -229 q 633 -262 643 -244 q 608 -301 622 -279 q 581 -344 594 -322 q 560 -378 568 -365 l 497 -378 l 544 -265 z "},"Ġ":{"ha":1063,"x_min":64,"x_max":982,"o":"m 594 -17 q 381 22 478 -17 q 213 130 283 61 q 103 292 142 199 q 64 493 64 385 q 103 693 64 600 q 210 855 142 786 q 374 963 279 924 q 578 1003 468 1003 q 787 967 694 1003 q 949 865 879 932 l 863 772 q 740 851 810 821 q 578 881 671 881 q 424 851 494 881 q 301 768 353 821 q 222 644 250 715 q 193 493 193 574 q 222 340 193 411 q 302 217 250 269 q 428 135 354 165 q 594 106 503 106 q 738 123 667 106 q 857 179 808 140 l 857 443 l 578 443 l 578 564 l 982 564 l 982 122 q 810 17 914 51 q 594 -17 706 -17 m 579 1088 q 518 1112 543 1088 q 493 1172 493 1136 q 518 1232 493 1207 q 579 1257 543 1257 q 640 1232 615 1257 q 664 1172 664 1207 q 640 1112 664 1136 q 579 1088 615 1088 z "},"Ħ":{"ha":1078,"x_min":39,"x_max":1040,"o":"m 140 986 l 269 986 l 269 565 l 810 565 l 810 986 l 939 986 l 939 0 l 810 0 l 810 444 l 269 444 l 269 0 l 140 0 l 140 986 m 39 826 l 1040 826 l 1040 726 l 39 726 l 39 826 z "},"Ĥ":{"ha":1060,"x_min":131,"x_max":929,"o":"m 131 986 l 260 986 l 260 565 l 800 565 l 800 986 l 929 986 l 929 0 l 800 0 l 800 444 l 260 444 l 260 0 l 131 0 l 131 986 m 465 1257 l 594 1257 l 771 1067 l 642 1067 l 529 1182 l 418 1067 l 289 1067 l 465 1257 z "},"Ĭ":{"ha":390,"x_min":-25,"x_max":417,"o":"m 131 986 l 260 986 l 260 0 l 131 0 l 131 986 m 196 1054 q 110 1069 150 1054 q 40 1113 69 1085 q -8 1183 10 1142 q -25 1274 -25 1224 l 56 1274 q 97 1169 56 1206 q 196 1133 138 1133 q 295 1169 254 1133 q 336 1274 336 1206 l 417 1274 q 399 1183 417 1224 q 352 1113 382 1142 q 282 1069 322 1085 q 196 1054 242 1054 z "},"İ":{"ha":390,"x_min":110,"x_max":281,"o":"m 131 986 l 260 986 l 260 0 l 131 0 l 131 986 m 196 1088 q 135 1112 160 1088 q 110 1172 110 1136 q 135 1232 110 1207 q 196 1257 160 1257 q 256 1232 232 1257 q 281 1172 281 1207 q 256 1112 281 1136 q 196 1088 232 1088 z "},"Ī":{"ha":390,"x_min":-28,"x_max":419,"o":"m 131 986 l 260 986 l 260 0 l 131 0 l 131 986 m -28 1214 l 419 1214 l 419 1118 l -28 1118 l -28 1214 z "},"Į":{"ha":390,"x_min":29,"x_max":281,"o":"m 131 986 l 260 986 l 260 0 l 131 0 l 131 986 m 167 -283 q 68 -250 107 -283 q 29 -164 29 -217 q 60 -72 29 -111 q 132 0 90 -33 l 260 0 q 172 -69 201 -36 q 143 -137 143 -103 q 158 -171 143 -161 q 193 -181 174 -181 q 216 -178 204 -181 q 240 -168 228 -175 l 281 -249 q 229 -274 260 -264 q 167 -283 199 -283 z "},"Ĩ":{"ha":390,"x_min":-44,"x_max":438,"o":"m 131 986 l 260 986 l 260 0 l 131 0 l 131 986 m -40 1117 q 11 1213 -29 1176 q 107 1249 51 1249 q 159 1239 133 1249 q 207 1218 185 1229 q 249 1197 229 1207 q 286 1188 269 1188 q 346 1249 332 1188 l 438 1249 l 432 1222 q 381 1128 421 1164 q 285 1092 342 1092 q 232 1101 257 1092 q 185 1122 207 1111 q 143 1143 163 1133 q 107 1153 124 1153 q 46 1092 63 1153 l -44 1092 l -40 1117 z "},"Ị":{"ha":390,"x_min":110,"x_max":281,"o":"m 131 986 l 260 986 l 260 0 l 131 0 l 131 986 m 196 -272 q 135 -248 160 -272 q 110 -187 110 -224 q 135 -128 110 -153 q 196 -103 160 -103 q 256 -128 232 -103 q 281 -187 281 -153 q 256 -248 281 -224 q 196 -272 232 -272 z "},"Ĵ":{"ha":651,"x_min":8,"x_max":707,"o":"m 258 -17 q 108 15 171 -17 q 8 92 46 47 l 93 182 q 161 125 124 147 q 256 103 199 103 q 362 142 322 103 q 401 275 401 181 l 401 986 l 531 986 l 531 269 q 510 142 531 196 q 452 52 489 88 q 366 0 415 17 q 258 -17 317 -17 m 401 1257 l 531 1257 l 707 1067 l 578 1067 l 465 1182 l 354 1067 l 225 1067 l 401 1257 z "},"Ķ":{"ha":932,"x_min":131,"x_max":964,"o":"m 258 469 l 258 0 l 131 0 l 131 986 l 258 986 l 258 558 l 689 986 l 857 986 l 388 517 l 964 0 l 782 0 l 258 469 m 485 -265 q 447 -235 461 -256 q 433 -187 433 -214 q 458 -128 433 -153 q 519 -103 483 -103 q 580 -128 556 -103 q 604 -187 604 -153 q 599 -216 604 -203 q 586 -240 593 -229 q 573 -262 583 -244 q 549 -301 563 -279 q 522 -344 535 -322 q 500 -378 508 -365 l 438 -378 l 485 -265 z "},"Ĺ":{"ha":761,"x_min":131,"x_max":736,"o":"m 131 986 l 260 986 l 260 122 l 736 122 l 736 0 l 131 0 l 131 986 m 257 1257 l 408 1257 l 249 1067 l 149 1067 l 257 1257 z "},"Ľ":{"ha":761,"x_min":131,"x_max":736,"o":"m 131 986 l 260 986 l 260 122 l 736 122 l 736 0 l 131 0 l 131 986 m 432 1014 l 551 1014 l 482 785 l 399 785 l 432 1014 z "},"Ļ":{"ha":761,"x_min":131,"x_max":736,"o":"m 131 986 l 260 986 l 260 122 l 736 122 l 736 0 l 131 0 l 131 986 m 390 -265 q 353 -235 367 -256 q 339 -187 339 -214 q 364 -128 339 -153 q 425 -103 389 -103 q 485 -128 461 -103 q 510 -187 510 -153 q 504 -216 510 -203 q 492 -240 499 -229 q 478 -262 489 -244 q 454 -301 468 -279 q 427 -344 440 -322 q 406 -378 414 -365 l 343 -378 l 390 -265 z "},"Ŀ":{"ha":768,"x_min":131,"x_max":736,"o":"m 131 986 l 260 986 l 260 122 l 736 122 l 736 0 l 131 0 l 131 986 m 579 458 q 518 483 543 458 q 493 543 493 507 q 518 603 493 578 q 579 628 543 628 q 640 603 615 628 q 664 543 664 578 q 640 483 664 507 q 579 458 615 458 z "},"Ł":{"ha":788,"x_min":56,"x_max":763,"o":"m 157 986 l 286 986 l 286 122 l 763 122 l 763 0 l 157 0 l 157 986 m 56 296 l 56 413 l 507 704 l 507 588 l 56 296 z "},"Ń":{"ha":1103,"x_min":131,"x_max":971,"o":"m 860 0 l 260 768 l 260 0 l 131 0 l 131 986 l 243 986 l 843 218 l 843 986 l 971 986 l 971 0 l 860 0 m 607 1257 l 758 1257 l 599 1067 l 499 1067 l 607 1257 z "},"Ň":{"ha":1103,"x_min":131,"x_max":971,"o":"m 860 0 l 260 768 l 260 0 l 131 0 l 131 986 l 243 986 l 843 218 l 843 986 l 971 986 l 971 0 l 860 0 m 306 1257 l 435 1257 l 546 1140 l 658 1257 l 788 1257 l 611 1067 l 482 1067 l 306 1257 z "},"Ņ":{"ha":1103,"x_min":131,"x_max":971,"o":"m 860 0 l 260 768 l 260 0 l 131 0 l 131 986 l 243 986 l 843 218 l 843 986 l 971 986 l 971 0 l 860 0 m 521 -265 q 483 -235 497 -256 q 469 -187 469 -214 q 494 -128 469 -153 q 556 -103 519 -103 q 616 -128 592 -103 q 640 -187 640 -153 q 635 -216 640 -203 q 622 -240 629 -229 q 609 -262 619 -244 q 585 -301 599 -279 q 558 -344 571 -322 q 536 -378 544 -365 l 474 -378 l 521 -265 z "},"Œ":{"ha":1596,"x_min":63,"x_max":1528,"o":"m 572 106 q 723 135 653 106 q 844 218 793 165 q 924 341 894 271 q 953 493 953 411 q 924 644 953 574 q 844 768 894 715 q 723 851 793 821 q 572 881 653 881 q 422 851 492 881 q 302 768 353 821 q 222 644 251 715 q 193 493 193 574 q 222 341 193 411 q 302 218 251 271 q 422 135 353 165 q 572 106 492 106 m 953 164 q 790 31 886 78 q 572 -17 693 -17 q 373 23 465 -17 q 211 131 281 63 q 102 293 142 200 q 63 493 63 386 q 102 693 63 600 q 211 855 142 786 q 373 963 281 924 q 572 1003 465 1003 q 790 956 693 1003 q 953 822 886 908 l 953 986 l 1528 986 l 1528 864 l 1081 864 l 1081 565 l 1444 565 l 1444 443 l 1081 443 l 1081 122 l 1528 122 l 1528 0 l 953 0 l 953 164 z "},"Ŏ":{"ha":1146,"x_min":63,"x_max":1082,"o":"m 572 106 q 723 135 653 106 q 844 218 793 165 q 924 341 894 271 q 953 493 953 411 q 924 644 953 574 q 844 768 894 715 q 723 851 793 821 q 572 881 653 881 q 422 851 492 881 q 302 768 353 821 q 222 644 251 715 q 193 493 193 574 q 222 341 193 411 q 302 218 251 271 q 422 135 353 165 q 572 106 492 106 m 572 -17 q 373 23 465 -17 q 211 131 281 63 q 102 293 142 200 q 63 493 63 386 q 102 693 63 600 q 211 855 142 786 q 373 963 281 924 q 572 1003 465 1003 q 772 963 679 1003 q 934 855 865 924 q 1042 693 1003 786 q 1082 493 1082 600 q 1042 293 1082 386 q 934 131 1003 200 q 772 23 865 63 q 572 -17 679 -17 m 572 1054 q 486 1069 526 1054 q 416 1113 446 1085 q 369 1183 386 1142 q 351 1274 351 1224 l 432 1274 q 473 1169 432 1206 q 572 1133 514 1133 q 672 1169 631 1133 q 713 1274 713 1206 l 793 1274 q 776 1183 793 1224 q 728 1113 758 1142 q 658 1069 699 1085 q 572 1054 618 1054 z "},"Ő":{"ha":1146,"x_min":63,"x_max":1082,"o":"m 572 106 q 723 135 653 106 q 844 218 793 165 q 924 341 894 271 q 953 493 953 411 q 924 644 953 574 q 844 768 894 715 q 723 851 793 821 q 572 881 653 881 q 422 851 492 881 q 302 768 353 821 q 222 644 251 715 q 193 493 193 574 q 222 341 193 411 q 302 218 251 271 q 422 135 353 165 q 572 106 492 106 m 572 -17 q 373 23 465 -17 q 211 131 281 63 q 102 293 142 200 q 63 493 63 386 q 102 693 63 600 q 211 855 142 786 q 373 963 281 924 q 572 1003 465 1003 q 772 963 679 1003 q 934 855 865 924 q 1042 693 1003 786 q 1082 493 1082 600 q 1042 293 1082 386 q 934 131 1003 200 q 772 23 865 63 q 572 -17 679 -17 m 500 1257 l 638 1257 l 511 1067 l 424 1067 l 500 1257 m 732 1257 l 871 1257 l 743 1067 l 657 1067 l 732 1257 z "},"Ō":{"ha":1146,"x_min":63,"x_max":1082,"o":"m 572 106 q 723 135 653 106 q 844 218 793 165 q 924 341 894 271 q 953 493 953 411 q 924 644 953 574 q 844 768 894 715 q 723 851 793 821 q 572 881 653 881 q 422 851 492 881 q 302 768 353 821 q 222 644 251 715 q 193 493 193 574 q 222 341 193 411 q 302 218 251 271 q 422 135 353 165 q 572 106 492 106 m 572 -17 q 373 23 465 -17 q 211 131 281 63 q 102 293 142 200 q 63 493 63 386 q 102 693 63 600 q 211 855 142 786 q 373 963 281 924 q 572 1003 465 1003 q 772 963 679 1003 q 934 855 865 924 q 1042 693 1003 786 q 1082 493 1082 600 q 1042 293 1082 386 q 934 131 1003 200 q 772 23 865 63 q 572 -17 679 -17 m 349 1214 l 796 1214 l 796 1118 l 349 1118 l 349 1214 z "},"Ọ":{"ha":1146,"x_min":63,"x_max":1082,"o":"m 572 106 q 723 135 653 106 q 844 218 793 165 q 924 341 894 271 q 953 493 953 411 q 924 644 953 574 q 844 768 894 715 q 723 851 793 821 q 572 881 653 881 q 422 851 492 881 q 302 768 353 821 q 222 644 251 715 q 193 493 193 574 q 222 341 193 411 q 302 218 251 271 q 422 135 353 165 q 572 106 492 106 m 572 -17 q 373 23 465 -17 q 211 131 281 63 q 102 293 142 200 q 63 493 63 386 q 102 693 63 600 q 211 855 142 786 q 373 963 281 924 q 572 1003 465 1003 q 772 963 679 1003 q 934 855 865 924 q 1042 693 1003 786 q 1082 493 1082 600 q 1042 293 1082 386 q 934 131 1003 200 q 772 23 865 63 q 572 -17 679 -17 m 572 -272 q 511 -248 536 -272 q 486 -187 486 -224 q 511 -128 486 -153 q 572 -103 536 -103 q 633 -128 608 -103 q 657 -187 657 -153 q 633 -248 657 -224 q 572 -272 608 -272 z "},"Ŕ":{"ha":882,"x_min":131,"x_max":897,"o":"m 131 986 l 467 986 q 590 967 535 986 q 683 911 644 947 q 741 825 721 875 q 761 714 761 775 q 697 536 761 606 q 517 450 632 467 l 897 0 l 735 0 l 356 449 l 260 449 l 260 0 l 131 0 l 131 986 m 451 564 q 584 601 536 564 q 632 714 632 639 q 584 828 632 789 q 451 867 536 867 l 260 867 l 260 564 l 451 564 m 478 1257 l 629 1257 l 469 1067 l 369 1067 l 478 1257 z "},"Ř":{"ha":882,"x_min":131,"x_max":897,"o":"m 131 986 l 467 986 q 590 967 535 986 q 683 911 644 947 q 741 825 721 875 q 761 714 761 775 q 697 536 761 606 q 517 450 632 467 l 897 0 l 735 0 l 356 449 l 260 449 l 260 0 l 131 0 l 131 986 m 451 564 q 584 601 536 564 q 632 714 632 639 q 584 828 632 789 q 451 867 536 867 l 260 867 l 260 564 l 451 564 m 175 1257 l 304 1257 l 415 1140 l 528 1257 l 657 1257 l 481 1067 l 351 1067 l 175 1257 z "},"Ŗ":{"ha":882,"x_min":131,"x_max":897,"o":"m 131 986 l 467 986 q 590 967 535 986 q 683 911 644 947 q 741 825 721 875 q 761 714 761 775 q 697 536 761 606 q 517 450 632 467 l 897 0 l 735 0 l 356 449 l 260 449 l 260 0 l 131 0 l 131 986 m 451 564 q 584 601 536 564 q 632 714 632 639 q 584 828 632 789 q 451 867 536 867 l 260 867 l 260 564 l 451 564 m 463 -265 q 425 -235 439 -256 q 411 -187 411 -214 q 436 -128 411 -153 q 497 -103 461 -103 q 558 -128 533 -103 q 582 -187 582 -153 q 576 -216 582 -203 q 564 -240 571 -229 q 551 -262 561 -244 q 526 -301 540 -279 q 499 -344 513 -322 q 478 -378 486 -365 l 415 -378 l 463 -265 z "},"Ś":{"ha":769,"x_min":50,"x_max":710,"o":"m 394 -17 q 279 -3 333 -17 q 181 34 225 10 q 102 91 136 58 q 50 161 68 124 l 153 239 q 253 140 193 176 q 397 104 314 104 q 469 115 436 104 q 528 144 503 125 q 567 190 553 163 q 581 251 581 217 q 544 351 581 311 q 439 418 508 392 l 308 468 q 138 575 192 511 q 83 740 83 639 q 107 849 83 800 q 172 932 131 897 q 270 985 214 967 q 393 1003 326 1003 q 560 965 486 1003 q 679 868 635 928 l 586 785 q 501 856 547 829 q 390 882 454 882 q 322 872 354 882 q 265 844 289 863 q 226 801 240 826 q 213 746 213 776 q 249 649 213 683 q 361 588 285 615 l 479 542 q 650 433 590 500 q 710 257 710 367 q 686 144 710 194 q 621 58 663 93 q 522 3 579 22 q 394 -17 464 -17 m 456 1257 l 607 1257 l 447 1067 l 347 1067 l 456 1257 z "},"Š":{"ha":769,"x_min":50,"x_max":710,"o":"m 394 -17 q 279 -3 333 -17 q 181 34 225 10 q 102 91 136 58 q 50 161 68 124 l 153 239 q 253 140 193 176 q 397 104 314 104 q 469 115 436 104 q 528 144 503 125 q 567 190 553 163 q 581 251 581 217 q 544 351 581 311 q 439 418 508 392 l 308 468 q 138 575 192 511 q 83 740 83 639 q 107 849 83 800 q 172 932 131 897 q 270 985 214 967 q 393 1003 326 1003 q 560 965 486 1003 q 679 868 635 928 l 586 785 q 501 856 547 829 q 390 882 454 882 q 322 872 354 882 q 265 844 289 863 q 226 801 240 826 q 213 746 213 776 q 249 649 213 683 q 361 588 285 615 l 479 542 q 650 433 590 500 q 710 257 710 367 q 686 144 710 194 q 621 58 663 93 q 522 3 579 22 q 394 -17 464 -17 m 153 1257 l 282 1257 l 393 1140 l 506 1257 l 635 1257 l 458 1067 l 329 1067 l 153 1257 z "},"Ş":{"ha":769,"x_min":50,"x_max":710,"o":"m 394 -17 q 279 -3 333 -17 q 181 34 225 10 q 102 91 136 58 q 50 161 68 124 l 153 239 q 253 140 193 176 q 397 104 314 104 q 469 115 436 104 q 528 144 503 125 q 567 190 553 163 q 581 251 581 217 q 544 351 581 311 q 439 418 508 392 l 308 468 q 138 575 192 511 q 83 740 83 639 q 107 849 83 800 q 172 932 131 897 q 270 985 214 967 q 393 1003 326 1003 q 560 965 486 1003 q 679 868 635 928 l 586 785 q 501 856 547 829 q 390 882 454 882 q 322 872 354 882 q 265 844 289 863 q 226 801 240 826 q 213 746 213 776 q 249 649 213 683 q 361 588 285 615 l 479 542 q 650 433 590 500 q 710 257 710 367 q 686 144 710 194 q 621 58 663 93 q 522 3 579 22 q 394 -17 464 -17 m 269 -190 q 364 -210 315 -210 q 417 -200 392 -210 q 443 -164 443 -190 q 428 -135 443 -144 q 389 -126 413 -126 q 354 -130 369 -126 q 325 -139 339 -133 l 283 -108 l 350 4 l 426 4 l 382 -68 q 435 -58 404 -58 q 510 -85 479 -58 q 540 -158 540 -111 q 492 -251 540 -219 q 371 -283 444 -283 q 309 -278 340 -283 q 250 -260 278 -272 l 269 -190 z "},"Ŝ":{"ha":769,"x_min":50,"x_max":710,"o":"m 394 -17 q 279 -3 333 -17 q 181 34 225 10 q 102 91 136 58 q 50 161 68 124 l 153 239 q 253 140 193 176 q 397 104 314 104 q 469 115 436 104 q 528 144 503 125 q 567 190 553 163 q 581 251 581 217 q 544 351 581 311 q 439 418 508 392 l 308 468 q 138 575 192 511 q 83 740 83 639 q 107 849 83 800 q 172 932 131 897 q 270 985 214 967 q 393 1003 326 1003 q 560 965 486 1003 q 679 868 635 928 l 586 785 q 501 856 547 829 q 390 882 454 882 q 322 872 354 882 q 265 844 289 863 q 226 801 240 826 q 213 746 213 776 q 249 649 213 683 q 361 588 285 615 l 479 542 q 650 433 590 500 q 710 257 710 367 q 686 144 710 194 q 621 58 663 93 q 522 3 579 22 q 394 -17 464 -17 m 329 1257 l 458 1257 l 635 1067 l 506 1067 l 393 1182 l 282 1067 l 153 1067 l 329 1257 z "},"Ș":{"ha":769,"x_min":50,"x_max":710,"o":"m 394 -17 q 279 -3 333 -17 q 181 34 225 10 q 102 91 136 58 q 50 161 68 124 l 153 239 q 253 140 193 176 q 397 104 314 104 q 469 115 436 104 q 528 144 503 125 q 567 190 553 163 q 581 251 581 217 q 544 351 581 311 q 439 418 508 392 l 308 468 q 138 575 192 511 q 83 740 83 639 q 107 849 83 800 q 172 932 131 897 q 270 985 214 967 q 393 1003 326 1003 q 560 965 486 1003 q 679 868 635 928 l 586 785 q 501 856 547 829 q 390 882 454 882 q 322 872 354 882 q 265 844 289 863 q 226 801 240 826 q 213 746 213 776 q 249 649 213 683 q 361 588 285 615 l 479 542 q 650 433 590 500 q 710 257 710 367 q 686 144 710 194 q 621 58 663 93 q 522 3 579 22 q 394 -17 464 -17 m 360 -265 q 322 -235 336 -256 q 308 -187 308 -214 q 333 -128 308 -153 q 394 -103 358 -103 q 455 -128 431 -103 q 479 -187 479 -153 q 474 -216 479 -203 q 461 -240 468 -229 q 448 -262 458 -244 q 424 -301 438 -279 q 397 -344 410 -322 q 375 -378 383 -365 l 313 -378 l 360 -265 z "},"Ť":{"ha":788,"x_min":24,"x_max":764,"o":"m 331 864 l 24 864 l 24 986 l 764 986 l 764 864 l 457 864 l 457 0 l 331 0 l 331 864 m 153 1257 l 282 1257 l 393 1140 l 506 1257 l 635 1257 l 458 1067 l 329 1067 l 153 1257 z "},"Ţ":{"ha":788,"x_min":24,"x_max":764,"o":"m 331 864 l 24 864 l 24 986 l 764 986 l 764 864 l 457 864 l 457 0 l 331 0 l 331 864 m 358 -265 q 321 -235 335 -256 q 307 -187 307 -214 q 332 -128 307 -153 q 393 -103 357 -103 q 453 -128 429 -103 q 478 -187 478 -153 q 472 -216 478 -203 q 460 -240 467 -229 q 447 -262 457 -244 q 422 -301 436 -279 q 395 -344 408 -322 q 374 -378 382 -365 l 311 -378 l 358 -265 z "},"Ț":{"ha":788,"x_min":24,"x_max":764,"o":"m 331 864 l 24 864 l 24 986 l 764 986 l 764 864 l 457 864 l 457 0 l 331 0 l 331 864 m 358 -265 q 321 -235 335 -256 q 307 -187 307 -214 q 332 -128 307 -153 q 393 -103 357 -103 q 453 -128 429 -103 q 478 -187 478 -153 q 472 -216 478 -203 q 460 -240 467 -229 q 447 -262 457 -244 q 422 -301 436 -279 q 395 -344 408 -322 q 374 -378 382 -365 l 311 -378 l 358 -265 z "},"Ŭ":{"ha":1008,"x_min":118,"x_max":890,"o":"m 504 -17 q 347 11 418 -17 q 226 91 276 39 q 147 217 175 143 q 118 383 118 292 l 118 986 l 247 986 l 247 381 q 317 176 247 247 q 504 106 388 106 q 691 176 621 106 q 761 381 761 247 l 761 986 l 890 986 l 890 383 q 862 217 890 292 q 783 91 833 143 q 660 11 732 39 q 504 -17 589 -17 m 504 1054 q 418 1069 458 1054 q 348 1113 378 1085 q 301 1183 318 1142 q 283 1274 283 1224 l 364 1274 q 405 1169 364 1206 q 504 1133 446 1133 q 603 1169 563 1133 q 644 1274 644 1206 l 725 1274 q 708 1183 725 1224 q 660 1113 690 1142 q 590 1069 631 1085 q 504 1054 550 1054 z "},"Ű":{"ha":1008,"x_min":118,"x_max":890,"o":"m 504 -17 q 347 11 418 -17 q 226 91 276 39 q 147 217 175 143 q 118 383 118 292 l 118 986 l 247 986 l 247 381 q 317 176 247 247 q 504 106 388 106 q 691 176 621 106 q 761 381 761 247 l 761 986 l 890 986 l 890 383 q 862 217 890 292 q 783 91 833 143 q 660 11 732 39 q 504 -17 589 -17 m 431 1257 l 568 1257 l 442 1067 l 354 1067 l 431 1257 m 663 1257 l 801 1257 l 674 1067 l 588 1067 l 663 1257 z "},"Ū":{"ha":1008,"x_min":118,"x_max":890,"o":"m 504 -17 q 347 11 418 -17 q 226 91 276 39 q 147 217 175 143 q 118 383 118 292 l 118 986 l 247 986 l 247 381 q 317 176 247 247 q 504 106 388 106 q 691 176 621 106 q 761 381 761 247 l 761 986 l 890 986 l 890 383 q 862 217 890 292 q 783 91 833 143 q 660 11 732 39 q 504 -17 589 -17 m 281 1214 l 728 1214 l 728 1118 l 281 1118 l 281 1214 z "},"Ų":{"ha":1008,"x_min":118,"x_max":890,"o":"m 585 -283 q 489 -253 529 -283 q 449 -169 449 -222 q 542 -14 449 -85 q 522 -16 531 -15 q 507 -17 514 -17 q 348 11 419 -17 q 225 91 276 39 q 146 217 174 143 q 118 383 118 292 l 118 986 l 247 986 l 247 381 q 317 176 247 247 q 504 106 388 106 q 691 176 621 106 q 761 381 761 247 l 761 986 l 890 986 l 890 383 q 856 201 890 281 q 760 69 822 122 q 694 15 728 42 q 631 -39 660 -12 q 584 -90 603 -65 q 565 -139 565 -115 q 578 -171 565 -161 q 610 -181 592 -181 q 635 -178 622 -181 q 658 -168 647 -175 l 700 -249 q 647 -274 678 -264 q 585 -283 617 -283 z "},"Ů":{"ha":1008,"x_min":118,"x_max":890,"o":"m 504 -17 q 347 11 418 -17 q 226 91 276 39 q 147 217 175 143 q 118 383 118 292 l 118 986 l 247 986 l 247 381 q 317 176 247 247 q 504 106 388 106 q 691 176 621 106 q 761 381 761 247 l 761 986 l 890 986 l 890 383 q 862 217 890 292 q 783 91 833 143 q 660 11 732 39 q 504 -17 589 -17 m 504 1088 q 443 1112 468 1088 q 418 1172 418 1136 q 443 1232 418 1207 q 504 1257 468 1257 q 565 1232 540 1257 q 589 1172 589 1207 q 565 1112 589 1136 q 504 1088 540 1088 z "},"Ũ":{"ha":1008,"x_min":118,"x_max":890,"o":"m 504 -17 q 347 11 418 -17 q 226 91 276 39 q 147 217 175 143 q 118 383 118 292 l 118 986 l 247 986 l 247 381 q 317 176 247 247 q 504 106 388 106 q 691 176 621 106 q 761 381 761 247 l 761 986 l 890 986 l 890 383 q 862 217 890 292 q 783 91 833 143 q 660 11 732 39 q 504 -17 589 -17 m 268 1117 q 319 1213 279 1176 q 415 1249 360 1249 q 467 1239 442 1249 q 515 1218 493 1229 q 558 1197 538 1207 q 594 1188 578 1188 q 654 1249 640 1188 l 746 1249 l 740 1222 q 690 1128 729 1164 q 593 1092 650 1092 q 540 1101 565 1092 q 493 1122 515 1111 q 451 1143 471 1133 q 415 1153 432 1153 q 354 1092 371 1153 l 264 1092 l 268 1117 z "},"Ụ":{"ha":1008,"x_min":118,"x_max":890,"o":"m 504 -17 q 347 11 418 -17 q 226 91 276 39 q 147 217 175 143 q 118 383 118 292 l 118 986 l 247 986 l 247 381 q 317 176 247 247 q 504 106 388 106 q 691 176 621 106 q 761 381 761 247 l 761 986 l 890 986 l 890 383 q 862 217 890 292 q 783 91 833 143 q 660 11 732 39 q 504 -17 589 -17 m 504 -272 q 443 -248 468 -272 q 418 -187 418 -224 q 443 -128 418 -153 q 504 -103 468 -103 q 565 -128 540 -103 q 589 -187 589 -153 q 565 -248 589 -224 q 504 -272 540 -272 z "},"Ẃ":{"ha":1389,"x_min":24,"x_max":1365,"o":"m 24 986 l 158 986 l 393 226 l 638 986 l 749 986 l 994 226 l 1228 986 l 1365 986 l 1057 0 l 944 0 l 694 775 l 444 0 l 331 0 l 24 986 m 757 1257 l 908 1257 l 749 1067 l 649 1067 l 757 1257 z "},"Ŵ":{"ha":1389,"x_min":24,"x_max":1365,"o":"m 24 986 l 158 986 l 393 226 l 638 986 l 749 986 l 994 226 l 1228 986 l 1365 986 l 1057 0 l 944 0 l 694 775 l 444 0 l 331 0 l 24 986 m 631 1257 l 760 1257 l 936 1067 l 807 1067 l 694 1182 l 583 1067 l 454 1067 l 631 1257 z "},"Ẅ":{"ha":1389,"x_min":24,"x_max":1365,"o":"m 24 986 l 158 986 l 393 226 l 638 986 l 749 986 l 994 226 l 1228 986 l 1365 986 l 1057 0 l 944 0 l 694 775 l 444 0 l 331 0 l 24 986 m 858 1088 q 797 1112 822 1088 q 772 1172 772 1136 q 797 1232 772 1207 q 858 1257 822 1257 q 919 1232 894 1257 q 943 1172 943 1207 q 919 1112 943 1136 q 858 1088 894 1088 m 532 1088 q 470 1112 496 1088 q 444 1172 444 1136 q 469 1232 444 1207 q 531 1257 494 1257 q 592 1232 567 1257 q 617 1172 617 1207 q 592 1112 617 1136 q 532 1088 568 1088 z "},"Ẁ":{"ha":1389,"x_min":24,"x_max":1365,"o":"m 24 986 l 158 986 l 393 226 l 638 986 l 749 986 l 994 226 l 1228 986 l 1365 986 l 1057 0 l 944 0 l 694 775 l 444 0 l 331 0 l 24 986 m 640 1067 l 481 1257 l 632 1257 l 740 1067 l 640 1067 z "},"Ŷ":{"ha":936,"x_min":21,"x_max":917,"o":"m 404 418 l 21 986 l 175 986 l 468 547 l 763 986 l 917 986 l 532 417 l 532 0 l 404 0 l 404 418 m 404 1257 l 533 1257 l 710 1067 l 581 1067 l 468 1182 l 357 1067 l 228 1067 l 404 1257 z "},"Ÿ":{"ha":936,"x_min":21,"x_max":917,"o":"m 404 418 l 21 986 l 175 986 l 468 547 l 763 986 l 917 986 l 532 417 l 532 0 l 404 0 l 404 418 m 632 1088 q 571 1112 596 1088 q 546 1172 546 1136 q 571 1232 546 1207 q 632 1257 596 1257 q 692 1232 668 1257 q 717 1172 717 1207 q 692 1112 717 1136 q 632 1088 668 1088 m 306 1088 q 244 1112 269 1088 q 218 1172 218 1136 q 243 1232 218 1207 q 304 1257 268 1257 q 365 1232 340 1257 q 390 1172 390 1207 q 366 1112 390 1136 q 306 1088 342 1088 z "},"Ỳ":{"ha":936,"x_min":21,"x_max":917,"o":"m 404 418 l 21 986 l 175 986 l 468 547 l 763 986 l 917 986 l 532 417 l 532 0 l 404 0 l 404 418 m 414 1067 l 254 1257 l 406 1257 l 514 1067 l 414 1067 z "},"Ȳ":{"ha":936,"x_min":21,"x_max":917,"o":"m 404 418 l 21 986 l 175 986 l 468 547 l 763 986 l 917 986 l 532 417 l 532 0 l 404 0 l 404 418 m 244 1214 l 692 1214 l 692 1118 l 244 1118 l 244 1214 z "},"Ź":{"ha":815,"x_min":47,"x_max":767,"o":"m 47 86 l 582 864 l 63 864 l 63 986 l 753 986 l 753 900 l 218 122 l 767 122 l 767 0 l 47 0 l 47 86 m 479 1257 l 631 1257 l 471 1067 l 371 1067 l 479 1257 z "},"Ž":{"ha":815,"x_min":47,"x_max":767,"o":"m 47 86 l 582 864 l 63 864 l 63 986 l 753 986 l 753 900 l 218 122 l 767 122 l 767 0 l 47 0 l 47 86 m 178 1257 l 307 1257 l 418 1140 l 531 1257 l 660 1257 l 483 1067 l 354 1067 l 178 1257 z "},"Ż":{"ha":815,"x_min":47,"x_max":767,"o":"m 47 86 l 582 864 l 63 864 l 63 986 l 753 986 l 753 900 l 218 122 l 767 122 l 767 0 l 47 0 l 47 86 m 418 1088 q 357 1112 382 1088 q 332 1172 332 1136 q 357 1232 332 1207 q 418 1257 382 1257 q 478 1232 454 1257 q 503 1172 503 1207 q 478 1112 503 1136 q 418 1088 454 1088 z "},"ă":{"ha":867,"x_min":58,"x_max":754,"o":"m 408 -14 q 266 15 331 -14 q 156 92 201 43 q 84 208 110 142 q 58 347 58 274 q 84 487 58 421 q 156 602 110 553 q 266 680 201 651 q 408 708 331 708 q 535 685 476 708 q 635 618 593 663 l 635 694 l 754 694 l 754 0 l 635 0 l 635 76 q 535 9 593 32 q 408 -14 476 -14 m 418 96 q 550 129 496 96 q 635 211 604 163 l 635 485 q 550 566 604 533 q 418 599 496 599 q 322 579 365 599 q 248 525 279 560 q 199 444 217 490 q 182 347 182 399 q 199 249 182 294 q 248 169 217 204 q 322 115 279 135 q 418 96 365 96 m 463 779 q 376 794 417 779 q 306 838 336 810 q 259 908 276 867 q 242 1000 242 949 l 242 1014 l 322 1014 l 322 1000 q 363 894 322 931 q 463 858 404 858 q 562 894 521 858 q 603 1000 603 931 l 603 1014 l 683 1014 l 683 1000 q 666 908 683 949 q 619 838 649 867 q 549 794 589 810 q 463 779 508 779 z "},"ā":{"ha":867,"x_min":58,"x_max":754,"o":"m 408 -14 q 266 15 331 -14 q 156 92 201 43 q 84 208 110 142 q 58 347 58 274 q 84 487 58 421 q 156 602 110 553 q 266 680 201 651 q 408 708 331 708 q 535 685 476 708 q 635 618 593 663 l 635 694 l 754 694 l 754 0 l 635 0 l 635 76 q 535 9 593 32 q 408 -14 476 -14 m 418 96 q 550 129 496 96 q 635 211 604 163 l 635 485 q 550 566 604 533 q 418 599 496 599 q 322 579 365 599 q 248 525 279 560 q 199 444 217 490 q 182 347 182 399 q 199 249 182 294 q 248 169 217 204 q 322 115 279 135 q 418 96 365 96 m 239 986 l 686 986 l 686 890 l 239 890 l 239 986 z "},"ą":{"ha":867,"x_min":58,"x_max":775,"o":"m 408 -14 q 266 15 331 -14 q 156 92 201 43 q 84 208 110 142 q 58 347 58 274 q 84 487 58 421 q 156 602 110 553 q 266 680 201 651 q 408 708 331 708 q 535 685 476 708 q 635 618 593 663 l 635 694 l 754 694 l 754 0 l 635 0 l 635 76 q 535 9 593 32 q 408 -14 476 -14 m 418 96 q 550 129 496 96 q 635 211 604 163 l 635 485 q 550 566 604 533 q 418 599 496 599 q 322 579 365 599 q 248 525 279 560 q 199 444 217 490 q 182 347 182 399 q 199 249 182 294 q 248 169 217 204 q 322 115 279 135 q 418 96 365 96 m 663 -283 q 567 -250 601 -283 q 532 -164 532 -217 q 563 -72 532 -111 q 635 0 594 -32 l 754 0 q 638 -140 638 -74 q 653 -176 638 -164 q 688 -187 668 -187 q 713 -185 700 -187 q 738 -175 725 -182 l 775 -249 q 724 -274 754 -264 q 663 -283 694 -283 z "},"ć":{"ha":785,"x_min":58,"x_max":743,"o":"m 422 -14 q 276 14 343 -14 q 161 91 210 42 q 85 206 113 140 q 58 347 58 272 q 85 488 58 422 q 161 603 113 554 q 276 681 210 653 q 422 708 343 708 q 614 657 531 708 q 743 522 697 606 l 639 464 q 553 560 610 524 q 422 597 497 597 q 324 578 368 597 q 247 524 279 558 q 197 444 214 490 q 179 347 179 399 q 197 249 179 294 q 247 170 214 204 q 324 117 279 136 q 422 97 368 97 q 553 134 497 97 q 639 231 610 171 l 743 172 q 614 38 697 89 q 422 -14 531 -14 m 493 1014 l 644 1014 l 471 797 l 371 797 l 493 1014 z "},"č":{"ha":785,"x_min":58,"x_max":743,"o":"m 422 -14 q 276 14 343 -14 q 161 91 210 42 q 85 206 113 140 q 58 347 58 272 q 85 488 58 422 q 161 603 113 554 q 276 681 210 653 q 422 708 343 708 q 614 657 531 708 q 743 522 697 606 l 639 464 q 553 560 610 524 q 422 597 497 597 q 324 578 368 597 q 247 524 279 558 q 197 444 214 490 q 179 347 179 399 q 197 249 179 294 q 247 170 214 204 q 324 117 279 136 q 422 97 368 97 q 553 134 497 97 q 639 231 610 171 l 743 172 q 614 38 697 89 q 422 -14 531 -14 m 310 1014 l 422 882 l 535 1014 l 660 1014 l 483 803 l 361 803 l 185 1014 l 310 1014 z "},"ĉ":{"ha":785,"x_min":58,"x_max":743,"o":"m 422 -14 q 276 14 343 -14 q 161 91 210 42 q 85 206 113 140 q 58 347 58 272 q 85 488 58 422 q 161 603 113 554 q 276 681 210 653 q 422 708 343 708 q 614 657 531 708 q 743 522 697 606 l 639 464 q 553 560 610 524 q 422 597 497 597 q 324 578 368 597 q 247 524 279 558 q 197 444 214 490 q 179 347 179 399 q 197 249 179 294 q 247 170 214 204 q 324 117 279 136 q 422 97 368 97 q 553 134 497 97 q 639 231 610 171 l 743 172 q 614 38 697 89 q 422 -14 531 -14 m 361 1014 l 483 1014 l 660 803 l 535 803 l 422 933 l 310 803 l 185 803 l 361 1014 z "},"ċ":{"ha":785,"x_min":58,"x_max":743,"o":"m 422 -14 q 276 14 343 -14 q 161 91 210 42 q 85 206 113 140 q 58 347 58 272 q 85 488 58 422 q 161 603 113 554 q 276 681 210 653 q 422 708 343 708 q 614 657 531 708 q 743 522 697 606 l 639 464 q 553 560 610 524 q 422 597 497 597 q 324 578 368 597 q 247 524 279 558 q 197 444 214 490 q 179 347 179 399 q 197 249 179 294 q 247 170 214 204 q 324 117 279 136 q 422 97 368 97 q 553 134 497 97 q 639 231 610 171 l 743 172 q 614 38 697 89 q 422 -14 531 -14 m 422 832 q 361 856 386 832 q 336 917 336 881 q 361 976 336 951 q 422 1001 386 1001 q 483 976 458 1001 q 507 917 507 951 q 483 856 507 881 q 422 832 458 832 z "},"ď":{"ha":867,"x_min":58,"x_max":957,"o":"m 408 -14 q 266 15 331 -14 q 156 92 201 43 q 84 208 110 142 q 58 347 58 274 q 84 487 58 421 q 156 602 110 553 q 266 680 201 651 q 408 708 331 708 q 535 685 476 708 q 635 618 593 663 l 635 1014 l 754 1014 l 754 0 l 635 0 l 635 76 q 535 9 593 32 q 408 -14 476 -14 m 418 96 q 550 129 496 96 q 635 211 604 163 l 635 485 q 550 566 604 533 q 418 599 496 599 q 322 579 365 599 q 248 525 279 560 q 199 444 217 490 q 182 347 182 399 q 199 249 182 294 q 248 169 217 204 q 322 115 279 135 q 418 96 365 96 m 838 1014 l 957 1014 l 888 785 l 804 785 l 838 1014 z "},"đ":{"ha":867,"x_min":58,"x_max":863,"o":"m 408 -14 q 266 15 331 -14 q 156 92 201 43 q 84 208 110 142 q 58 347 58 274 q 84 487 58 421 q 156 602 110 553 q 266 680 201 651 q 408 708 331 708 q 535 685 476 708 q 635 618 593 663 l 635 1014 l 754 1014 l 754 0 l 635 0 l 635 76 q 535 9 593 32 q 408 -14 476 -14 m 418 96 q 550 129 496 96 q 635 211 604 163 l 635 485 q 550 566 604 533 q 418 599 496 599 q 322 579 365 599 q 248 525 279 560 q 199 444 217 490 q 182 347 182 399 q 199 249 182 294 q 248 169 217 204 q 322 115 279 135 q 418 96 365 96 m 414 801 l 414 896 l 863 896 l 863 801 l 414 801 z "},"ĕ":{"ha":807,"x_min":58,"x_max":750,"o":"m 418 -14 q 271 14 338 -14 q 157 90 204 42 q 84 205 110 139 q 58 347 58 271 q 85 490 58 424 q 159 604 111 556 q 274 681 207 653 q 419 708 340 708 q 547 685 488 708 q 652 617 607 663 q 724 508 697 572 q 750 360 750 443 q 750 342 750 350 q 749 324 750 335 l 179 324 q 199 233 181 275 q 249 161 218 192 q 324 113 281 131 q 419 96 368 96 q 552 128 500 96 q 636 217 604 161 l 731 151 q 605 31 683 75 q 418 -14 526 -14 m 628 421 q 602 497 621 464 q 555 554 583 531 q 490 590 526 578 q 415 603 454 603 q 339 590 376 603 q 271 555 301 578 q 218 498 240 532 q 188 421 196 464 l 628 421 m 421 779 q 335 794 375 779 q 265 838 294 810 q 217 908 235 867 q 200 1000 200 949 l 200 1014 l 281 1014 l 281 1000 q 322 894 281 931 q 421 858 363 858 q 520 894 479 858 q 561 1000 561 931 l 561 1014 l 642 1014 l 642 1000 q 624 908 642 949 q 577 838 607 867 q 507 794 547 810 q 421 779 467 779 z "},"ě":{"ha":807,"x_min":58,"x_max":750,"o":"m 418 -14 q 271 14 338 -14 q 157 90 204 42 q 84 205 110 139 q 58 347 58 271 q 85 490 58 424 q 159 604 111 556 q 274 681 207 653 q 419 708 340 708 q 547 685 488 708 q 652 617 607 663 q 724 508 697 572 q 750 360 750 443 q 750 342 750 350 q 749 324 750 335 l 179 324 q 199 233 181 275 q 249 161 218 192 q 324 113 281 131 q 419 96 368 96 q 552 128 500 96 q 636 217 604 161 l 731 151 q 605 31 683 75 q 418 -14 526 -14 m 628 421 q 602 497 621 464 q 555 554 583 531 q 490 590 526 578 q 415 603 454 603 q 339 590 376 603 q 271 555 301 578 q 218 498 240 532 q 188 421 196 464 l 628 421 m 308 1014 l 421 882 l 533 1014 l 658 1014 l 482 803 l 360 803 l 183 1014 l 308 1014 z "},"ē":{"ha":807,"x_min":58,"x_max":750,"o":"m 418 -14 q 271 14 338 -14 q 157 90 204 42 q 84 205 110 139 q 58 347 58 271 q 85 490 58 424 q 159 604 111 556 q 274 681 207 653 q 419 708 340 708 q 547 685 488 708 q 652 617 607 663 q 724 508 697 572 q 750 360 750 443 q 750 342 750 350 q 749 324 750 335 l 179 324 q 199 233 181 275 q 249 161 218 192 q 324 113 281 131 q 419 96 368 96 q 552 128 500 96 q 636 217 604 161 l 731 151 q 605 31 683 75 q 418 -14 526 -14 m 628 421 q 602 497 621 464 q 555 554 583 531 q 490 590 526 578 q 415 603 454 603 q 339 590 376 603 q 271 555 301 578 q 218 498 240 532 q 188 421 196 464 l 628 421 m 197 986 l 644 986 l 644 890 l 197 890 l 197 986 z "},"ę":{"ha":807,"x_min":58,"x_max":750,"o":"m 618 -283 q 523 -251 563 -283 q 483 -161 483 -219 q 491 -107 483 -132 q 511 -60 499 -82 q 538 -18 524 -37 q 564 17 551 1 q 494 -6 538 1 q 418 -14 451 -14 q 271 14 338 -14 q 157 90 204 42 q 84 205 110 139 q 58 347 58 271 q 85 490 58 424 q 159 604 111 556 q 274 681 207 653 q 419 708 340 708 q 547 685 488 708 q 652 617 607 663 q 724 508 697 572 q 750 360 750 443 q 750 342 750 350 q 749 324 750 335 l 179 324 q 199 233 181 275 q 249 161 218 192 q 324 113 281 131 q 419 96 368 96 q 552 128 500 96 q 636 217 604 161 l 731 151 q 684 82 708 119 q 639 7 660 44 q 605 -65 618 -31 q 592 -124 592 -99 q 610 -174 592 -160 q 654 -187 629 -187 q 678 -185 667 -187 q 701 -175 690 -182 l 740 -249 q 688 -274 718 -264 q 618 -283 658 -283 m 415 603 q 339 590 376 603 q 271 555 301 578 q 218 498 240 532 q 188 421 196 464 l 628 421 q 602 497 621 464 q 555 554 583 531 q 490 590 526 578 q 415 603 454 603 z "},"ė":{"ha":807,"x_min":58,"x_max":750,"o":"m 418 -14 q 271 14 338 -14 q 157 90 204 42 q 84 205 110 139 q 58 347 58 271 q 85 490 58 424 q 159 604 111 556 q 274 681 207 653 q 419 708 340 708 q 547 685 488 708 q 652 617 607 663 q 724 508 697 572 q 750 360 750 443 q 750 342 750 350 q 749 324 750 335 l 179 324 q 199 233 181 275 q 249 161 218 192 q 324 113 281 131 q 419 96 368 96 q 552 128 500 96 q 636 217 604 161 l 731 151 q 605 31 683 75 q 418 -14 526 -14 m 628 421 q 602 497 621 464 q 555 554 583 531 q 490 590 526 578 q 415 603 454 603 q 339 590 376 603 q 271 555 301 578 q 218 498 240 532 q 188 421 196 464 l 628 421 m 421 832 q 360 856 385 832 q 335 917 335 881 q 360 976 335 951 q 421 1001 385 1001 q 481 976 457 1001 q 506 917 506 951 q 481 856 506 881 q 421 832 457 832 z "},"ğ":{"ha":868,"x_min":58,"x_max":756,"o":"m 408 -283 q 221 -247 301 -283 q 96 -156 140 -211 l 178 -72 q 276 -148 219 -121 q 408 -175 333 -175 q 490 -162 450 -175 q 563 -123 531 -150 q 616 -54 596 -96 q 636 46 636 -12 l 636 99 q 535 30 594 53 q 410 7 476 7 q 269 35 333 7 q 157 110 204 63 q 84 221 110 157 q 58 358 58 285 q 85 494 58 431 q 158 606 111 558 q 269 681 204 654 q 410 708 333 708 q 535 685 476 708 q 636 618 594 663 l 636 694 l 756 694 l 756 42 q 728 -103 756 -42 q 652 -204 700 -164 q 542 -264 604 -244 q 408 -283 479 -283 m 419 118 q 551 151 497 118 q 636 232 606 183 l 636 485 q 551 566 606 533 q 419 599 497 599 q 324 580 368 599 q 249 529 281 561 q 199 453 217 497 q 182 358 182 408 q 200 263 182 307 q 249 187 218 219 q 324 136 281 154 q 419 118 368 118 m 449 779 q 363 794 403 779 q 292 838 322 810 q 245 908 263 867 q 228 1000 228 949 l 228 1014 l 308 1014 l 308 1000 q 349 894 308 931 q 449 858 390 858 q 548 894 507 858 q 589 1000 589 931 l 589 1014 l 669 1014 l 669 1000 q 652 908 669 949 q 605 838 635 867 q 535 794 575 810 q 449 779 494 779 z "},"ĝ":{"ha":868,"x_min":58,"x_max":756,"o":"m 408 -283 q 221 -247 301 -283 q 96 -156 140 -211 l 178 -72 q 276 -148 219 -121 q 408 -175 333 -175 q 490 -162 450 -175 q 563 -123 531 -150 q 616 -54 596 -96 q 636 46 636 -12 l 636 99 q 535 30 594 53 q 410 7 476 7 q 269 35 333 7 q 157 110 204 63 q 84 221 110 157 q 58 358 58 285 q 85 494 58 431 q 158 606 111 558 q 269 681 204 654 q 410 708 333 708 q 535 685 476 708 q 636 618 594 663 l 636 694 l 756 694 l 756 42 q 728 -103 756 -42 q 652 -204 700 -164 q 542 -264 604 -244 q 408 -283 479 -283 m 419 118 q 551 151 497 118 q 636 232 606 183 l 636 485 q 551 566 606 533 q 419 599 497 599 q 324 580 368 599 q 249 529 281 561 q 199 453 217 497 q 182 358 182 408 q 200 263 182 307 q 249 187 218 219 q 324 136 281 154 q 419 118 368 118 m 388 1014 l 510 1014 l 686 803 l 561 803 l 449 933 l 336 803 l 211 803 l 388 1014 z "},"ģ":{"ha":868,"x_min":58,"x_max":756,"o":"m 408 -283 q 221 -247 301 -283 q 96 -156 140 -211 l 178 -72 q 276 -148 219 -121 q 408 -175 333 -175 q 490 -162 450 -175 q 563 -123 531 -150 q 616 -54 596 -96 q 636 46 636 -12 l 636 99 q 535 30 594 53 q 410 7 476 7 q 269 35 333 7 q 157 110 204 63 q 84 221 110 157 q 58 358 58 285 q 85 494 58 431 q 158 606 111 558 q 269 681 204 654 q 410 708 333 708 q 535 685 476 708 q 636 618 594 663 l 636 694 l 756 694 l 756 42 q 728 -103 756 -42 q 652 -204 700 -164 q 542 -264 604 -244 q 408 -283 479 -283 m 419 118 q 551 151 497 118 q 636 232 606 183 l 636 485 q 551 566 606 533 q 419 599 497 599 q 324 580 368 599 q 249 529 281 561 q 199 453 217 497 q 182 358 182 408 q 200 263 182 307 q 249 187 218 219 q 324 136 281 154 q 419 118 368 118 m 482 994 q 519 964 506 985 q 533 917 533 943 q 508 857 533 882 q 447 832 483 832 q 387 857 411 832 q 363 917 363 882 q 368 945 363 932 q 381 969 374 958 q 394 991 383 974 q 418 1030 404 1008 q 445 1073 432 1051 q 467 1107 458 1094 l 529 1107 l 482 994 z "},"ġ":{"ha":868,"x_min":58,"x_max":756,"o":"m 408 -283 q 221 -247 301 -283 q 96 -156 140 -211 l 178 -72 q 276 -148 219 -121 q 408 -175 333 -175 q 490 -162 450 -175 q 563 -123 531 -150 q 616 -54 596 -96 q 636 46 636 -12 l 636 99 q 535 30 594 53 q 410 7 476 7 q 269 35 333 7 q 157 110 204 63 q 84 221 110 157 q 58 358 58 285 q 85 494 58 431 q 158 606 111 558 q 269 681 204 654 q 410 708 333 708 q 535 685 476 708 q 636 618 594 663 l 636 694 l 756 694 l 756 42 q 728 -103 756 -42 q 652 -204 700 -164 q 542 -264 604 -244 q 408 -283 479 -283 m 419 118 q 551 151 497 118 q 636 232 606 183 l 636 485 q 551 566 606 533 q 419 599 497 599 q 324 580 368 599 q 249 529 281 561 q 199 453 217 497 q 182 358 182 408 q 200 263 182 307 q 249 187 218 219 q 324 136 281 154 q 419 118 368 118 m 449 832 q 388 856 413 832 q 363 917 363 881 q 388 976 363 951 q 449 1001 413 1001 q 509 976 485 1001 q 533 917 533 951 q 509 856 533 881 q 449 832 485 832 z "},"ħ":{"ha":818,"x_min":15,"x_max":715,"o":"m 113 0 l 113 1014 l 232 1014 l 232 607 q 326 684 268 660 q 451 708 385 708 q 558 689 510 708 q 642 633 607 669 q 696 544 676 596 q 715 426 715 492 l 715 0 l 597 0 l 597 408 q 551 549 597 500 q 424 599 504 599 q 301 560 350 599 q 232 461 253 522 l 232 0 l 113 0 m 15 801 l 15 896 l 464 896 l 464 801 l 15 801 z "},"ĥ":{"ha":818,"x_min":113,"x_max":715,"o":"m 113 0 l 113 1014 l 232 1014 l 232 607 q 326 684 268 660 q 451 708 385 708 q 558 689 510 708 q 642 633 607 669 q 696 544 676 596 q 715 426 715 492 l 715 0 l 597 0 l 597 408 q 551 549 597 500 q 424 599 504 599 q 301 560 350 599 q 232 461 253 522 l 232 0 l 113 0 m 354 1257 l 483 1257 l 660 1067 l 531 1067 l 418 1182 l 307 1067 l 178 1067 l 354 1257 z "},"ı":{"ha":346,"x_min":113,"x_max":232,"o":"m 113 694 l 232 694 l 232 0 l 113 0 l 113 694 z "},"ĭ":{"ha":346,"x_min":-49,"x_max":393,"o":"m 113 694 l 232 694 l 232 0 l 113 0 l 113 694 m 172 779 q 86 794 126 779 q 16 838 46 810 q -31 908 -14 867 q -49 1000 -49 949 l -49 1014 l 32 1014 l 32 1000 q 73 894 32 931 q 172 858 114 858 q 272 894 231 858 q 313 1000 313 931 l 313 1014 l 393 1014 l 393 1000 q 376 908 393 949 q 328 838 358 867 q 258 794 299 810 q 172 779 218 779 z "},"ī":{"ha":346,"x_min":-51,"x_max":396,"o":"m 113 694 l 232 694 l 232 0 l 113 0 l 113 694 m -51 986 l 396 986 l 396 890 l -51 890 l -51 986 z "},"į":{"ha":346,"x_min":10,"x_max":258,"o":"m 174 832 q 113 856 138 832 q 88 917 88 881 q 113 976 88 951 q 174 1001 138 1001 q 234 976 210 1001 q 258 917 258 951 q 234 856 258 881 q 174 832 210 832 m 113 694 l 232 694 l 232 0 l 113 0 l 113 694 m 140 -283 q 44 -250 79 -283 q 10 -164 10 -217 q 41 -72 10 -111 q 113 0 72 -32 l 232 0 q 115 -140 115 -74 q 131 -176 115 -164 q 165 -187 146 -187 q 190 -185 178 -187 q 215 -175 203 -182 l 253 -249 q 202 -274 232 -264 q 140 -283 172 -283 z "},"ĩ":{"ha":346,"x_min":-69,"x_max":413,"o":"m 113 694 l 232 694 l 232 0 l 113 0 l 113 694 m -65 849 q -14 944 -54 908 q 82 981 26 981 q 135 971 110 981 q 183 950 160 961 q 225 929 206 939 q 261 919 244 919 q 321 981 307 919 l 413 981 l 408 956 q 357 860 397 896 q 261 824 317 824 q 208 833 233 824 q 160 854 183 843 q 118 875 138 865 q 82 885 99 885 q 22 824 36 885 l -69 824 l -65 849 z "},"ị":{"ha":346,"x_min":86,"x_max":258,"o":"m 174 832 q 113 856 138 832 q 88 917 88 881 q 113 976 88 951 q 174 1001 138 1001 q 234 976 210 1001 q 258 917 258 951 q 234 856 258 881 q 174 832 210 832 m 113 694 l 232 694 l 232 0 l 113 0 l 113 694 m 172 -272 q 111 -248 136 -272 q 86 -187 86 -224 q 111 -128 86 -153 q 172 -103 136 -103 q 233 -128 208 -103 q 257 -187 257 -153 q 233 -248 257 -224 q 172 -272 208 -272 z "},"ȷ":{"ha":357,"x_min":-61,"x_max":243,"o":"m 44 -276 q -17 -270 15 -276 q -61 -257 -49 -264 l -35 -156 q -8 -164 -24 -160 q 33 -168 8 -168 q 97 -142 69 -168 q 124 -50 124 -117 l 124 694 l 243 694 l 243 -64 q 227 -158 243 -118 q 184 -224 211 -199 q 121 -263 157 -250 q 44 -276 85 -276 z "},"ĵ":{"ha":357,"x_min":-61,"x_max":421,"o":"m 44 -276 q -17 -270 15 -276 q -61 -257 -49 -264 l -35 -156 q -8 -164 -24 -160 q 33 -168 8 -168 q 97 -142 69 -168 q 124 -50 124 -117 l 124 694 l 243 694 l 243 -64 q 227 -158 243 -118 q 184 -224 211 -199 q 121 -263 157 -250 q 44 -276 85 -276 m 122 1014 l 244 1014 l 421 803 l 296 803 l 183 933 l 71 803 l -54 803 l 122 1014 z "},"ķ":{"ha":749,"x_min":113,"x_max":769,"o":"m 232 347 l 232 0 l 113 0 l 113 1014 l 232 1014 l 232 424 l 535 694 l 693 694 l 351 388 l 769 0 l 608 0 l 232 347 m 383 -265 q 346 -235 360 -256 q 332 -187 332 -214 q 357 -128 332 -153 q 418 -103 382 -103 q 478 -128 454 -103 q 503 -187 503 -153 q 497 -216 503 -203 q 485 -240 492 -229 q 472 -262 482 -244 q 447 -301 461 -279 q 420 -344 433 -322 q 399 -378 407 -365 l 336 -378 l 383 -265 z "},"ĺ":{"ha":346,"x_min":113,"x_max":396,"o":"m 113 1014 l 232 1014 l 232 0 l 113 0 l 113 1014 m 244 1333 l 396 1333 l 222 1117 l 122 1117 l 244 1333 z "},"ľ":{"ha":346,"x_min":113,"x_max":436,"o":"m 113 1014 l 232 1014 l 232 0 l 113 0 l 113 1014 m 317 1014 l 436 1014 l 367 785 l 283 785 l 317 1014 z "},"ļ":{"ha":346,"x_min":86,"x_max":257,"o":"m 113 1014 l 232 1014 l 232 0 l 113 0 l 113 1014 m 138 -265 q 100 -235 114 -256 q 86 -187 86 -214 q 111 -128 86 -153 q 172 -103 136 -103 q 233 -128 208 -103 q 257 -187 257 -153 q 251 -216 257 -203 q 239 -240 246 -229 q 226 -262 236 -244 q 201 -301 215 -279 q 174 -344 188 -322 q 153 -378 161 -365 l 90 -378 l 138 -265 z "},"ŀ":{"ha":532,"x_min":113,"x_max":525,"o":"m 113 1014 l 232 1014 l 232 0 l 113 0 l 113 1014 m 440 458 q 379 483 404 458 q 354 543 354 507 q 379 603 354 578 q 440 628 404 628 q 501 603 476 628 q 525 543 525 578 q 501 483 525 507 q 440 458 476 458 z "},"ł":{"ha":443,"x_min":54,"x_max":393,"o":"m 164 1014 l 283 1014 l 283 0 l 164 0 l 164 1014 m 54 357 l 54 465 l 393 682 l 393 575 l 54 357 z "},"ń":{"ha":818,"x_min":113,"x_max":715,"o":"m 113 694 l 232 694 l 232 607 q 326 684 268 660 q 451 708 385 708 q 558 689 510 708 q 642 633 607 669 q 696 544 676 596 q 715 426 715 492 l 715 0 l 597 0 l 597 408 q 551 549 597 500 q 424 599 504 599 q 301 560 350 599 q 232 461 253 522 l 232 0 l 113 0 l 113 694 m 486 1014 l 638 1014 l 464 797 l 364 797 l 486 1014 z "},"ň":{"ha":818,"x_min":113,"x_max":715,"o":"m 113 694 l 232 694 l 232 607 q 326 684 268 660 q 451 708 385 708 q 558 689 510 708 q 642 633 607 669 q 696 544 676 596 q 715 426 715 492 l 715 0 l 597 0 l 597 408 q 551 549 597 500 q 424 599 504 599 q 301 560 350 599 q 232 461 253 522 l 232 0 l 113 0 l 113 694 m 301 1014 l 414 882 l 526 1014 l 651 1014 l 475 803 l 353 803 l 176 1014 l 301 1014 z "},"ņ":{"ha":818,"x_min":113,"x_max":715,"o":"m 113 694 l 232 694 l 232 607 q 326 684 268 660 q 451 708 385 708 q 558 689 510 708 q 642 633 607 669 q 696 544 676 596 q 715 426 715 492 l 715 0 l 597 0 l 597 408 q 551 549 597 500 q 424 599 504 599 q 301 560 350 599 q 232 461 253 522 l 232 0 l 113 0 l 113 694 m 379 -265 q 342 -235 356 -256 q 328 -187 328 -214 q 353 -128 328 -153 q 414 -103 378 -103 q 474 -128 450 -103 q 499 -187 499 -153 q 493 -216 499 -203 q 481 -240 488 -229 q 467 -262 478 -244 q 443 -301 457 -279 q 416 -344 429 -322 q 394 -378 403 -365 l 332 -378 l 379 -265 z "},"œ":{"ha":1410,"x_min":57,"x_max":1353,"o":"m 1021 -14 q 844 28 921 -14 q 719 140 767 69 q 594 28 671 69 q 421 -14 517 -14 q 275 15 342 -14 q 160 92 208 43 q 84 206 111 140 q 57 347 57 272 q 84 488 57 422 q 160 603 111 554 q 275 680 208 651 q 421 708 342 708 q 594 666 517 708 q 721 553 672 624 q 847 666 769 624 q 1022 708 924 708 q 1150 685 1090 708 q 1255 617 1210 663 q 1326 508 1300 572 q 1353 360 1353 443 q 1353 342 1353 350 q 1351 324 1353 335 l 782 324 q 802 233 783 275 q 852 161 821 192 q 927 113 883 131 q 1022 96 971 96 q 1155 128 1103 96 q 1239 217 1207 161 l 1333 151 q 1208 31 1286 75 q 1021 -14 1129 -14 m 421 97 q 519 117 475 97 q 595 170 564 136 q 644 249 626 204 q 661 347 661 294 q 644 444 661 399 q 595 524 626 490 q 519 578 564 558 q 421 597 475 597 q 322 578 367 597 q 246 524 278 558 q 197 444 214 490 q 179 347 179 399 q 197 249 179 294 q 246 170 214 204 q 322 117 278 136 q 421 97 367 97 m 1018 603 q 942 590 979 603 q 874 555 904 578 q 821 498 843 532 q 790 421 799 464 l 1231 421 q 1205 497 1224 464 q 1158 554 1186 531 q 1093 590 1129 578 q 1018 603 1057 603 z "},"ŏ":{"ha":842,"x_min":57,"x_max":783,"o":"m 421 -14 q 275 15 342 -14 q 160 92 208 43 q 84 206 111 140 q 57 347 57 272 q 84 488 57 422 q 160 603 111 554 q 275 680 208 651 q 421 708 342 708 q 565 680 499 708 q 681 603 632 651 q 756 488 729 554 q 783 347 783 422 q 756 206 783 272 q 681 92 729 140 q 565 15 632 43 q 421 -14 499 -14 m 421 97 q 519 117 475 97 q 595 170 564 136 q 644 249 626 204 q 661 347 661 294 q 644 444 661 399 q 595 524 626 490 q 519 578 564 558 q 421 597 475 597 q 322 578 367 597 q 246 524 278 558 q 197 444 214 490 q 179 347 179 399 q 197 249 179 294 q 246 170 214 204 q 322 117 278 136 q 421 97 367 97 m 421 779 q 335 794 375 779 q 265 838 294 810 q 217 908 235 867 q 200 1000 200 949 l 200 1014 l 281 1014 l 281 1000 q 322 894 281 931 q 421 858 363 858 q 520 894 479 858 q 561 1000 561 931 l 561 1014 l 642 1014 l 642 1000 q 624 908 642 949 q 577 838 607 867 q 507 794 547 810 q 421 779 467 779 z "},"ő":{"ha":842,"x_min":57,"x_max":783,"o":"m 421 -14 q 275 15 342 -14 q 160 92 208 43 q 84 206 111 140 q 57 347 57 272 q 84 488 57 422 q 160 603 111 554 q 275 680 208 651 q 421 708 342 708 q 565 680 499 708 q 681 603 632 651 q 756 488 729 554 q 783 347 783 422 q 756 206 783 272 q 681 92 729 140 q 565 15 632 43 q 421 -14 499 -14 m 421 97 q 519 117 475 97 q 595 170 564 136 q 644 249 626 204 q 661 347 661 294 q 644 444 661 399 q 595 524 626 490 q 519 578 564 558 q 421 597 475 597 q 322 578 367 597 q 246 524 278 558 q 197 444 214 490 q 179 347 179 399 q 197 249 179 294 q 246 170 214 204 q 322 117 278 136 q 421 97 367 97 m 347 1014 l 485 1014 l 358 797 l 271 797 l 347 1014 m 579 1014 l 718 1014 l 590 797 l 504 797 l 579 1014 z "},"ō":{"ha":842,"x_min":57,"x_max":783,"o":"m 421 -14 q 275 15 342 -14 q 160 92 208 43 q 84 206 111 140 q 57 347 57 272 q 84 488 57 422 q 160 603 111 554 q 275 680 208 651 q 421 708 342 708 q 565 680 499 708 q 681 603 632 651 q 756 488 729 554 q 783 347 783 422 q 756 206 783 272 q 681 92 729 140 q 565 15 632 43 q 421 -14 499 -14 m 421 97 q 519 117 475 97 q 595 170 564 136 q 644 249 626 204 q 661 347 661 294 q 644 444 661 399 q 595 524 626 490 q 519 578 564 558 q 421 597 475 597 q 322 578 367 597 q 246 524 278 558 q 197 444 214 490 q 179 347 179 399 q 197 249 179 294 q 246 170 214 204 q 322 117 278 136 q 421 97 367 97 m 197 986 l 644 986 l 644 890 l 197 890 l 197 986 z "},"ọ":{"ha":842,"x_min":57,"x_max":783,"o":"m 421 -14 q 275 15 342 -14 q 160 92 208 43 q 84 206 111 140 q 57 347 57 272 q 84 488 57 422 q 160 603 111 554 q 275 680 208 651 q 421 708 342 708 q 565 680 499 708 q 681 603 632 651 q 756 488 729 554 q 783 347 783 422 q 756 206 783 272 q 681 92 729 140 q 565 15 632 43 q 421 -14 499 -14 m 421 97 q 519 117 475 97 q 595 170 564 136 q 644 249 626 204 q 661 347 661 294 q 644 444 661 399 q 595 524 626 490 q 519 578 564 558 q 421 597 475 597 q 322 578 367 597 q 246 524 278 558 q 197 444 214 490 q 179 347 179 399 q 197 249 179 294 q 246 170 214 204 q 322 117 278 136 q 421 97 367 97 m 421 -272 q 360 -248 385 -272 q 335 -187 335 -224 q 360 -128 335 -153 q 421 -103 385 -103 q 481 -128 457 -103 q 506 -187 506 -153 q 481 -248 506 -224 q 421 -272 457 -272 z "},"ŕ":{"ha":499,"x_min":113,"x_max":518,"o":"m 113 694 l 232 694 l 232 592 q 261 633 242 613 q 305 668 281 653 q 358 692 329 683 q 419 701 388 701 q 452 699 438 701 q 481 694 467 697 l 465 575 q 435 582 450 581 q 406 583 421 583 q 303 549 353 583 q 232 450 253 515 l 232 0 l 113 0 l 113 694 m 367 1014 l 518 1014 l 344 797 l 244 797 l 367 1014 z "},"ř":{"ha":499,"x_min":58,"x_max":533,"o":"m 113 694 l 232 694 l 232 592 q 261 633 242 613 q 305 668 281 653 q 358 692 329 683 q 419 701 388 701 q 452 699 438 701 q 481 694 467 697 l 465 575 q 435 582 450 581 q 406 583 421 583 q 303 549 353 583 q 232 450 253 515 l 232 0 l 113 0 l 113 694 m 183 1014 l 296 882 l 408 1014 l 533 1014 l 357 803 l 235 803 l 58 1014 l 183 1014 z "},"ŗ":{"ha":499,"x_min":88,"x_max":481,"o":"m 113 694 l 232 694 l 232 592 q 261 633 242 613 q 305 668 281 653 q 358 692 329 683 q 419 701 388 701 q 452 699 438 701 q 481 694 467 697 l 465 575 q 435 582 450 581 q 406 583 421 583 q 303 549 353 583 q 232 450 253 515 l 232 0 l 113 0 l 113 694 m 139 -265 q 101 -235 115 -256 q 88 -187 88 -214 q 113 -128 88 -153 q 174 -103 138 -103 q 234 -128 210 -103 q 258 -187 258 -153 q 253 -216 258 -203 q 240 -240 247 -229 q 227 -262 238 -244 q 203 -301 217 -279 q 176 -344 189 -322 q 154 -378 163 -365 l 92 -378 l 139 -265 z "},"ś":{"ha":625,"x_min":50,"x_max":564,"o":"m 322 -14 q 156 26 229 -14 q 50 147 82 65 l 147 201 q 216 120 167 149 q 324 92 265 92 q 409 116 374 92 q 444 185 444 140 q 418 247 444 222 q 324 293 392 272 l 254 315 q 124 392 168 340 q 81 518 81 444 q 99 598 81 563 q 151 658 118 633 q 226 695 183 682 q 319 708 269 708 q 456 677 397 708 q 549 588 514 646 l 460 526 q 401 583 436 560 q 315 606 365 606 q 235 583 271 606 q 200 522 200 561 q 220 465 200 490 q 299 422 240 440 l 375 399 q 515 322 465 371 q 564 194 564 274 q 546 106 564 144 q 495 40 528 67 q 418 0 463 14 q 322 -14 374 -14 m 393 1014 l 544 1014 l 371 797 l 271 797 l 393 1014 z "},"š":{"ha":625,"x_min":50,"x_max":564,"o":"m 322 -14 q 156 26 229 -14 q 50 147 82 65 l 147 201 q 216 120 167 149 q 324 92 265 92 q 409 116 374 92 q 444 185 444 140 q 418 247 444 222 q 324 293 392 272 l 254 315 q 124 392 168 340 q 81 518 81 444 q 99 598 81 563 q 151 658 118 633 q 226 695 183 682 q 319 708 269 708 q 456 677 397 708 q 549 588 514 646 l 460 526 q 401 583 436 560 q 315 606 365 606 q 235 583 271 606 q 200 522 200 561 q 220 465 200 490 q 299 422 240 440 l 375 399 q 515 322 465 371 q 564 194 564 274 q 546 106 564 144 q 495 40 528 67 q 418 0 463 14 q 322 -14 374 -14 m 210 1014 l 322 882 l 435 1014 l 560 1014 l 383 803 l 261 803 l 85 1014 l 210 1014 z "},"ş":{"ha":625,"x_min":50,"x_max":564,"o":"m 322 -14 q 156 26 229 -14 q 50 147 82 65 l 147 201 q 216 120 167 149 q 324 92 265 92 q 409 116 374 92 q 444 185 444 140 q 418 247 444 222 q 324 293 392 272 l 254 315 q 124 392 168 340 q 81 518 81 444 q 99 598 81 563 q 151 658 118 633 q 226 695 183 682 q 319 708 269 708 q 456 677 397 708 q 549 588 514 646 l 460 526 q 401 583 436 560 q 315 606 365 606 q 235 583 271 606 q 200 522 200 561 q 220 465 200 490 q 299 422 240 440 l 375 399 q 515 322 465 371 q 564 194 564 274 q 546 106 564 144 q 495 40 528 67 q 418 0 463 14 q 322 -14 374 -14 m 193 -190 q 289 -210 239 -210 q 342 -200 317 -210 q 368 -164 368 -190 q 352 -135 368 -144 q 314 -126 336 -126 q 279 -130 294 -126 q 250 -139 264 -133 l 207 -108 l 275 4 l 351 4 l 307 -68 q 360 -58 329 -58 q 435 -85 404 -58 q 465 -158 465 -111 q 417 -251 465 -219 q 296 -283 369 -283 q 234 -278 265 -283 q 175 -260 203 -272 l 193 -190 z "},"ŝ":{"ha":625,"x_min":50,"x_max":564,"o":"m 322 -14 q 156 26 229 -14 q 50 147 82 65 l 147 201 q 216 120 167 149 q 324 92 265 92 q 409 116 374 92 q 444 185 444 140 q 418 247 444 222 q 324 293 392 272 l 254 315 q 124 392 168 340 q 81 518 81 444 q 99 598 81 563 q 151 658 118 633 q 226 695 183 682 q 319 708 269 708 q 456 677 397 708 q 549 588 514 646 l 460 526 q 401 583 436 560 q 315 606 365 606 q 235 583 271 606 q 200 522 200 561 q 220 465 200 490 q 299 422 240 440 l 375 399 q 515 322 465 371 q 564 194 564 274 q 546 106 564 144 q 495 40 528 67 q 418 0 463 14 q 322 -14 374 -14 m 261 1014 l 383 1014 l 560 803 l 435 803 l 322 933 l 210 803 l 85 803 l 261 1014 z "},"ș":{"ha":625,"x_min":50,"x_max":564,"o":"m 322 -14 q 156 26 229 -14 q 50 147 82 65 l 147 201 q 216 120 167 149 q 324 92 265 92 q 409 116 374 92 q 444 185 444 140 q 418 247 444 222 q 324 293 392 272 l 254 315 q 124 392 168 340 q 81 518 81 444 q 99 598 81 563 q 151 658 118 633 q 226 695 183 682 q 319 708 269 708 q 456 677 397 708 q 549 588 514 646 l 460 526 q 401 583 436 560 q 315 606 365 606 q 235 583 271 606 q 200 522 200 561 q 220 465 200 490 q 299 422 240 440 l 375 399 q 515 322 465 371 q 564 194 564 274 q 546 106 564 144 q 495 40 528 67 q 418 0 463 14 q 322 -14 374 -14 m 283 -265 q 246 -235 260 -256 q 232 -187 232 -214 q 257 -128 232 -153 q 318 -103 282 -103 q 378 -128 354 -103 q 403 -187 403 -153 q 397 -216 403 -203 q 385 -240 392 -229 q 372 -262 382 -244 q 347 -301 361 -279 q 320 -344 333 -322 q 299 -378 307 -365 l 236 -378 l 283 -265 z "},"ť":{"ha":576,"x_min":18,"x_max":560,"o":"m 410 -7 q 326 6 365 -7 q 258 45 288 19 q 210 111 228 71 q 193 206 193 151 l 193 585 l 18 585 l 18 694 l 193 694 l 193 892 l 313 892 l 313 694 l 528 694 l 528 585 l 313 585 l 313 221 q 344 127 313 154 q 424 100 376 100 q 483 108 458 100 q 524 126 508 117 l 560 25 q 500 3 538 14 q 410 -7 463 -7 m 394 986 l 514 986 l 444 757 l 361 757 l 394 986 z "},"ţ":{"ha":576,"x_min":18,"x_max":560,"o":"m 410 -7 q 326 6 365 -7 q 258 45 288 19 q 210 111 228 71 q 193 206 193 151 l 193 585 l 18 585 l 18 694 l 193 694 l 193 892 l 313 892 l 313 694 l 528 694 l 528 585 l 313 585 l 313 221 q 344 127 313 154 q 424 100 376 100 q 483 108 458 100 q 524 126 508 117 l 560 25 q 500 3 538 14 q 410 -7 463 -7 m 340 -265 q 303 -235 317 -256 q 289 -187 289 -214 q 314 -128 289 -153 q 375 -103 339 -103 q 435 -128 411 -103 q 460 -187 460 -153 q 454 -216 460 -203 q 442 -240 449 -229 q 428 -262 439 -244 q 404 -301 418 -279 q 377 -344 390 -322 q 356 -378 364 -365 l 293 -378 l 340 -265 z "},"ț":{"ha":576,"x_min":18,"x_max":560,"o":"m 410 -7 q 326 6 365 -7 q 258 45 288 19 q 210 111 228 71 q 193 206 193 151 l 193 585 l 18 585 l 18 694 l 193 694 l 193 892 l 313 892 l 313 694 l 528 694 l 528 585 l 313 585 l 313 221 q 344 127 313 154 q 424 100 376 100 q 483 108 458 100 q 524 126 508 117 l 560 25 q 500 3 538 14 q 410 -7 463 -7 m 340 -265 q 303 -235 317 -256 q 289 -187 289 -214 q 314 -128 289 -153 q 375 -103 339 -103 q 435 -128 411 -103 q 460 -187 460 -153 q 454 -216 460 -203 q 442 -240 449 -229 q 428 -262 439 -244 q 404 -301 418 -279 q 377 -344 390 -322 q 356 -378 364 -365 l 293 -378 l 340 -265 z "},"ŭ":{"ha":804,"x_min":103,"x_max":692,"o":"m 692 0 l 572 0 l 572 88 q 478 10 536 35 q 363 -14 421 -14 q 258 6 306 -14 q 175 62 210 25 q 122 151 140 99 q 103 268 103 203 l 103 694 l 222 694 l 222 286 q 267 145 222 194 q 389 96 311 96 q 503 134 456 96 q 572 233 550 172 l 572 694 l 692 694 l 692 0 m 396 779 q 310 794 350 779 q 240 838 269 810 q 192 908 210 867 q 175 1000 175 949 l 175 1014 l 256 1014 l 256 1000 q 297 894 256 931 q 396 858 338 858 q 495 894 454 858 q 536 1000 536 931 l 536 1014 l 617 1014 l 617 1000 q 599 908 617 949 q 552 838 582 867 q 482 794 522 810 q 396 779 442 779 z "},"ű":{"ha":804,"x_min":103,"x_max":693,"o":"m 692 0 l 572 0 l 572 88 q 478 10 536 35 q 363 -14 421 -14 q 258 6 306 -14 q 175 62 210 25 q 122 151 140 99 q 103 268 103 203 l 103 694 l 222 694 l 222 286 q 267 145 222 194 q 389 96 311 96 q 503 134 456 96 q 572 233 550 172 l 572 694 l 692 694 l 692 0 m 322 1014 l 460 1014 l 333 797 l 246 797 l 322 1014 m 554 1014 l 693 1014 l 565 797 l 479 797 l 554 1014 z "},"ū":{"ha":804,"x_min":103,"x_max":692,"o":"m 692 0 l 572 0 l 572 88 q 478 10 536 35 q 363 -14 421 -14 q 258 6 306 -14 q 175 62 210 25 q 122 151 140 99 q 103 268 103 203 l 103 694 l 222 694 l 222 286 q 267 145 222 194 q 389 96 311 96 q 503 134 456 96 q 572 233 550 172 l 572 694 l 692 694 l 692 0 m 172 986 l 619 986 l 619 890 l 172 890 l 172 986 z "},"ų":{"ha":804,"x_min":103,"x_max":713,"o":"m 692 0 l 572 0 l 572 88 q 478 10 536 35 q 363 -14 421 -14 q 258 6 306 -14 q 175 62 210 25 q 122 151 140 99 q 103 268 103 203 l 103 694 l 222 694 l 222 286 q 267 145 222 194 q 389 96 311 96 q 503 134 456 96 q 572 233 550 172 l 572 694 l 692 694 l 692 0 m 600 -283 q 504 -250 539 -283 q 469 -164 469 -217 q 501 -72 469 -111 q 572 0 532 -32 l 692 0 q 575 -140 575 -74 q 590 -176 575 -164 q 625 -187 606 -187 q 650 -185 638 -187 q 675 -175 663 -182 l 713 -249 q 662 -274 692 -264 q 600 -283 632 -283 z "},"ů":{"ha":804,"x_min":103,"x_max":692,"o":"m 692 0 l 572 0 l 572 88 q 478 10 536 35 q 363 -14 421 -14 q 258 6 306 -14 q 175 62 210 25 q 122 151 140 99 q 103 268 103 203 l 103 694 l 222 694 l 222 286 q 267 145 222 194 q 389 96 311 96 q 503 134 456 96 q 572 233 550 172 l 572 694 l 692 694 l 692 0 m 397 832 q 336 856 361 832 q 311 917 311 881 q 336 976 311 951 q 397 1001 361 1001 q 458 976 433 1001 q 482 917 482 951 q 458 856 482 881 q 397 832 433 832 z "},"ũ":{"ha":804,"x_min":103,"x_max":692,"o":"m 692 0 l 572 0 l 572 88 q 478 10 536 35 q 363 -14 421 -14 q 258 6 306 -14 q 175 62 210 25 q 122 151 140 99 q 103 268 103 203 l 103 694 l 222 694 l 222 286 q 267 145 222 194 q 389 96 311 96 q 503 134 456 96 q 572 233 550 172 l 572 694 l 692 694 l 692 0 m 158 849 q 210 944 169 908 q 306 981 250 981 q 358 971 333 981 q 406 950 383 961 q 449 929 429 939 q 485 919 468 919 q 544 981 531 919 l 636 981 l 632 956 q 581 860 621 896 q 485 824 540 824 q 432 833 457 824 q 384 854 407 843 q 342 875 361 865 q 306 885 322 885 q 246 824 260 885 l 154 824 l 158 849 z "},"ụ":{"ha":804,"x_min":103,"x_max":692,"o":"m 692 0 l 572 0 l 572 88 q 478 10 536 35 q 363 -14 421 -14 q 258 6 306 -14 q 175 62 210 25 q 122 151 140 99 q 103 268 103 203 l 103 694 l 222 694 l 222 286 q 267 145 222 194 q 389 96 311 96 q 503 134 456 96 q 572 233 550 172 l 572 694 l 692 694 l 692 0 m 397 -272 q 336 -248 361 -272 q 311 -187 311 -224 q 336 -128 311 -153 q 397 -103 361 -103 q 458 -128 433 -103 q 482 -187 482 -153 q 458 -248 482 -224 q 397 -272 433 -272 z "},"ẃ":{"ha":1060,"x_min":17,"x_max":1043,"o":"m 529 499 l 358 0 l 253 0 l 17 694 l 142 694 l 310 188 l 483 694 l 575 694 l 749 188 l 917 694 l 1043 694 l 807 0 l 701 0 l 529 499 m 601 1014 l 753 1014 l 579 797 l 479 797 l 601 1014 z "},"ŵ":{"ha":1060,"x_min":17,"x_max":1043,"o":"m 529 499 l 358 0 l 253 0 l 17 694 l 142 694 l 310 188 l 483 694 l 575 694 l 749 188 l 917 694 l 1043 694 l 807 0 l 701 0 l 529 499 m 468 1014 l 590 1014 l 767 803 l 642 803 l 529 933 l 417 803 l 292 803 l 468 1014 z "},"ẅ":{"ha":1060,"x_min":17,"x_max":1043,"o":"m 529 499 l 358 0 l 253 0 l 17 694 l 142 694 l 310 188 l 483 694 l 575 694 l 749 188 l 917 694 l 1043 694 l 807 0 l 701 0 l 529 499 m 689 832 q 628 856 653 832 q 603 917 603 881 q 628 976 603 951 q 689 1001 653 1001 q 749 976 725 1001 q 774 917 774 951 q 749 856 774 881 q 689 832 725 832 m 371 832 q 310 856 335 832 q 285 917 285 881 q 310 976 285 951 q 371 1001 335 1001 q 431 976 407 1001 q 456 917 456 951 q 431 856 456 881 q 371 832 407 832 z "},"ẁ":{"ha":1060,"x_min":17,"x_max":1043,"o":"m 529 499 l 358 0 l 253 0 l 17 694 l 142 694 l 310 188 l 483 694 l 575 694 l 749 188 l 917 694 l 1043 694 l 807 0 l 701 0 l 529 499 m 481 797 l 307 1014 l 458 1014 l 581 797 l 481 797 z "},"ŷ":{"ha":760,"x_min":11,"x_max":753,"o":"m 174 -269 l 315 36 l 11 694 l 143 694 l 382 167 l 619 694 l 753 694 l 307 -269 l 174 -269 m 321 1014 l 443 1014 l 619 803 l 494 803 l 382 933 l 269 803 l 144 803 l 321 1014 z "},"ỳ":{"ha":760,"x_min":11,"x_max":753,"o":"m 174 -269 l 315 36 l 11 694 l 143 694 l 382 167 l 619 694 l 753 694 l 307 -269 l 174 -269 m 333 797 l 160 1014 l 311 1014 l 433 797 l 333 797 z "},"ȳ":{"ha":760,"x_min":11,"x_max":753,"o":"m 174 -269 l 315 36 l 11 694 l 143 694 l 382 167 l 619 694 l 753 694 l 307 -269 l 174 -269 m 158 986 l 606 986 l 606 890 l 158 890 l 158 986 z "},"ź":{"ha":672,"x_min":56,"x_max":619,"o":"m 56 94 l 453 585 l 61 585 l 61 694 l 607 694 l 607 599 l 210 110 l 619 110 l 619 0 l 56 0 l 56 94 m 406 1014 l 557 1014 l 383 797 l 283 797 l 406 1014 z "},"ž":{"ha":672,"x_min":56,"x_max":619,"o":"m 56 94 l 453 585 l 61 585 l 61 694 l 607 694 l 607 599 l 210 110 l 619 110 l 619 0 l 56 0 l 56 94 m 221 1014 l 333 882 l 446 1014 l 571 1014 l 394 803 l 272 803 l 96 1014 l 221 1014 z "},"ż":{"ha":672,"x_min":56,"x_max":619,"o":"m 56 94 l 453 585 l 61 585 l 61 694 l 607 694 l 607 599 l 210 110 l 619 110 l 619 0 l 56 0 l 56 94 m 333 832 q 272 856 297 832 q 247 917 247 881 q 272 976 247 951 q 333 1001 297 1001 q 394 976 369 1001 q 418 917 418 951 q 394 856 418 881 q 333 832 369 832 z "},"А":{"ha":997,"x_min":8,"x_max":989,"o":"m 444 986 l 551 986 l 989 0 l 854 0 l 726 288 l 267 288 l 142 0 l 8 0 l 444 986 m 318 404 l 675 404 l 496 811 l 318 404 z "},"Б":{"ha":867,"x_min":131,"x_max":821,"o":"m 488 578 q 621 559 560 578 q 726 503 682 540 q 796 413 771 467 q 821 289 821 358 q 796 166 821 219 q 726 76 771 113 q 621 19 682 39 q 488 0 560 0 l 131 0 l 131 986 l 729 986 l 729 864 l 260 864 l 260 578 l 488 578 m 692 289 q 639 415 692 371 q 488 458 586 458 l 260 458 l 260 119 l 488 119 q 639 164 586 119 q 692 289 692 208 z "},"В":{"ha":874,"x_min":131,"x_max":814,"o":"m 131 986 l 454 986 q 577 965 522 986 q 670 908 632 943 q 728 824 708 872 q 749 725 749 776 q 719 602 749 651 q 643 524 690 553 q 765 442 715 497 q 814 288 814 386 q 790 174 814 226 q 724 82 767 121 q 619 22 681 43 q 483 0 558 0 l 131 0 l 131 986 m 489 117 q 638 163 589 117 q 688 283 688 210 q 638 403 688 356 q 490 451 589 451 l 260 451 l 260 117 l 489 117 m 454 563 q 578 606 533 563 q 622 715 622 649 q 578 824 622 778 q 454 869 533 869 l 260 869 l 260 563 l 454 563 z "},"Г":{"ha":713,"x_min":131,"x_max":688,"o":"m 688 864 l 260 864 l 260 0 l 131 0 l 131 986 l 688 986 l 688 864 z "},"Д":{"ha":1053,"x_min":46,"x_max":1003,"o":"m 883 0 l 165 0 l 165 -206 l 46 -206 l 46 122 l 64 122 q 113 136 90 122 q 153 188 136 150 q 181 293 171 226 q 192 465 192 360 l 192 986 l 881 986 l 881 122 l 1003 122 l 1003 -206 l 883 -206 l 883 0 m 321 444 q 317 329 321 379 q 304 240 313 279 q 284 173 296 201 q 258 122 272 144 l 751 122 l 751 864 l 321 864 l 321 444 z "},"Е":{"ha":774,"x_min":131,"x_max":706,"o":"m 131 986 l 706 986 l 706 864 l 260 864 l 260 565 l 622 565 l 622 443 l 260 443 l 260 122 l 706 122 l 706 0 l 131 0 l 131 986 z "},"Ж":{"ha":1343,"x_min":-12,"x_max":1356,"o":"m 736 440 l 736 0 l 607 0 l 607 440 l 158 0 l -12 0 l 485 490 l 28 986 l 186 986 l 607 529 l 607 986 l 736 986 l 736 529 l 1157 986 l 1315 986 l 858 490 l 1356 0 l 1185 0 l 736 440 z "},"З":{"ha":794,"x_min":29,"x_max":725,"o":"m 74 883 q 381 1003 196 1003 q 505 983 449 1003 q 602 929 561 964 q 665 845 643 894 q 688 736 688 796 q 659 612 688 671 q 561 517 631 553 q 684 422 643 485 q 725 276 725 358 q 697 151 725 206 q 622 59 669 96 q 511 3 574 22 q 381 -17 449 -17 q 178 24 271 -17 q 29 143 86 65 l 124 225 q 235 135 167 167 q 381 104 304 104 q 540 155 482 104 q 599 283 599 206 q 547 406 599 357 q 393 454 496 454 l 263 454 l 263 564 l 394 564 q 467 576 436 564 q 519 611 499 589 q 551 662 540 633 q 563 724 563 690 q 514 838 563 794 q 374 883 465 882 q 153 796 247 885 l 74 883 z "},"И":{"ha":1103,"x_min":131,"x_max":971,"o":"m 131 0 l 131 986 l 260 986 l 260 219 l 860 986 l 971 986 l 971 0 l 843 0 l 843 768 l 243 0 l 131 0 z "},"К":{"ha":932,"x_min":131,"x_max":964,"o":"m 258 469 l 258 0 l 131 0 l 131 986 l 258 986 l 258 558 l 689 986 l 857 986 l 388 517 l 964 0 l 782 0 l 258 469 z "},"Л":{"ha":1014,"x_min":17,"x_max":882,"o":"m 194 986 l 882 986 l 882 0 l 754 0 l 754 864 l 322 864 l 322 264 q 306 133 322 186 q 260 46 289 79 q 191 -2 231 13 q 106 -17 151 -17 q 57 -13 78 -17 q 17 -6 36 -10 l 40 108 q 93 103 64 103 q 138 111 118 103 q 169 140 157 119 q 188 194 182 160 q 194 283 194 229 l 194 986 z "},"М":{"ha":1229,"x_min":131,"x_max":1099,"o":"m 131 986 l 249 986 l 614 408 l 981 986 l 1099 986 l 1099 0 l 971 0 l 971 736 l 661 249 l 569 249 l 260 738 l 260 0 l 131 0 l 131 986 z "},"Н":{"ha":1060,"x_min":131,"x_max":929,"o":"m 131 986 l 260 986 l 260 565 l 800 565 l 800 986 l 929 986 l 929 0 l 800 0 l 800 444 l 260 444 l 260 0 l 131 0 l 131 986 z "},"О":{"ha":1146,"x_min":63,"x_max":1082,"o":"m 572 106 q 723 135 653 106 q 844 218 793 165 q 924 341 894 271 q 953 493 953 411 q 924 644 953 574 q 844 768 894 715 q 723 851 793 821 q 572 881 653 881 q 422 851 492 881 q 302 768 353 821 q 222 644 251 715 q 193 493 193 574 q 222 341 193 411 q 302 218 251 271 q 422 135 353 165 q 572 106 492 106 m 572 -17 q 373 23 465 -17 q 211 131 281 63 q 102 293 142 200 q 63 493 63 386 q 102 693 63 600 q 211 855 142 786 q 373 963 281 924 q 572 1003 465 1003 q 772 963 679 1003 q 934 855 865 924 q 1042 693 1003 786 q 1082 493 1082 600 q 1042 293 1082 386 q 934 131 1003 200 q 772 23 865 63 q 572 -17 679 -17 z "},"П":{"ha":1038,"x_min":131,"x_max":906,"o":"m 779 864 l 256 864 l 256 0 l 131 0 l 131 986 l 906 986 l 906 0 l 779 0 l 779 864 z "},"Р":{"ha":814,"x_min":131,"x_max":771,"o":"m 771 672 q 747 549 771 606 q 678 449 722 492 q 572 383 635 407 q 432 360 508 360 l 260 360 l 260 0 l 131 0 l 131 986 l 432 986 q 572 962 508 986 q 678 896 635 938 q 747 797 722 854 q 771 672 771 739 m 643 672 q 629 749 643 714 q 588 810 615 783 q 522 851 561 836 q 432 865 483 865 l 260 865 l 260 479 l 432 479 q 522 494 483 479 q 588 535 561 508 q 629 596 615 561 q 643 672 643 631 z "},"С":{"ha":1049,"x_min":63,"x_max":1008,"o":"m 572 -17 q 373 23 465 -17 q 211 131 281 63 q 102 293 142 200 q 63 493 63 386 q 102 693 63 600 q 211 855 142 786 q 373 963 281 924 q 572 1003 465 1003 q 828 938 714 1003 q 1008 764 942 874 l 900 699 q 765 831 849 782 q 572 881 681 881 q 422 851 492 881 q 302 768 353 821 q 222 644 251 715 q 193 493 193 574 q 222 341 193 411 q 302 218 251 271 q 422 135 353 165 q 572 106 492 106 q 765 155 681 106 q 900 288 849 204 l 1008 222 q 828 48 942 113 q 572 -17 714 -17 z "},"Т":{"ha":788,"x_min":24,"x_max":764,"o":"m 331 864 l 24 864 l 24 986 l 764 986 l 764 864 l 457 864 l 457 0 l 331 0 l 331 864 z "},"У":{"ha":968,"x_min":49,"x_max":972,"o":"m 199 111 q 234 106 217 108 q 278 104 251 104 q 356 128 322 104 q 422 211 390 151 l 435 235 l 49 986 l 194 986 l 508 374 l 832 986 l 972 986 l 557 200 q 438 36 499 89 q 289 -17 378 -17 q 226 -14 253 -17 q 174 -4 199 -11 l 199 111 z "},"Ф":{"ha":1206,"x_min":58,"x_max":1147,"o":"m 539 789 l 531 789 q 274 712 360 790 q 189 499 189 633 q 274 284 189 363 q 531 206 358 206 l 539 206 l 539 789 m 539 -42 l 539 88 l 532 88 q 335 116 422 88 q 185 197 247 144 q 91 326 124 250 q 58 499 58 403 q 91 670 58 594 q 185 799 124 746 q 335 879 247 851 q 532 907 422 907 l 539 907 l 539 1028 l 667 1028 l 667 907 l 674 907 q 871 879 783 907 q 1020 799 958 851 q 1115 670 1082 746 q 1147 499 1147 594 q 1114 326 1147 403 q 1019 197 1081 250 q 871 116 958 144 q 674 88 783 88 l 667 88 l 667 -42 l 539 -42 m 675 206 q 932 284 847 206 q 1017 499 1017 363 q 931 712 1017 633 q 675 789 846 790 l 667 789 l 667 206 l 675 206 z "},"Х":{"ha":931,"x_min":6,"x_max":925,"o":"m 6 0 l 386 499 l 21 986 l 175 986 l 465 601 l 756 986 l 910 986 l 546 499 l 925 0 l 768 0 l 465 394 l 164 0 l 6 0 z "},"Ц":{"ha":1057,"x_min":131,"x_max":1007,"o":"m 1007 122 l 1007 -206 l 886 -206 l 886 0 l 131 0 l 131 986 l 260 986 l 260 122 l 756 122 l 756 986 l 883 986 l 883 122 l 1007 122 z "},"Ч":{"ha":954,"x_min":64,"x_max":824,"o":"m 694 0 l 694 419 q 561 385 635 399 q 404 372 488 372 q 265 392 328 372 q 158 451 203 413 q 88 548 113 490 q 64 681 64 606 l 64 986 l 193 986 l 193 700 q 210 602 193 642 q 258 538 228 563 q 331 503 289 514 q 424 493 374 493 q 563 505 494 493 q 694 542 632 517 l 694 986 l 824 986 l 824 0 l 694 0 z "},"Ш":{"ha":1371,"x_min":131,"x_max":1240,"o":"m 131 986 l 260 986 l 260 122 l 621 122 l 621 986 l 750 986 l 750 122 l 1111 122 l 1111 986 l 1240 986 l 1240 0 l 131 0 l 131 986 z "},"Щ":{"ha":1414,"x_min":131,"x_max":1364,"o":"m 1242 0 l 131 0 l 131 986 l 260 986 l 260 122 l 621 122 l 621 986 l 750 986 l 750 122 l 1111 122 l 1111 986 l 1240 986 l 1240 122 l 1364 122 l 1364 -206 l 1242 -206 l 1242 0 z "},"Ъ":{"ha":985,"x_min":24,"x_max":939,"o":"m 601 590 q 742 569 679 590 q 848 509 804 547 q 915 417 892 471 q 939 296 939 363 q 915 175 939 229 q 848 82 892 121 q 742 22 804 43 q 601 0 679 0 l 289 0 l 289 864 l 24 864 l 24 986 l 418 986 l 418 590 l 601 590 m 599 119 q 755 165 700 119 q 810 296 810 210 q 755 425 810 379 q 599 471 700 471 l 418 471 l 418 119 l 599 119 z "},"Ы":{"ha":1179,"x_min":131,"x_max":1049,"o":"m 443 590 q 583 569 521 590 q 688 509 644 547 q 756 417 732 471 q 779 296 779 363 q 756 175 779 229 q 688 82 732 121 q 583 22 644 43 q 443 0 521 0 l 131 0 l 131 986 l 260 986 l 260 590 l 443 590 m 439 119 q 597 165 542 119 q 651 296 651 210 q 597 425 651 379 q 439 471 542 471 l 260 471 l 260 119 l 439 119 m 919 986 l 1049 986 l 1049 0 l 919 0 l 919 986 z "},"Ь":{"ha":826,"x_min":131,"x_max":779,"o":"m 443 590 q 583 569 521 590 q 688 509 644 547 q 756 417 732 471 q 779 296 779 363 q 756 175 779 229 q 688 82 732 121 q 583 22 644 43 q 443 0 521 0 l 131 0 l 131 986 l 260 986 l 260 590 l 443 590 m 439 119 q 597 165 542 119 q 651 296 651 210 q 597 425 651 379 q 439 471 542 471 l 260 471 l 260 119 l 439 119 z "},"Э":{"ha":1049,"x_min":40,"x_max":986,"o":"m 476 -17 q 676 23 583 -17 q 838 131 768 63 q 947 293 907 200 q 986 493 986 386 q 947 693 986 600 q 838 855 907 786 q 676 963 768 924 q 476 1003 583 1003 q 342 985 406 1003 q 222 937 278 968 q 120 862 165 906 q 40 764 74 818 l 149 699 q 284 830 200 781 q 476 879 368 879 q 612 855 549 879 q 724 788 675 831 q 806 685 774 744 q 850 558 839 626 l 344 558 l 344 439 l 853 439 q 811 307 843 368 q 729 201 779 246 q 615 131 679 156 q 476 106 550 106 q 284 155 368 106 q 149 286 200 204 l 40 221 q 120 123 74 167 q 222 48 165 79 q 342 0 278 17 q 476 -17 406 -17 z "},"Ю":{"ha":1483,"x_min":131,"x_max":1419,"o":"m 131 986 l 260 986 l 260 564 l 435 564 q 490 739 447 658 q 597 878 532 819 q 745 969 661 936 q 925 1003 829 1003 q 1119 964 1029 1003 q 1276 856 1210 925 q 1381 694 1343 788 q 1419 493 1419 601 q 1381 292 1419 385 q 1276 130 1343 199 q 1119 22 1210 61 q 925 -17 1029 -17 q 741 18 826 -17 q 590 115 656 53 q 482 260 524 176 q 432 443 440 344 l 260 443 l 260 0 l 131 0 l 131 986 m 1290 493 q 1263 646 1290 575 q 1185 769 1235 717 q 1069 851 1136 821 q 925 881 1003 881 q 781 851 847 881 q 665 769 714 821 q 589 646 617 717 q 561 493 561 575 q 589 340 561 411 q 665 217 617 269 q 781 135 714 165 q 925 106 847 106 q 1069 135 1003 106 q 1185 217 1136 165 q 1263 340 1235 269 q 1290 493 1290 411 z "},"Я":{"ha":875,"x_min":-12,"x_max":743,"o":"m 615 401 l 492 401 l 149 0 l -12 0 l 349 419 q 176 518 238 443 q 115 696 115 593 q 138 813 115 760 q 204 904 161 865 q 309 965 247 943 q 449 986 371 986 l 743 986 l 743 0 l 615 0 l 615 401 m 243 696 q 297 568 243 615 q 453 521 351 521 l 615 521 l 615 867 l 453 867 q 297 820 351 867 q 243 696 243 774 z "},"Ѕ":{"ha":769,"x_min":50,"x_max":710,"o":"m 396 -17 q 281 -3 335 -17 q 181 34 226 10 q 103 91 136 58 q 50 161 69 124 l 154 239 q 255 140 194 176 q 399 104 315 104 q 528 143 475 104 q 581 251 581 182 q 544 351 581 311 q 439 418 508 392 l 308 468 q 138 575 192 511 q 85 740 85 639 q 108 849 85 800 q 173 932 132 897 q 270 985 214 967 q 393 1003 326 1003 q 560 965 486 1003 q 681 868 635 928 l 586 785 q 501 856 549 829 q 390 882 454 882 q 322 872 354 882 q 265 844 289 863 q 226 801 240 826 q 213 746 213 776 q 249 649 213 683 q 361 588 286 615 l 481 542 q 650 433 590 500 q 710 257 710 367 q 686 144 710 194 q 621 58 663 93 q 522 3 579 22 q 396 -17 464 -17 z "},"Є":{"ha":1049,"x_min":63,"x_max":1008,"o":"m 572 -17 q 373 23 465 -17 q 211 131 281 63 q 102 293 142 200 q 63 493 63 386 q 102 693 63 600 q 211 855 142 786 q 373 963 281 924 q 572 1003 465 1003 q 707 985 643 1003 q 827 937 771 968 q 929 862 883 906 q 1008 764 975 818 l 900 699 q 765 830 849 781 q 572 879 681 879 q 437 855 500 879 q 324 788 374 831 q 242 685 275 744 q 199 558 210 626 l 704 558 l 704 439 l 196 439 q 238 307 206 368 q 319 201 269 246 q 434 131 369 156 q 572 106 499 106 q 765 155 681 106 q 900 286 849 204 l 1008 221 q 929 123 975 167 q 827 48 883 79 q 707 0 771 17 q 572 -17 643 -17 z "},"І":{"ha":390,"x_min":131,"x_max":260,"o":"m 131 986 l 260 986 l 260 0 l 131 0 l 131 986 z "},"Ј":{"ha":651,"x_min":7,"x_max":529,"o":"m 257 -17 q 107 15 169 -17 q 7 92 44 47 l 92 182 q 160 125 124 147 q 256 103 197 103 q 361 142 321 103 q 401 275 401 181 l 401 986 l 529 986 l 529 269 q 508 142 529 196 q 451 52 488 88 q 365 0 414 17 q 257 -17 315 -17 z "},"Џ":{"ha":1029,"x_min":131,"x_max":899,"o":"m 576 -206 l 454 -206 l 454 0 l 131 0 l 131 986 l 260 986 l 260 122 l 769 122 l 769 986 l 899 986 l 899 0 l 576 0 l 576 -206 z "},"Љ":{"ha":1433,"x_min":17,"x_max":1388,"o":"m 1260 288 q 1207 401 1260 358 q 1051 444 1154 444 l 879 444 l 879 121 l 1051 121 q 1207 163 1154 121 q 1260 288 1260 206 m 879 986 l 879 565 l 1053 565 q 1194 544 1132 565 q 1299 487 1257 524 q 1365 399 1342 450 q 1388 290 1388 349 q 1365 173 1388 226 q 1298 81 1342 119 q 1192 22 1254 43 q 1053 0 1131 0 l 751 0 l 751 864 l 322 864 l 322 264 q 306 133 322 186 q 260 46 289 79 q 191 -2 231 13 q 106 -17 151 -17 q 57 -13 78 -17 q 17 -6 36 -10 l 40 108 q 93 103 64 103 q 138 111 118 103 q 169 140 157 119 q 188 194 182 160 q 194 283 194 229 l 194 986 l 879 986 z "},"Њ":{"ha":1450,"x_min":131,"x_max":1406,"o":"m 131 986 l 260 986 l 260 565 l 772 565 l 772 986 l 900 986 l 900 565 l 1071 565 q 1213 544 1150 565 q 1317 487 1275 524 q 1383 399 1360 450 q 1406 290 1406 349 q 1383 173 1406 226 q 1316 81 1360 119 q 1210 22 1272 43 q 1071 0 1149 0 l 772 0 l 772 444 l 260 444 l 260 0 l 131 0 l 131 986 m 900 444 l 900 121 l 1069 121 q 1225 163 1172 121 q 1278 288 1278 206 q 1225 401 1278 358 q 1069 444 1172 444 l 900 444 z "},"Ђ":{"ha":1040,"x_min":25,"x_max":992,"o":"m 672 614 q 820 588 760 614 q 919 516 881 561 q 974 411 957 471 q 992 285 992 351 q 967 152 992 208 q 899 58 942 96 q 801 2 857 21 q 681 -17 744 -17 q 609 -13 640 -17 q 550 -4 578 -10 l 571 114 q 624 106 600 108 q 681 103 649 103 q 749 113 715 103 q 808 145 782 124 q 849 201 833 167 q 864 283 864 235 q 815 438 864 383 q 657 492 767 492 q 522 478 582 492 q 396 442 461 465 l 396 0 l 267 0 l 267 864 l 25 864 l 25 986 l 707 986 l 707 864 l 396 864 l 396 564 q 528 601 463 588 q 672 614 594 614 z "},"Ћ":{"ha":1056,"x_min":25,"x_max":990,"o":"m 25 864 l 25 986 l 707 986 l 707 864 l 396 864 l 396 564 q 530 601 463 589 q 676 614 597 614 q 805 592 747 614 q 904 532 863 571 q 968 438 946 493 q 990 317 990 383 l 990 0 l 863 0 l 863 296 q 810 441 863 390 q 663 492 758 492 q 526 479 592 492 q 396 442 461 467 l 396 0 l 267 0 l 267 864 l 25 864 z "},"Ѵ":{"ha":1072,"x_min":13,"x_max":1064,"o":"m 488 203 l 744 804 q 792 901 768 863 q 842 962 815 939 q 899 994 868 985 q 969 1003 931 1003 q 1021 999 997 1003 q 1064 989 1044 994 l 1035 874 q 979 878 1003 879 q 937 866 956 878 q 901 829 918 854 q 868 763 885 804 l 542 0 l 433 0 l 13 986 l 154 986 l 488 203 z "},"Ү":{"ha":936,"x_min":21,"x_max":917,"o":"m 404 418 l 21 986 l 175 986 l 468 547 l 763 986 l 917 986 l 532 417 l 532 0 l 404 0 l 404 418 z "},"Һ":{"ha":954,"x_min":131,"x_max":890,"o":"m 260 986 l 260 567 q 393 601 319 588 q 550 614 467 614 q 689 594 626 614 q 797 535 751 574 q 866 438 842 496 q 890 306 890 381 l 890 0 l 761 0 l 761 286 q 744 384 761 344 q 696 448 726 424 q 623 483 665 472 q 531 493 581 493 q 391 481 460 493 q 260 444 322 469 l 260 0 l 131 0 l 131 986 l 260 986 z "},"Ӏ":{"ha":390,"x_min":131,"x_max":260,"o":"m 131 986 l 260 986 l 260 0 l 131 0 l 131 986 z "},"Ә":{"ha":1131,"x_min":47,"x_max":1067,"o":"m 47 560 l 932 560 q 884 696 919 636 q 797 797 849 756 q 683 859 746 838 q 556 881 621 881 q 396 849 472 881 q 268 765 319 818 l 181 854 q 349 963 250 922 q 557 1003 447 1003 q 756 964 663 1003 q 918 856 849 925 q 1027 694 988 788 q 1067 493 1067 601 q 1027 293 1067 386 q 919 131 988 200 q 757 23 850 63 q 557 -17 664 -17 q 357 23 450 -17 q 195 131 264 63 q 87 293 126 200 q 47 493 47 386 l 47 560 m 557 106 q 691 129 626 106 q 807 197 756 153 q 892 304 858 242 q 935 444 926 367 l 182 444 q 220 310 189 372 q 301 203 251 249 q 417 131 351 157 q 557 106 482 106 z "},"Ѣ":{"ha":989,"x_min":39,"x_max":940,"o":"m 604 585 q 743 564 681 585 q 849 505 806 543 q 917 413 893 467 q 940 293 940 358 q 917 174 940 228 q 849 81 893 119 q 743 21 806 42 q 604 0 681 0 l 292 0 l 292 740 l 39 740 l 39 850 l 292 850 l 292 986 l 419 986 l 419 850 l 733 850 l 733 740 l 419 740 l 419 585 l 604 585 m 600 119 q 758 165 703 119 q 813 293 813 210 q 758 421 813 376 q 600 465 703 465 l 419 465 l 419 119 l 600 119 z "},"Й":{"ha":1103,"x_min":131,"x_max":971,"o":"m 131 0 l 131 986 l 260 986 l 260 219 l 860 986 l 971 986 l 971 0 l 843 0 l 843 768 l 243 0 l 131 0 m 564 1054 q 478 1069 518 1054 q 408 1113 438 1085 q 360 1183 378 1142 q 343 1274 343 1224 l 435 1274 q 470 1174 435 1211 q 564 1136 506 1136 q 658 1174 622 1136 q 693 1274 693 1211 l 785 1274 q 767 1183 785 1224 q 720 1113 750 1142 q 650 1069 690 1085 q 564 1054 610 1054 z "},"Ё":{"ha":774,"x_min":131,"x_max":706,"o":"m 131 986 l 706 986 l 706 864 l 260 864 l 260 565 l 622 565 l 622 443 l 260 443 l 260 122 l 706 122 l 706 0 l 131 0 l 131 986 m 581 1088 q 519 1112 544 1088 q 494 1172 494 1136 q 519 1232 494 1207 q 581 1257 544 1257 q 641 1232 617 1257 q 665 1172 665 1207 q 641 1112 665 1136 q 581 1088 617 1088 m 254 1088 q 192 1112 218 1088 q 167 1172 167 1136 q 192 1232 167 1207 q 253 1257 217 1257 q 314 1232 289 1257 q 339 1172 339 1207 q 315 1112 339 1136 q 254 1088 290 1088 z "},"Ќ":{"ha":932,"x_min":131,"x_max":964,"o":"m 258 469 l 258 0 l 131 0 l 131 986 l 258 986 l 258 558 l 689 986 l 857 986 l 388 517 l 964 0 l 782 0 l 258 469 m 538 1257 l 689 1257 l 529 1067 l 429 1067 l 538 1257 z "},"Ґ":{"ha":713,"x_min":131,"x_max":688,"o":"m 688 864 l 260 864 l 260 0 l 131 0 l 131 986 l 688 986 l 688 864 m 565 986 l 565 1192 l 688 1192 l 688 986 l 565 986 z "},"Ѓ":{"ha":713,"x_min":131,"x_max":688,"o":"m 688 864 l 260 864 l 260 0 l 131 0 l 131 986 l 688 986 l 688 864 m 471 1257 l 622 1257 l 463 1067 l 363 1067 l 471 1257 z "},"Ў":{"ha":968,"x_min":49,"x_max":972,"o":"m 199 111 q 234 106 217 108 q 278 104 251 104 q 356 128 322 104 q 422 211 390 151 l 435 235 l 49 986 l 194 986 l 508 374 l 832 986 l 972 986 l 557 200 q 438 36 499 89 q 289 -17 378 -17 q 226 -14 253 -17 q 174 -4 199 -11 l 199 111 m 513 1054 q 426 1069 467 1054 q 356 1113 386 1085 q 309 1183 326 1142 q 292 1274 292 1224 l 383 1274 q 419 1174 383 1211 q 513 1136 454 1136 q 606 1174 571 1136 q 642 1274 642 1211 l 733 1274 q 716 1183 733 1224 q 669 1113 699 1142 q 599 1069 639 1085 q 513 1054 558 1054 z "},"Ї":{"ha":390,"x_min":-25,"x_max":415,"o":"m 131 986 l 260 986 l 260 0 l 131 0 l 131 986 m 331 1086 q 269 1110 294 1086 q 244 1171 244 1135 q 269 1231 244 1206 q 331 1256 294 1256 q 391 1231 367 1256 q 415 1171 415 1206 q 391 1110 415 1135 q 331 1086 367 1086 m 61 1086 q 0 1110 25 1086 q -25 1171 -25 1135 q 0 1231 -25 1206 q 61 1256 25 1256 q 122 1231 97 1256 q 146 1171 146 1206 q 122 1110 146 1135 q 61 1086 97 1086 z "},"Ѳ":{"ha":1146,"x_min":63,"x_max":1082,"o":"m 572 106 q 723 135 653 106 q 844 218 793 165 q 924 341 894 271 q 953 493 953 411 q 924 644 953 574 q 844 768 894 715 q 723 851 793 821 q 572 881 653 881 q 422 851 492 881 q 302 768 353 821 q 222 644 251 715 q 193 493 193 574 q 222 341 193 411 q 302 218 251 271 q 422 135 353 165 q 572 106 492 106 m 572 -17 q 373 23 465 -17 q 211 131 281 63 q 102 293 142 200 q 63 493 63 386 q 102 693 63 600 q 211 855 142 786 q 373 963 281 924 q 572 1003 465 1003 q 772 963 679 1003 q 934 855 865 924 q 1042 693 1003 786 q 1082 493 1082 600 q 1042 293 1082 386 q 934 131 1003 200 q 772 23 865 63 q 572 -17 679 -17 m 747 519 q 858 536 800 519 q 961 585 917 553 l 961 468 q 858 419 917 436 q 747 403 799 403 q 655 413 699 403 q 569 435 611 424 q 484 458 526 447 q 399 468 442 468 q 288 451 346 468 q 185 403 229 435 l 185 519 q 288 568 229 551 q 399 585 347 585 q 496 574 453 585 q 579 552 539 564 q 660 530 619 540 q 747 519 700 519 z "},"Ө":{"ha":1146,"x_min":63,"x_max":1082,"o":"m 572 106 q 723 135 653 106 q 844 218 793 165 q 924 341 894 271 q 953 493 953 411 q 924 644 953 574 q 844 768 894 715 q 723 851 793 821 q 572 881 653 881 q 422 851 492 881 q 302 768 353 821 q 222 644 251 715 q 193 493 193 574 q 222 341 193 411 q 302 218 251 271 q 422 135 353 165 q 572 106 492 106 m 572 -17 q 373 23 465 -17 q 211 131 281 63 q 102 293 142 200 q 63 493 63 386 q 102 693 63 600 q 211 855 142 786 q 373 963 281 924 q 572 1003 465 1003 q 772 963 679 1003 q 934 855 865 924 q 1042 693 1003 786 q 1082 493 1082 600 q 1042 293 1082 386 q 934 131 1003 200 q 772 23 865 63 q 572 -17 679 -17 m 128 553 l 1017 553 l 1017 435 l 128 435 l 128 553 z "},"Ғ":{"ha":739,"x_min":28,"x_max":710,"o":"m 710 864 l 282 864 l 282 0 l 153 0 l 153 986 l 710 986 l 710 864 m 28 557 l 532 557 l 532 439 l 28 439 l 28 557 z "},"Ұ":{"ha":932,"x_min":19,"x_max":915,"o":"m 403 418 l 19 986 l 174 986 l 467 547 l 761 986 l 915 986 l 531 417 l 531 0 l 403 0 l 403 418 m 746 300 l 185 300 l 185 418 l 746 418 l 746 300 z "},"Ӣ":{"ha":1103,"x_min":131,"x_max":971,"o":"m 131 0 l 131 986 l 260 986 l 260 219 l 860 986 l 971 986 l 971 0 l 843 0 l 843 768 l 243 0 l 131 0 m 340 1214 l 788 1214 l 788 1118 l 340 1118 l 340 1214 z "},"Ӯ":{"ha":968,"x_min":49,"x_max":972,"o":"m 199 111 q 234 106 217 108 q 278 104 251 104 q 356 128 322 104 q 422 211 390 151 l 435 235 l 49 986 l 194 986 l 508 374 l 832 986 l 972 986 l 557 200 q 438 36 499 89 q 289 -17 378 -17 q 226 -14 253 -17 q 174 -4 199 -11 l 199 111 m 289 1214 l 736 1214 l 736 1118 l 289 1118 l 289 1214 z "},"Җ":{"ha":1375,"x_min":-12,"x_max":1371,"o":"m 736 440 l 736 0 l 607 0 l 607 440 l 158 0 l -12 0 l 485 490 l 28 986 l 186 986 l 607 529 l 607 986 l 736 986 l 736 529 l 1157 986 l 1315 986 l 858 490 l 1356 0 l 1185 0 l 736 440 m 1249 0 l 1211 0 l 1211 122 l 1371 122 l 1371 -206 l 1249 -206 l 1249 0 z "},"Қ":{"ha":964,"x_min":131,"x_max":969,"o":"m 258 469 l 258 0 l 131 0 l 131 986 l 258 986 l 258 558 l 689 986 l 857 986 l 388 517 l 964 0 l 782 0 l 258 469 m 847 0 l 810 0 l 810 122 l 969 122 l 969 -206 l 847 -206 l 847 0 z "},"Ң":{"ha":1101,"x_min":131,"x_max":1053,"o":"m 131 986 l 260 986 l 260 565 l 800 565 l 800 986 l 929 986 l 929 0 l 800 0 l 800 444 l 260 444 l 260 0 l 131 0 l 131 986 m 931 0 l 893 0 l 893 122 l 1053 122 l 1053 -206 l 931 -206 l 931 0 z "},"Ҳ":{"ha":978,"x_min":6,"x_max":969,"o":"m 6 0 l 386 499 l 21 986 l 175 986 l 465 601 l 756 986 l 910 986 l 546 499 l 925 0 l 768 0 l 465 394 l 164 0 l 6 0 m 847 0 l 810 0 l 810 122 l 969 122 l 969 -206 l 847 -206 l 847 0 z "},"Ҷ":{"ha":997,"x_min":64,"x_max":947,"o":"m 694 0 l 694 419 q 561 385 635 399 q 404 372 488 372 q 265 392 328 372 q 158 451 203 413 q 88 548 113 490 q 64 681 64 606 l 64 986 l 193 986 l 193 700 q 210 602 193 642 q 258 538 228 563 q 331 503 289 514 q 424 493 374 493 q 563 505 494 493 q 694 542 632 517 l 694 986 l 824 986 l 824 0 l 694 0 m 825 0 l 788 0 l 788 122 l 947 122 l 947 -206 l 825 -206 l 825 0 z "},"а":{"ha":867,"x_min":58,"x_max":753,"o":"m 407 -14 q 265 15 329 -14 q 156 92 201 43 q 84 208 110 142 q 58 347 58 274 q 84 487 58 421 q 156 602 110 553 q 265 680 201 651 q 407 708 329 708 q 533 685 475 708 q 633 618 592 663 l 633 694 l 753 694 l 753 0 l 633 0 l 633 76 q 533 9 592 32 q 407 -14 475 -14 m 417 96 q 549 129 496 96 q 633 211 603 163 l 633 485 q 549 566 603 533 q 417 599 496 599 q 321 579 364 599 q 247 525 278 560 q 198 444 215 490 q 181 347 181 399 q 198 249 181 294 q 247 169 215 204 q 321 115 278 135 q 417 96 364 96 z "},"б":{"ha":868,"x_min":86,"x_max":810,"o":"m 446 -14 q 297 15 364 -14 q 183 95 231 43 q 111 219 136 147 q 86 379 86 292 l 86 450 q 108 673 86 578 q 178 834 131 768 q 301 940 226 900 q 478 1000 375 981 l 717 1044 l 736 933 l 504 890 q 374 851 426 876 q 288 787 322 825 q 234 696 253 749 q 207 574 215 643 q 323 667 256 639 q 463 694 390 694 q 608 667 543 694 q 717 592 672 639 q 785 482 761 544 q 810 350 810 419 q 783 208 810 275 q 708 92 756 142 q 592 15 660 43 q 446 -14 525 -14 m 446 97 q 543 116 499 97 q 619 168 588 135 q 669 248 651 201 q 688 350 688 294 q 669 445 688 401 q 620 520 651 489 q 544 569 589 551 q 449 586 500 586 q 350 568 394 586 q 274 518 306 550 q 224 443 242 486 q 207 350 207 400 q 224 248 207 294 q 274 168 242 201 q 349 116 306 135 q 446 97 393 97 z "},"в":{"ha":757,"x_min":113,"x_max":699,"o":"m 113 694 l 415 694 q 593 642 533 694 q 653 506 653 590 q 637 432 653 465 q 585 371 621 399 q 671 299 643 343 q 699 201 699 256 q 684 124 699 161 q 640 60 669 88 q 563 16 610 32 q 449 0 515 0 l 113 0 l 113 694 m 456 104 q 543 131 510 104 q 576 208 576 158 q 543 285 576 258 q 456 311 510 311 l 232 311 l 232 104 l 456 104 m 425 407 q 499 427 465 407 q 532 500 532 447 q 523 544 532 526 q 499 572 514 561 q 465 587 483 582 q 425 592 446 592 l 232 592 l 232 407 l 425 407 z "},"г":{"ha":571,"x_min":113,"x_max":547,"o":"m 113 694 l 547 694 l 547 585 l 232 585 l 232 0 l 113 0 l 113 694 z "},"д":{"ha":868,"x_min":46,"x_max":818,"o":"m 63 110 q 100 119 82 110 q 132 152 118 128 q 154 220 146 176 q 163 335 163 264 l 163 694 l 714 694 l 714 110 l 818 110 l 818 -175 l 706 -175 l 706 0 l 158 0 l 158 -175 l 46 -175 l 46 110 l 63 110 m 282 315 q 279 241 282 272 q 271 186 276 210 q 257 144 265 163 q 239 110 249 126 l 594 110 l 594 585 l 282 585 l 282 315 z "},"е":{"ha":807,"x_min":58,"x_max":750,"o":"m 418 -14 q 271 14 338 -14 q 157 90 204 42 q 84 205 110 139 q 58 347 58 271 q 85 490 58 424 q 159 604 111 556 q 274 681 207 653 q 419 708 340 708 q 547 685 488 708 q 652 617 607 663 q 724 508 697 572 q 750 360 750 443 q 750 342 750 350 q 749 324 750 335 l 179 324 q 199 233 181 275 q 249 161 218 192 q 324 113 281 131 q 419 96 368 96 q 552 128 500 96 q 636 217 604 161 l 731 151 q 605 31 683 75 q 418 -14 526 -14 m 628 421 q 602 497 621 464 q 555 554 583 531 q 490 590 526 578 q 415 603 454 603 q 339 590 376 603 q 271 555 301 578 q 218 498 240 532 q 188 421 196 464 l 628 421 z "},"ж":{"ha":1081,"x_min":-6,"x_max":1086,"o":"m 600 308 l 600 0 l 481 0 l 481 308 l 153 0 l -6 0 l 367 354 l 43 694 l 192 694 l 481 386 l 481 694 l 600 694 l 600 386 l 890 694 l 1038 694 l 714 354 l 1086 0 l 928 0 l 600 308 z "},"з":{"ha":660,"x_min":38,"x_max":596,"o":"m 321 -14 q 38 128 136 -14 l 126 188 q 206 116 158 143 q 317 89 253 89 q 439 122 403 89 q 475 203 475 154 q 440 283 475 254 q 326 313 404 313 l 222 313 l 222 410 l 325 410 q 419 434 385 410 q 453 508 453 458 q 417 583 453 557 q 318 608 381 608 q 222 586 267 608 q 146 524 178 564 l 61 585 q 172 676 106 643 q 322 708 239 708 q 428 693 382 708 q 506 652 475 678 q 552 591 536 626 q 568 515 568 556 q 547 430 568 468 q 482 365 526 392 q 565 297 535 342 q 596 193 596 251 q 578 113 596 151 q 526 47 561 75 q 440 3 492 19 q 321 -14 389 -14 z "},"и":{"ha":843,"x_min":113,"x_max":729,"o":"m 113 0 l 113 694 l 232 694 l 232 185 l 624 694 l 729 694 l 729 0 l 611 0 l 611 510 l 219 0 l 113 0 z "},"к":{"ha":728,"x_min":113,"x_max":743,"o":"m 232 310 l 232 0 l 113 0 l 113 694 l 232 694 l 232 386 l 540 694 l 692 694 l 351 354 l 743 0 l 578 0 l 232 310 z "},"л":{"ha":807,"x_min":18,"x_max":693,"o":"m 90 -10 q 50 -8 67 -10 q 18 -1 33 -6 l 35 101 q 54 98 46 99 q 74 97 63 97 q 135 126 113 97 q 157 235 157 156 l 157 694 l 693 694 l 693 0 l 574 0 l 574 585 l 276 585 l 276 210 q 223 44 276 99 q 90 -10 169 -10 z "},"м":{"ha":960,"x_min":113,"x_max":847,"o":"m 221 694 l 481 303 l 738 694 l 847 694 l 847 0 l 728 0 l 728 490 l 522 178 l 438 178 l 232 490 l 232 0 l 113 0 l 113 694 l 221 694 z "},"н":{"ha":843,"x_min":113,"x_max":731,"o":"m 113 694 l 232 694 l 232 408 l 611 408 l 611 694 l 731 694 l 731 0 l 611 0 l 611 300 l 232 300 l 232 0 l 113 0 l 113 694 z "},"о":{"ha":842,"x_min":57,"x_max":783,"o":"m 421 -14 q 275 15 342 -14 q 160 92 208 43 q 84 206 111 140 q 57 347 57 272 q 84 488 57 422 q 160 603 111 554 q 275 680 208 651 q 421 708 342 708 q 565 680 499 708 q 681 603 632 651 q 756 488 729 554 q 783 347 783 422 q 756 206 783 272 q 681 92 729 140 q 565 15 632 43 q 421 -14 499 -14 m 421 97 q 519 117 475 97 q 595 170 564 136 q 644 249 626 204 q 661 347 661 294 q 644 444 661 399 q 595 524 626 490 q 519 578 564 558 q 421 597 475 597 q 322 578 367 597 q 246 524 278 558 q 197 444 214 490 q 179 347 179 399 q 197 249 179 294 q 246 170 214 204 q 322 117 278 136 q 421 97 367 97 z "},"п":{"ha":828,"x_min":113,"x_max":715,"o":"m 113 694 l 715 694 l 715 0 l 596 0 l 596 585 l 232 585 l 232 0 l 113 0 l 113 694 z "},"р":{"ha":867,"x_min":113,"x_max":808,"o":"m 113 694 l 232 694 l 232 618 q 333 685 275 663 q 458 708 392 708 q 601 680 536 708 q 711 602 665 651 q 783 487 757 553 q 808 347 808 421 q 783 208 808 274 q 711 92 757 142 q 601 15 665 43 q 458 -14 536 -14 q 333 9 392 -14 q 232 76 275 32 l 232 -269 l 113 -269 l 113 694 m 449 96 q 544 115 501 96 q 619 169 588 135 q 667 249 650 204 q 685 347 685 294 q 667 444 685 399 q 619 525 650 490 q 544 579 588 560 q 449 599 501 599 q 317 566 371 599 q 232 485 263 533 l 232 211 q 317 129 263 163 q 449 96 371 96 z "},"с":{"ha":785,"x_min":58,"x_max":743,"o":"m 422 -14 q 276 14 343 -14 q 161 91 210 42 q 85 206 113 140 q 58 347 58 272 q 85 488 58 422 q 161 603 113 554 q 276 681 210 653 q 422 708 343 708 q 614 657 531 708 q 743 522 697 606 l 639 464 q 553 560 610 524 q 422 597 497 597 q 324 578 368 597 q 247 524 279 558 q 197 444 214 490 q 179 347 179 399 q 197 249 179 294 q 247 170 214 204 q 324 117 279 136 q 422 97 368 97 q 553 134 497 97 q 639 231 610 171 l 743 172 q 614 38 697 89 q 422 -14 531 -14 z "},"т":{"ha":618,"x_min":24,"x_max":594,"o":"m 244 585 l 24 585 l 24 694 l 594 694 l 594 585 l 364 585 l 364 0 l 244 0 l 244 585 z "},"у":{"ha":761,"x_min":11,"x_max":753,"o":"m 389 -96 q 295 -233 346 -190 q 164 -276 244 -276 q 69 -265 110 -276 l 90 -161 q 121 -166 106 -164 q 156 -168 136 -168 q 218 -146 190 -168 q 274 -62 246 -124 l 318 32 l 11 694 l 143 694 l 383 171 l 619 694 l 753 694 l 389 -96 z "},"ф":{"ha":1017,"x_min":58,"x_max":958,"o":"m 449 -269 l 449 -14 l 440 -14 q 278 15 349 -14 q 158 94 207 44 q 84 210 110 144 q 58 347 58 275 q 84 485 58 419 q 158 600 110 550 q 278 679 207 650 q 440 708 349 708 l 449 708 l 449 1014 l 568 1014 l 568 708 l 576 708 q 739 679 668 708 q 858 600 810 650 q 933 485 907 550 q 958 347 958 419 q 933 210 958 275 q 858 94 907 144 q 739 15 810 44 q 576 -14 668 -14 l 568 -14 l 568 -269 l 449 -269 m 568 599 l 568 96 l 576 96 q 688 115 639 96 q 769 169 736 135 q 820 249 803 203 q 838 347 838 294 q 819 446 838 400 q 768 526 801 492 q 686 579 735 560 q 576 599 638 599 l 568 599 m 449 599 l 440 599 q 331 579 379 599 q 249 526 282 560 q 197 446 215 492 q 179 347 179 400 q 197 249 179 294 q 247 169 214 203 q 329 115 281 135 q 440 96 378 96 l 449 96 l 449 599 z "},"х":{"ha":736,"x_min":8,"x_max":726,"o":"m 368 263 l 157 0 l 8 0 l 293 351 l 32 694 l 176 694 l 368 443 l 558 694 l 704 694 l 442 351 l 726 0 l 579 0 l 368 263 z "},"ц":{"ha":864,"x_min":113,"x_max":817,"o":"m 817 -175 l 704 -175 l 704 0 l 113 0 l 113 694 l 232 694 l 232 110 l 590 110 l 590 694 l 710 694 l 710 110 l 817 110 l 817 -175 z "},"ч":{"ha":754,"x_min":56,"x_max":640,"o":"m 521 0 l 521 282 q 424 247 476 258 q 318 236 371 236 q 211 253 260 236 q 128 301 163 269 q 75 378 94 332 q 56 483 56 424 l 56 694 l 175 694 l 175 496 q 188 424 175 453 q 224 377 201 394 q 276 353 246 360 q 340 346 307 346 q 430 357 381 346 q 521 393 479 368 l 521 694 l 640 694 l 640 0 l 521 0 z "},"ш":{"ha":1138,"x_min":113,"x_max":1024,"o":"m 113 694 l 232 694 l 232 110 l 508 110 l 508 694 l 628 694 l 628 110 l 904 110 l 904 694 l 1024 694 l 1024 0 l 113 0 l 113 694 z "},"щ":{"ha":1179,"x_min":113,"x_max":1131,"o":"m 1131 -175 l 1018 -175 l 1018 0 l 113 0 l 113 694 l 232 694 l 232 110 l 508 110 l 508 694 l 628 694 l 628 110 l 904 110 l 904 694 l 1024 694 l 1024 110 l 1131 110 l 1131 -175 z "},"ъ":{"ha":796,"x_min":25,"x_max":753,"o":"m 219 588 l 25 588 l 25 694 l 339 694 l 339 444 l 499 444 q 614 425 565 444 q 693 374 663 406 q 738 303 724 343 q 753 224 753 264 q 738 142 753 182 q 692 71 724 103 q 613 19 661 39 q 497 0 565 0 l 219 0 l 219 588 m 339 108 l 493 108 q 598 139 561 108 q 635 224 635 169 q 598 307 635 278 q 494 336 561 336 l 339 336 l 339 108 z "},"ы":{"ha":988,"x_min":113,"x_max":874,"o":"m 754 694 l 874 694 l 874 0 l 754 0 l 754 694 m 113 694 l 232 694 l 232 444 l 393 444 q 508 425 460 444 q 588 374 557 406 q 633 303 618 343 q 647 224 647 264 q 633 142 647 182 q 587 71 618 103 q 507 19 556 39 q 392 0 458 0 l 113 0 l 113 694 m 232 108 l 388 108 q 491 139 454 108 q 528 224 528 169 q 492 307 528 278 q 389 336 456 336 l 232 336 l 232 108 z "},"ь":{"ha":689,"x_min":113,"x_max":647,"o":"m 113 694 l 232 694 l 232 444 l 393 444 q 508 425 460 444 q 588 374 557 406 q 633 303 618 343 q 647 224 647 264 q 633 142 647 182 q 587 71 618 103 q 507 19 556 39 q 392 0 458 0 l 113 0 l 113 694 m 232 108 l 388 108 q 491 139 454 108 q 528 224 528 169 q 492 307 528 278 q 389 336 456 336 l 232 336 l 232 108 z "},"э":{"ha":785,"x_min":42,"x_max":726,"o":"m 363 -14 q 508 14 442 -14 q 624 91 575 42 q 699 206 672 140 q 726 347 726 272 q 699 488 726 422 q 624 603 672 554 q 508 681 575 653 q 363 708 442 708 q 171 657 254 708 q 42 522 88 606 l 146 464 q 231 560 175 524 q 363 597 288 597 q 449 583 410 597 q 519 542 489 568 q 571 480 550 515 q 600 403 592 444 l 279 403 l 279 303 l 603 303 q 576 221 596 258 q 524 156 556 183 q 452 113 493 128 q 363 97 411 97 q 231 134 288 97 q 146 231 175 171 l 42 172 q 171 38 88 89 q 363 -14 254 -14 z "},"ю":{"ha":1117,"x_min":113,"x_max":1058,"o":"m 710 -14 q 581 10 640 -14 q 476 76 521 33 q 402 176 431 118 q 365 300 374 233 l 232 300 l 232 0 l 113 0 l 113 694 l 232 694 l 232 407 l 367 407 q 406 527 376 472 q 479 622 435 582 q 583 685 524 663 q 710 708 642 708 q 850 681 786 708 q 960 603 914 653 q 1033 488 1007 554 q 1058 347 1058 422 q 1033 206 1058 272 q 960 91 1007 140 q 850 14 914 42 q 710 -14 786 -14 m 710 99 q 801 118 760 99 q 873 171 843 138 q 919 249 903 204 q 936 347 936 294 q 919 445 936 400 q 873 524 903 490 q 801 576 843 557 q 710 596 760 596 q 618 577 660 596 q 547 525 576 558 q 501 446 518 492 q 485 347 485 400 q 501 249 485 294 q 547 171 518 204 q 618 118 576 138 q 710 99 660 99 z "},"я":{"ha":728,"x_min":-6,"x_max":614,"o":"m 275 272 q 149 346 193 292 q 104 474 104 400 q 120 560 104 519 q 168 630 136 600 q 247 677 200 660 q 357 694 294 694 l 614 694 l 614 0 l 494 0 l 494 253 l 406 253 l 144 0 l -6 0 l 275 272 m 494 360 l 494 588 l 364 588 q 259 558 294 588 q 224 472 224 528 q 261 388 224 417 q 364 360 299 360 l 494 360 z "},"ѕ":{"ha":625,"x_min":50,"x_max":564,"o":"m 324 -14 q 156 26 229 -14 q 50 147 82 65 l 147 201 q 217 120 167 149 q 324 92 267 92 q 409 116 374 92 q 444 185 444 140 q 418 247 444 222 q 324 293 392 272 l 254 315 q 124 392 168 340 q 82 518 81 444 q 100 598 82 563 q 151 658 118 633 q 227 695 183 682 q 321 708 271 708 q 456 677 397 708 q 549 588 515 646 l 460 526 q 401 583 438 560 q 315 606 365 606 q 236 583 272 606 q 200 522 200 561 q 220 465 200 490 q 299 422 240 440 l 375 399 q 515 322 465 371 q 564 194 564 274 q 546 106 564 144 q 495 40 528 67 q 419 0 463 14 q 324 -14 375 -14 z "},"є":{"ha":785,"x_min":58,"x_max":743,"o":"m 422 -14 q 276 14 343 -14 q 161 91 210 42 q 85 206 113 140 q 58 347 58 272 q 85 488 58 422 q 161 603 113 554 q 276 681 210 653 q 422 708 343 708 q 614 657 531 708 q 743 522 697 606 l 639 464 q 553 560 610 524 q 422 597 497 597 q 335 583 375 597 q 265 542 296 568 q 214 480 235 515 q 185 403 193 444 l 506 403 l 506 303 l 182 303 q 209 221 189 258 q 260 156 229 183 q 333 113 292 128 q 422 97 374 97 q 553 134 497 97 q 639 231 610 171 l 743 172 q 614 38 697 89 q 422 -14 531 -14 z "},"і":{"ha":346,"x_min":88,"x_max":257,"o":"m 174 832 q 113 856 138 832 q 88 917 88 881 q 113 976 88 951 q 174 1001 138 1001 q 233 976 210 1001 q 257 917 257 951 q 233 856 257 881 q 174 832 210 832 m 113 694 l 232 694 l 232 0 l 113 0 l 113 694 z "},"ј":{"ha":357,"x_min":-61,"x_max":268,"o":"m 44 -276 q -17 -270 15 -276 q -61 -257 -49 -264 l -35 -156 q -8 -164 -24 -160 q 33 -168 8 -168 q 97 -142 69 -168 q 124 -50 124 -117 l 124 694 l 243 694 l 243 -64 q 227 -158 243 -118 q 184 -224 211 -199 q 121 -263 157 -250 q 44 -276 85 -276 m 185 832 q 124 856 149 832 q 99 917 99 881 q 124 976 99 951 q 185 1001 149 1001 q 244 976 221 1001 q 268 917 268 951 q 244 856 268 881 q 185 832 221 832 z "},"џ":{"ha":836,"x_min":113,"x_max":722,"o":"m 475 0 l 475 -175 l 363 -175 l 363 0 l 113 0 l 113 694 l 232 694 l 232 110 l 603 110 l 603 694 l 722 694 l 722 0 l 475 0 z "},"љ":{"ha":1126,"x_min":18,"x_max":1086,"o":"m 685 108 l 844 108 q 935 133 903 108 q 967 204 967 158 q 935 275 967 249 q 844 301 903 301 l 685 301 l 685 108 m 685 694 l 685 408 l 849 408 q 954 390 910 408 q 1028 344 999 372 q 1072 279 1057 315 q 1086 206 1086 243 q 1072 131 1086 168 q 1028 65 1057 94 q 954 18 999 36 q 849 0 910 0 l 565 0 l 565 585 l 276 585 l 276 210 q 223 44 276 99 q 90 -10 169 -10 q 50 -8 67 -10 q 18 -1 33 -6 l 35 101 q 54 98 46 99 q 74 97 63 97 q 135 126 113 97 q 157 235 157 156 l 157 694 l 685 694 z "},"њ":{"ha":1157,"x_min":113,"x_max":1117,"o":"m 997 204 q 965 275 997 249 q 875 301 933 301 l 717 301 l 717 108 l 875 108 q 965 133 933 108 q 997 204 997 158 m 1117 206 q 1102 131 1117 168 q 1058 65 1088 94 q 985 18 1029 36 q 879 0 940 0 l 597 0 l 597 300 l 232 300 l 232 0 l 113 0 l 113 694 l 232 694 l 232 408 l 597 408 l 597 694 l 717 694 l 717 408 l 879 408 q 985 390 940 408 q 1058 344 1029 372 q 1102 279 1088 315 q 1117 206 1117 243 z "},"ђ":{"ha":818,"x_min":6,"x_max":715,"o":"m 426 -156 q 463 -165 443 -161 q 507 -168 482 -168 q 570 -142 543 -168 q 597 -50 597 -117 l 597 408 q 552 547 597 496 q 422 599 507 599 q 302 560 351 599 q 232 460 253 522 l 232 0 l 113 0 l 113 800 l 6 800 l 6 897 l 113 897 l 113 1014 l 232 1014 l 232 897 l 474 897 l 474 800 l 232 800 l 232 608 q 325 683 269 657 q 447 708 381 708 q 644 631 574 708 q 715 421 715 554 l 715 -64 q 699 -158 715 -118 q 656 -224 683 -199 q 593 -263 629 -250 q 517 -276 557 -276 q 456 -271 488 -276 q 400 -257 424 -265 l 426 -156 z "},"ћ":{"ha":818,"x_min":6,"x_max":715,"o":"m 597 408 q 551 549 597 500 q 424 599 504 599 q 301 560 350 599 q 232 461 253 522 l 232 0 l 113 0 l 113 800 l 6 800 l 6 897 l 113 897 l 113 1014 l 232 1014 l 232 897 l 474 897 l 474 800 l 232 800 l 232 607 q 326 684 268 660 q 451 708 385 708 q 558 689 510 708 q 642 633 607 669 q 696 544 676 596 q 715 426 715 492 l 715 0 l 597 0 l 597 408 z "},"ї":{"ha":346,"x_min":-47,"x_max":394,"o":"m 113 694 l 232 694 l 232 0 l 113 0 l 113 694 m 310 832 q 249 856 274 832 q 224 917 224 881 q 249 976 224 951 q 310 1001 274 1001 q 370 976 346 1001 q 394 917 394 951 q 370 856 394 881 q 310 832 346 832 m 39 832 q -22 856 3 832 q -47 917 -47 881 q -22 976 -47 951 q 39 1001 3 1001 q 99 976 75 1001 q 124 917 124 951 q 99 856 124 881 q 39 832 75 832 z "},"ѵ":{"ha":826,"x_min":8,"x_max":824,"o":"m 142 694 l 378 168 l 547 538 q 630 669 588 629 q 739 708 672 708 q 787 704 764 708 q 824 694 810 700 l 792 590 q 719 585 746 601 q 669 517 693 569 l 429 0 l 329 0 l 8 694 l 142 694 z "},"ү":{"ha":763,"x_min":10,"x_max":753,"o":"m 322 -3 l 10 694 l 143 694 l 381 151 l 618 694 l 753 694 l 442 3 l 442 -269 l 322 -269 l 322 -3 z "},"һ":{"ha":818,"x_min":113,"x_max":715,"o":"m 113 0 l 113 1014 l 232 1014 l 232 607 q 326 684 268 660 q 451 708 385 708 q 558 689 510 708 q 642 633 607 669 q 696 544 676 596 q 715 426 715 492 l 715 0 l 597 0 l 597 408 q 551 549 597 500 q 424 599 504 599 q 301 560 350 599 q 232 461 253 522 l 232 0 l 113 0 z "},"ӏ":{"ha":346,"x_min":113,"x_max":232,"o":"m 113 1014 l 232 1014 l 232 0 l 113 0 l 113 1014 z "},"ә":{"ha":807,"x_min":57,"x_max":749,"o":"m 389 708 q 536 681 469 708 q 650 604 603 653 q 723 490 697 556 q 749 347 749 424 q 722 205 749 271 q 647 90 694 139 q 533 14 599 42 q 388 -14 467 -14 q 259 9 319 -14 q 154 77 199 32 q 83 187 110 122 q 57 335 57 251 q 57 352 57 344 q 58 371 57 360 l 628 371 q 608 461 626 419 q 558 533 589 503 q 483 581 526 564 q 388 599 439 599 q 255 566 307 599 q 171 478 203 533 l 76 543 q 202 664 124 619 q 389 708 281 708 m 392 92 q 468 104 431 92 q 536 140 506 117 q 589 197 567 163 q 619 274 611 231 l 179 274 q 204 197 185 231 q 252 140 224 164 q 316 104 281 117 q 392 92 351 92 z "},"ѣ":{"ha":764,"x_min":25,"x_max":717,"o":"m 25 694 l 183 694 l 183 1014 l 303 1014 l 303 694 l 581 694 l 581 597 l 303 597 l 303 444 l 463 444 q 578 425 531 444 q 657 374 626 406 q 702 303 688 343 q 717 224 717 264 q 702 142 717 182 q 656 71 688 103 q 577 19 625 39 q 461 0 529 0 l 183 0 l 183 597 l 25 597 l 25 694 m 303 336 l 303 108 l 457 108 q 562 139 525 108 q 599 224 599 169 q 562 307 599 278 q 458 336 525 336 l 303 336 z "},"й":{"ha":843,"x_min":113,"x_max":729,"o":"m 113 0 l 113 694 l 232 694 l 232 185 l 624 694 l 729 694 l 729 0 l 611 0 l 611 510 l 219 0 l 113 0 m 432 779 q 346 794 386 779 q 276 838 306 810 q 228 908 246 867 q 211 1000 211 949 l 211 1014 l 303 1014 l 303 1000 q 338 899 303 938 q 432 861 374 861 q 526 899 490 861 q 561 1000 561 938 l 561 1014 l 653 1014 l 653 1000 q 635 908 653 949 q 588 838 618 867 q 518 794 558 810 q 432 779 478 779 z "},"ё":{"ha":807,"x_min":58,"x_max":750,"o":"m 418 -14 q 271 14 338 -14 q 157 90 204 42 q 84 205 110 139 q 58 347 58 271 q 85 490 58 424 q 159 604 111 556 q 274 681 207 653 q 419 708 340 708 q 547 685 488 708 q 652 617 607 663 q 724 508 697 572 q 750 360 750 443 q 750 342 750 350 q 749 324 750 335 l 179 324 q 199 233 181 275 q 249 161 218 192 q 324 113 281 131 q 419 96 368 96 q 552 128 500 96 q 636 217 604 161 l 731 151 q 605 31 683 75 q 418 -14 526 -14 m 628 421 q 602 497 621 464 q 555 554 583 531 q 490 590 526 578 q 415 603 454 603 q 339 590 376 603 q 271 555 301 578 q 218 498 240 532 q 188 421 196 464 l 628 421 m 578 832 q 517 856 542 832 q 492 917 492 881 q 517 976 492 951 q 578 1001 542 1001 q 638 976 614 1001 q 663 917 663 951 q 638 856 663 881 q 578 832 614 832 m 260 832 q 199 856 224 832 q 174 917 174 881 q 199 976 174 951 q 260 1001 224 1001 q 320 976 296 1001 q 344 917 344 951 q 320 856 344 881 q 260 832 296 832 z "},"ќ":{"ha":728,"x_min":113,"x_max":743,"o":"m 232 310 l 232 0 l 113 0 l 113 694 l 232 694 l 232 386 l 540 694 l 692 694 l 351 354 l 743 0 l 578 0 l 232 310 m 463 1014 l 614 1014 l 440 797 l 340 797 l 463 1014 z "},"ґ":{"ha":571,"x_min":113,"x_max":547,"o":"m 113 694 l 547 694 l 547 585 l 232 585 l 232 0 l 113 0 l 113 694 m 435 694 l 435 869 l 547 869 l 547 694 l 435 694 z "},"ѓ":{"ha":571,"x_min":113,"x_max":551,"o":"m 113 694 l 547 694 l 547 585 l 232 585 l 232 0 l 113 0 l 113 694 m 400 1014 l 551 1014 l 378 797 l 278 797 l 400 1014 z "},"ў":{"ha":761,"x_min":11,"x_max":753,"o":"m 389 -96 q 295 -233 346 -190 q 164 -276 244 -276 q 69 -265 110 -276 l 90 -161 q 121 -166 106 -164 q 156 -168 136 -168 q 218 -146 190 -168 q 274 -62 246 -124 l 318 32 l 11 694 l 143 694 l 383 171 l 619 694 l 753 694 l 389 -96 m 382 779 q 296 794 336 779 q 226 838 256 810 q 178 908 196 867 q 161 1000 161 949 l 161 1014 l 253 1014 l 253 1000 q 288 899 253 938 q 382 861 324 861 q 476 899 440 861 q 511 1000 511 938 l 511 1014 l 603 1014 l 603 1000 q 585 908 603 949 q 538 838 568 867 q 468 794 508 810 q 382 779 428 779 z "},"ѳ":{"ha":842,"x_min":57,"x_max":783,"o":"m 421 -14 q 275 15 342 -14 q 160 92 208 43 q 84 206 111 140 q 57 347 57 272 q 84 488 57 422 q 160 603 111 554 q 275 680 208 651 q 421 708 342 708 q 565 680 499 708 q 681 603 632 651 q 756 488 729 554 q 783 347 783 422 q 756 206 783 272 q 681 92 729 140 q 565 15 632 43 q 421 -14 499 -14 m 421 97 q 519 117 475 97 q 595 170 564 136 q 644 249 626 204 q 661 347 661 294 q 644 444 661 399 q 595 524 626 490 q 519 578 564 558 q 421 597 475 597 q 322 578 367 597 q 246 524 278 558 q 197 444 214 490 q 179 347 179 399 q 197 249 179 294 q 246 170 214 204 q 322 117 278 136 q 421 97 367 97 m 142 394 l 700 394 l 700 300 l 142 300 l 142 394 z "},"ө":{"ha":842,"x_min":57,"x_max":783,"o":"m 421 -14 q 275 15 342 -14 q 160 92 208 43 q 84 206 111 140 q 57 347 57 272 q 84 488 57 422 q 160 603 111 554 q 275 680 208 651 q 421 708 342 708 q 565 680 499 708 q 681 603 632 651 q 756 488 729 554 q 783 347 783 422 q 756 206 783 272 q 681 92 729 140 q 565 15 632 43 q 421 -14 499 -14 m 421 97 q 519 117 475 97 q 595 170 564 136 q 644 249 626 204 q 661 347 661 294 q 644 444 661 399 q 595 524 626 490 q 519 578 564 558 q 421 597 475 597 q 322 578 367 597 q 246 524 278 558 q 197 444 214 490 q 179 347 179 399 q 197 249 179 294 q 246 170 214 204 q 322 117 278 136 q 421 97 367 97 m 142 394 l 700 394 l 700 300 l 142 300 l 142 394 z "},"ғ":{"ha":596,"x_min":26,"x_max":572,"o":"m 138 694 l 572 694 l 572 585 l 257 585 l 257 0 l 138 0 l 138 694 m 26 314 l 26 411 l 438 411 l 438 314 l 26 314 z "},"ұ":{"ha":763,"x_min":10,"x_max":753,"o":"m 322 -3 l 10 694 l 143 694 l 381 151 l 618 694 l 753 694 l 442 3 l 442 -269 l 322 -269 l 322 -3 m 133 0 l 632 0 l 632 -97 l 133 -97 l 133 0 z "},"ӣ":{"ha":843,"x_min":113,"x_max":729,"o":"m 113 0 l 113 694 l 232 694 l 232 185 l 624 694 l 729 694 l 729 0 l 611 0 l 611 510 l 219 0 l 113 0 m 208 986 l 656 986 l 656 890 l 208 890 l 208 986 z "},"ӯ":{"ha":761,"x_min":11,"x_max":753,"o":"m 389 -96 q 295 -233 346 -190 q 164 -276 244 -276 q 69 -265 110 -276 l 90 -161 q 121 -166 106 -164 q 156 -168 136 -168 q 218 -146 190 -168 q 274 -62 246 -124 l 318 32 l 11 694 l 143 694 l 383 171 l 619 694 l 753 694 l 389 -96 m 158 986 l 606 986 l 606 890 l 158 890 l 158 986 z "},"җ":{"ha":1110,"x_min":-6,"x_max":1099,"o":"m 600 308 l 600 0 l 481 0 l 481 308 l 153 0 l -6 0 l 367 354 l 43 694 l 192 694 l 481 386 l 481 694 l 600 694 l 600 386 l 890 694 l 1038 694 l 714 354 l 1086 0 l 928 0 l 600 308 m 986 0 l 947 0 l 947 110 l 1099 110 l 1099 -175 l 986 -175 l 986 0 z "},"қ":{"ha":756,"x_min":113,"x_max":751,"o":"m 232 310 l 232 0 l 113 0 l 113 694 l 232 694 l 232 386 l 540 694 l 692 694 l 351 354 l 743 0 l 578 0 l 232 310 m 639 0 l 600 0 l 600 110 l 751 110 l 751 -175 l 639 -175 l 639 0 z "},"ң":{"ha":885,"x_min":113,"x_max":836,"o":"m 113 694 l 232 694 l 232 408 l 611 408 l 611 694 l 731 694 l 731 0 l 611 0 l 611 300 l 232 300 l 232 0 l 113 0 l 113 694 m 724 0 l 685 0 l 685 110 l 836 110 l 836 -175 l 724 -175 l 724 0 z "},"ҳ":{"ha":771,"x_min":8,"x_max":754,"o":"m 368 263 l 157 0 l 8 0 l 293 351 l 32 694 l 176 694 l 368 443 l 558 694 l 704 694 l 442 351 l 726 0 l 579 0 l 368 263 m 642 0 l 603 0 l 603 110 l 754 110 l 754 -175 l 642 -175 l 642 0 z "},"ҷ":{"ha":796,"x_min":56,"x_max":747,"o":"m 521 0 l 521 282 q 424 247 476 258 q 318 236 371 236 q 211 253 260 236 q 128 301 163 269 q 75 378 94 332 q 56 483 56 424 l 56 694 l 175 694 l 175 496 q 188 424 175 453 q 224 377 201 394 q 276 353 246 360 q 340 346 307 346 q 430 357 381 346 q 521 393 479 368 l 521 694 l 640 694 l 640 0 l 521 0 m 635 0 l 596 0 l 596 110 l 747 110 l 747 -175 l 635 -175 l 635 0 z "},"":{"ha":0,"x_min":-221,"x_max":221,"o":"m 0 779 q -86 794 -46 779 q -156 838 -126 810 q -203 908 -186 867 q -221 1000 -221 949 l -221 1014 l -129 1014 l -129 1000 q -94 899 -129 938 q 0 861 -58 861 q 94 899 58 861 q 129 1000 129 938 l 129 1014 l 221 1014 l 221 1000 q 203 908 221 949 q 156 838 186 867 q 86 794 126 810 q 0 779 46 779 z "},"":{"ha":0,"x_min":-221,"x_max":221,"o":"m 0 1054 q -86 1069 -46 1054 q -156 1113 -126 1085 q -203 1183 -186 1142 q -221 1274 -221 1224 l -129 1274 q -94 1174 -129 1211 q 0 1136 -58 1136 q 94 1174 58 1136 q 129 1274 129 1211 l 221 1274 q 203 1183 221 1224 q 156 1113 186 1142 q 86 1069 126 1085 q 0 1054 46 1054 z "},"₽":{"ha":854,"x_min":71,"x_max":808,"o":"m 71 504 l 192 504 l 192 986 l 476 986 q 615 965 553 986 q 719 904 676 943 q 785 810 763 865 q 808 689 808 756 q 785 567 808 622 q 719 472 763 511 q 615 410 676 432 q 476 388 553 388 l 311 388 l 311 276 l 599 276 l 599 200 l 311 200 l 311 0 l 192 0 l 192 200 l 71 200 l 71 276 l 192 276 l 192 388 l 71 388 l 71 504 m 474 504 q 628 554 575 504 q 681 689 681 604 q 628 821 681 772 q 474 869 575 869 l 311 869 l 311 504 l 474 504 z "},"₴":{"ha":853,"x_min":68,"x_max":774,"o":"m 68 449 l 774 449 l 774 372 l 279 372 q 240 322 251 351 q 228 257 228 292 q 243 191 228 221 q 285 139 258 161 q 348 105 311 117 q 428 93 385 93 q 572 128 511 93 q 675 231 632 164 l 768 161 q 636 35 724 86 q 429 -17 549 -17 q 301 2 360 -17 q 199 56 242 21 q 133 139 157 90 q 108 247 108 188 q 143 372 108 322 l 68 372 l 68 449 m 68 621 l 560 621 q 615 733 615 660 q 567 849 615 804 q 433 893 518 893 q 224 792 306 893 l 138 868 q 260 965 183 928 q 433 1003 338 1003 q 553 985 499 1003 q 649 933 608 967 q 712 853 689 900 q 735 747 735 806 q 726 678 735 710 q 697 621 717 646 l 774 621 l 774 544 l 68 544 l 68 621 z "},"…":{"ha":946,"x_min":72,"x_max":874,"o":"m 158 -11 q 97 13 122 -11 q 72 74 72 38 q 97 133 72 108 q 158 158 122 158 q 219 133 194 158 q 243 74 243 108 q 219 13 243 38 q 158 -11 194 -11 m 474 -11 q 413 13 438 -11 q 388 74 388 38 q 413 133 388 108 q 474 158 438 158 q 534 133 510 158 q 558 74 558 108 q 534 13 558 38 q 474 -11 510 -11 m 789 -11 q 728 13 753 -11 q 703 74 703 38 q 728 133 703 108 q 789 158 753 158 q 849 133 825 158 q 874 74 874 108 q 849 13 874 38 q 789 -11 825 -11 z "},"–":{"ha":785,"x_min":90,"x_max":693,"o":"m 90 449 l 693 449 l 693 329 l 90 329 l 90 449 z "},"—":{"ha":882,"x_min":90,"x_max":792,"o":"m 90 449 l 792 449 l 792 329 l 90 329 l 90 449 z "},"‹":{"ha":421,"x_min":58,"x_max":350,"o":"m 350 75 l 269 22 l 58 347 l 269 672 l 350 619 l 192 347 l 350 75 z "},"›":{"ha":421,"x_min":71,"x_max":363,"o":"m 229 347 l 71 619 l 151 672 l 363 347 l 151 22 l 71 75 l 229 347 z "},"‘":{"ha":342,"x_min":82,"x_max":308,"o":"m 235 986 l 308 986 l 215 783 q 242 754 232 772 q 253 714 253 736 q 228 654 253 679 q 167 629 203 629 q 106 654 131 629 q 82 714 82 679 q 93 761 82 744 l 235 986 z "},"’":{"ha":326,"x_min":31,"x_max":257,"o":"m 104 644 l 31 644 l 124 847 q 97 876 107 858 q 86 917 86 894 q 111 976 86 951 q 172 1001 136 1001 q 233 976 208 1001 q 257 917 257 951 q 246 869 257 886 l 104 644 z "},"“":{"ha":600,"x_min":82,"x_max":567,"o":"m 235 986 l 308 986 l 215 783 q 242 754 232 772 q 253 714 253 736 q 228 654 253 679 q 167 629 203 629 q 106 654 131 629 q 82 714 82 679 q 93 761 82 744 l 235 986 m 493 986 l 567 986 l 474 783 q 501 754 490 772 q 511 714 511 736 q 486 654 511 679 q 425 629 461 629 q 365 654 389 629 q 340 714 340 679 q 351 761 340 744 l 493 986 z "},"”":{"ha":585,"x_min":31,"x_max":515,"o":"m 104 644 l 31 644 l 124 847 q 97 876 107 858 q 86 917 86 894 q 111 976 86 951 q 172 1001 136 1001 q 233 976 208 1001 q 257 917 257 951 q 246 869 257 886 l 104 644 m 363 644 l 289 644 l 382 847 q 355 876 365 858 q 344 917 344 894 q 369 976 344 951 q 431 1001 394 1001 q 491 976 467 1001 q 515 917 515 951 q 504 869 515 886 l 363 644 z "},"‚":{"ha":357,"x_min":17,"x_max":243,"o":"m 90 -199 l 17 -199 l 110 4 q 83 33 93 15 q 72 74 72 51 q 97 133 72 108 q 158 158 122 158 q 219 133 194 158 q 243 74 243 108 q 232 26 243 43 l 90 -199 z "},"„":{"ha":615,"x_min":17,"x_max":501,"o":"m 90 -199 l 17 -199 l 110 4 q 83 33 93 15 q 72 74 72 51 q 97 133 72 108 q 158 158 122 158 q 219 133 194 158 q 243 74 243 108 q 232 26 243 43 l 90 -199 m 349 -199 l 275 -199 l 368 4 q 341 33 351 15 q 331 74 331 51 q 356 133 331 108 q 417 158 381 158 q 477 133 453 158 q 501 74 501 108 q 490 26 501 43 l 349 -199 z "},"•":{"ha":582,"x_min":101,"x_max":481,"o":"m 290 231 q 217 245 251 231 q 158 285 183 260 q 117 346 132 311 q 101 419 101 381 q 117 493 101 458 q 158 553 132 528 q 217 594 183 579 q 290 608 251 608 q 364 594 329 608 q 424 553 399 579 q 465 493 450 528 q 481 419 481 458 q 465 346 481 381 q 424 285 450 311 q 364 245 399 260 q 290 231 329 231 z "},"−":{"ha":775,"x_min":94,"x_max":682,"o":"m 94 456 l 682 456 l 682 349 l 94 349 l 94 456 z "},"€":{"ha":1088,"x_min":46,"x_max":1033,"o":"m 46 561 l 82 638 l 219 638 q 288 785 242 718 q 397 900 333 851 q 537 976 460 949 q 699 1003 614 1003 q 806 993 757 1003 q 897 967 856 983 q 972 927 938 950 q 1033 878 1006 904 l 956 789 q 849 860 911 833 q 699 886 786 886 q 581 868 636 886 q 479 817 525 850 q 399 739 433 785 q 344 638 364 693 l 864 638 l 829 561 l 325 561 q 321 527 322 544 q 319 493 319 510 q 324 428 319 458 l 765 428 l 733 353 l 343 353 q 397 249 363 296 q 478 169 432 203 q 580 118 524 136 q 699 100 636 100 q 849 126 786 100 q 956 197 911 153 l 1033 108 q 896 19 976 56 q 699 -17 815 -17 q 535 10 613 -17 q 395 86 458 38 q 286 203 332 135 q 218 353 240 271 l 46 353 l 82 428 l 203 428 q 200 460 200 443 q 200 493 200 476 q 204 561 200 528 l 46 561 z "},"ﬁ":{"ha":903,"x_min":22,"x_max":815,"o":"m 186 585 l 22 585 l 22 694 l 186 694 l 186 796 q 246 960 186 899 q 410 1022 306 1022 q 495 1011 460 1022 q 554 988 531 1000 l 510 888 q 469 903 494 894 q 415 913 444 913 q 334 879 363 913 q 306 789 306 846 l 306 694 l 542 694 l 542 585 l 306 585 l 306 0 l 186 0 l 186 585 m 731 832 q 669 856 694 832 q 644 917 644 881 q 669 976 644 951 q 731 1001 694 1001 q 791 976 767 1001 q 815 917 815 951 q 791 856 815 881 q 731 832 767 832 m 669 694 l 789 694 l 789 0 l 669 0 l 669 694 z "},"ﬂ":{"ha":903,"x_min":22,"x_max":789,"o":"m 186 585 l 22 585 l 22 694 l 186 694 l 186 796 q 246 960 186 899 q 410 1022 306 1022 q 495 1011 460 1022 q 554 988 531 1000 l 510 888 q 469 903 494 894 q 415 913 444 913 q 334 879 363 913 q 306 789 306 846 l 306 694 l 542 694 l 542 585 l 306 585 l 306 0 l 186 0 l 186 585 m 669 1014 l 789 1014 l 789 0 l 669 0 l 669 1014 z "},"˘":{"ha":0,"x_min":-221,"x_max":221,"o":"m 0 779 q -86 794 -46 779 q -156 838 -126 810 q -203 908 -186 867 q -221 1000 -221 949 l -221 1014 l -140 1014 l -140 1000 q -99 894 -140 931 q 0 858 -58 858 q 99 894 58 858 q 140 1000 140 931 l 140 1014 l 221 1014 l 221 1000 q 203 908 221 949 q 156 838 186 867 q 86 794 126 810 q 0 779 46 779 z "},"ˇ":{"ha":0,"x_min":-237,"x_max":238,"o":"m -112 1014 l 0 882 l 113 1014 l 238 1014 l 61 803 l -61 803 l -237 1014 l -112 1014 z "},"ˆ":{"ha":0,"x_min":-237,"x_max":238,"o":"m -61 1014 l 61 1014 l 238 803 l 113 803 l 0 933 l -112 803 l -237 803 l -61 1014 z "},"˙":{"ha":0,"x_min":-86,"x_max":85,"o":"m 0 832 q -61 856 -36 832 q -86 917 -86 881 q -61 976 -86 951 q 0 1001 -36 1001 q 60 976 36 1001 q 85 917 85 951 q 60 856 85 881 q 0 832 36 832 z "},"˝":{"ha":0,"x_min":-224,"x_max":224,"o":"m -147 1014 l -10 1014 l -136 797 l -224 797 l -147 1014 m 85 1014 l 224 1014 l 96 797 l 10 797 l 85 1014 z "},"˛":{"ha":0,"x_min":-122,"x_max":121,"o":"m 8 -283 q -87 -250 -53 -283 q -122 -164 -122 -217 q -91 -72 -122 -111 q -19 0 -60 -32 l 100 0 q -17 -140 -17 -74 q -1 -176 -17 -164 q 33 -187 14 -187 q 58 -185 46 -187 q 83 -175 71 -182 l 121 -249 q 70 -274 100 -264 q 8 -283 40 -283 z "},"˚":{"ha":0,"x_min":-85,"x_max":86,"o":"m 1 832 q -60 856 -35 832 q -85 917 -85 881 q -60 976 -85 951 q 1 1001 -35 1001 q 62 976 38 1001 q 86 917 86 951 q 62 856 86 881 q 1 832 38 832 z "},"˜":{"ha":0,"x_min":-242,"x_max":240,"o":"m -237 849 q -186 944 -226 908 q -90 981 -146 981 q -37 971 -62 981 q 10 950 -12 961 q 53 929 33 939 q 89 919 72 919 q 149 981 135 919 l 240 981 l 236 956 q 185 860 225 896 q 89 824 144 824 q 36 833 61 824 q -12 854 11 843 q -54 875 -35 865 q -90 885 -74 885 q -150 824 -136 885 l -242 824 l -237 849 z "}}}
